<svg xmlns="http://www.w3.org/2000/svg" viewBox="0 0 500 500"><g id="freepik--background-complete--inject-30"><rect x="45.76" y="264.26" width="408.48" height="80.85" style="fill:#ebebeb"></rect><rect x="38.64" y="252.91" width="422.73" height="11.35" style="fill:#dbdbdb"></rect><path d="M411.28,325.81l9.54-.28,4.67-.11c1.56-.05,3.1,0,4.64-.06l-.44.45-.06-8,.5.5-9.42-.06c-3.15,0-6.29-.11-9.43-.16l.27-.28c0,1.3-.08,2.6-.13,3.93Zm0,0-.14-3.93c-.05-1.32-.11-2.68-.13-4v-.27h.28c3.14-.05,6.28-.16,9.43-.16l9.42-.07h.5v.5l-.05,8v.45h-.44c-1.59,0-3.2,0-4.79-.05l-4.75-.11C417.43,326,414.33,325.9,411.28,325.81Z" style="fill:#fff"></path><path d="M421.8,335.85l9.54-.28,4.67-.11c1.55,0,3.09,0,4.64,0l-.45.44-.05-8,.5.5-9.43-.07c-3.14,0-6.28-.11-9.42-.16l.27-.27c0,1.29-.09,2.6-.13,3.92Zm0,0-.15-3.92c0-1.33-.11-2.68-.13-4v-.27h.28c3.14-.05,6.28-.15,9.42-.16l9.43-.06h.5v.51l-.06,8v.45h-.44c-1.6,0-3.2,0-4.79-.06l-4.75-.11C427.94,336.07,424.84,336,421.8,335.85Z" style="fill:#fff"></path><rect x="400.77" y="327.89" width="18.85" height="7.97" transform="translate(820.38 663.74) rotate(180)" style="fill:#fff"></rect><path d="M69.37,281.54l9.54-.28,4.67-.11c1.55,0,3.09,0,4.64-.06l-.45.45,0-8,.5.5L78.79,274c-3.14,0-6.28-.12-9.42-.17l.27-.27c0,1.29-.09,2.6-.13,3.92Zm0,0-.15-3.93c0-1.33-.11-2.68-.13-4v-.27h.28c3.14-.05,6.28-.16,9.42-.17l9.43-.06h.5v.5l-.06,8V282h-.44c-1.6,0-3.2,0-4.79-.05l-4.75-.12C75.51,281.75,72.41,281.63,69.37,281.54Z" style="fill:#fff"></path><rect x="58.85" y="283.61" width="18.85" height="7.97" transform="translate(136.55 575.19) rotate(180)" style="fill:#fff"></rect><path d="M333.35,281.54l9.54-.27,4.67-.12c1.55,0,3.09,0,4.64,0l-.45.44-.05-8,.5.5-9.43-.06c-3.14,0-6.28-.12-9.42-.17l.27-.27c0,1.29-.09,2.6-.13,3.92Zm0,0-.15-3.92c0-1.33-.11-2.68-.13-4v-.27h.28c3.14-.06,6.28-.16,9.42-.17l9.43-.06h.5v.5l-.06,8V282h-.44c-1.6,0-3.2,0-4.79-.05l-4.75-.12C339.49,281.76,336.39,281.64,333.35,281.54Z" style="fill:#fff"></path><rect x="144.89" y="327.54" width="18.85" height="7.97" transform="translate(308.63 663.05) rotate(180)" style="fill:#fff"></rect><path d="M239.12,301.16l-9.54.28-4.67.11c-1.55.05-3.09,0-4.64.05l.45-.44.05,8-.5-.49,9.43.06c3.14,0,6.28.11,9.42.16l-.27.27c0-1.29.09-2.59.13-3.92Zm0,0,.15,3.92c0,1.33.11,2.68.13,4v.27h-.28c-3.14.05-6.28.16-9.42.16l-9.43.06h-.5v-.51l.06-8v-.45h.44c1.6,0,3.2,0,4.79.06l4.75.11C233,301,236.08,301.07,239.12,301.16Z" style="fill:#fff"></path><path d="M228.61,291.11l-9.54.28-4.67.12c-1.56,0-3.1,0-4.64.05l.44-.44.06,8-.5-.5,9.42.06c3.15,0,6.29.12,9.43.17l-.27.27c0-1.29.08-2.6.13-3.92Zm0,0,.14,3.93c.05,1.33.11,2.68.13,4v.27h-.28c-3.14,0-6.28.16-9.43.17l-9.42.06h-.5v-.5l.05-8v-.46h.44c1.59,0,3.2,0,4.79.05l4.75.12C222.46,290.9,225.56,291,228.61,291.11Z" style="fill:#fff"></path><path d="M454.25,138.45H342.11s11.12-30.37,28.23-30.37,22.47,21,22.47,21,11.55-11.39,21-11.39,17.73,15.05,17.73,15.05S445,124.61,454.25,138.45Z" style="fill:#ebebeb"></path><path d="M391.48,58.19h-52.4s11.71-17,20.93-17S372,52.54,372,52.54s6.51-5.28,12.55-4.34S391.48,58.19,391.48,58.19Z" style="fill:#ebebeb"></path><path d="M149.79,194.12H97.38s11.71-17,20.94-17,12,11.31,12,11.31,6.51-5.28,12.54-4.33S149.79,194.12,149.79,194.12Z" style="fill:#ebebeb"></path><path d="M147.83,154.06H45.75s14-31.2,28.94-33.15,22.1,23.19,22.1,23.19,9.65-8.89,17.23-8.89,13.44,11.7,13.44,11.7S142.63,138.89,147.83,154.06Z" style="fill:#ebebeb"></path><path d="M219.58,76.86h-69s11.85-22.61,24.7-22.94S194.92,71,194.92,71,214.91,55,219.58,76.86Z" style="fill:#ebebeb"></path><path d="M361,164.52h-69s11.85-22.61,24.7-22.94,19.6,17.12,19.6,17.12S356.37,142.66,361,164.52Z" style="fill:#ebebeb"></path><path d="M440.76,428.13c-.78-.32-1.12.94-.35,1.26a4.24,4.24,0,0,1,2.47,5.13.65.65,0,0,0,1.26.35A5.58,5.58,0,0,0,440.76,428.13Z" style="fill:#ebebeb"></path><path d="M446.48,426.91a10,10,0,0,0-.76,5.78c.13.83,1.39.47,1.26-.35a8.41,8.41,0,0,1,.63-4.77C447.94,426.81,446.82,426.14,446.48,426.91Z" style="fill:#ebebeb"></path><path d="M273.56,426.9c-.75-.39-1.41.74-.66,1.13a4,4,0,0,1,2.16,4c-.07.84,1.24.84,1.3,0A5.3,5.3,0,0,0,273.56,426.9Z" style="fill:#ebebeb"></path><path d="M52.3,361.92c-.75-.39-1.41.74-.66,1.13a4,4,0,0,1,2.16,4c-.07.84,1.24.83,1.3,0A5.3,5.3,0,0,0,52.3,361.92Z" style="fill:#ebebeb"></path><path d="M117.9,398.61c-.75-.39-1.41.74-.66,1.13a4,4,0,0,1,2.16,4c-.07.84,1.24.83,1.31,0A5.33,5.33,0,0,0,117.9,398.61Z" style="fill:#ebebeb"></path><path d="M121.79,396.57c-.4-.74-1.53-.08-1.13.66a10.36,10.36,0,0,1,1.23,5.59c0,.84,1.27.84,1.31,0A11.83,11.83,0,0,0,121.79,396.57Z" style="fill:#ebebeb"></path><path d="M124.82,397.44a6.81,6.81,0,0,0-.83,4.17c.1.82,1.41.83,1.3,0a5.65,5.65,0,0,1,.66-3.51C126.35,397.36,125.22,396.7,124.82,397.44Z" style="fill:#ebebeb"></path><path d="M166.77,460.43a.65.65,0,0,0-.65,1.12,5.33,5.33,0,0,1,2.62,4.93c0,.84,1.27.84,1.31,0A6.6,6.6,0,0,0,166.77,460.43Z" style="fill:#ebebeb"></path><path d="M171.56,463.55l-.45,2.63c-.14.83,1.12,1.18,1.26.35l.45-2.63C173,463.08,171.7,462.73,171.56,463.55Z" style="fill:#ebebeb"></path><path d="M49.68,429.91c-.64-.54-1.57.38-.92.92A6.12,6.12,0,0,1,51,436c-.05.84,1.26.83,1.3,0A7.29,7.29,0,0,0,49.68,429.91Z" style="fill:#ebebeb"></path><path d="M375.42,414.19c.65-.53,1.58.39.93.92a6.07,6.07,0,0,0-2.26,5.12c0,.84-1.27.84-1.31,0A7.3,7.3,0,0,1,375.42,414.19Z" style="fill:#ebebeb"></path><path d="M450.32,361c.64-.53,1.57.39.92.92a6.12,6.12,0,0,0-2.26,5.12c0,.84-1.26.84-1.3,0A7.3,7.3,0,0,1,450.32,361Z" style="fill:#ebebeb"></path><path d="M350.37,453.86a7.77,7.77,0,0,0-2.08,6.91c.15.83,1.41.48,1.26-.34a6.36,6.36,0,0,1,1.74-5.64C351.88,454.18,351,453.26,350.37,453.86Z" style="fill:#ebebeb"></path><path d="M345.61,454.58V459a.65.65,0,0,0,1.3,0v-4.38A.65.65,0,0,0,345.61,454.58Z" style="fill:#ebebeb"></path><path d="M352.6,456a4,4,0,0,0-1.85,3.55c0,.84,1.35.84,1.31,0a2.67,2.67,0,0,1,1.2-2.42C354,456.63,353.3,455.49,352.6,456Z" style="fill:#ebebeb"></path></g><g id="freepik--Floor--inject-30"><polygon points="38.64 345.11 91.48 344.87 144.32 344.78 250 344.61 355.68 344.78 408.52 344.87 461.36 345.11 408.52 345.35 355.68 345.44 250 345.61 144.32 345.44 91.48 345.35 38.64 345.11" style="fill:#263238"></polygon></g><g id="freepik--Shadow--inject-30"><ellipse cx="305.6" cy="409.31" rx="143.38" ry="12.2" style="fill:#ebebeb"></ellipse></g><g id="freepik--Plants--inject-30"><path d="M85.84,248.09a64.77,64.77,0,0,0-2.08,11.78c.11.2.09.93,0,.73,0,.64-1,.53-1-.11,0-.42,0-.84,0-1.24-2.3-2.86-5.64-4.67-8.34-7.15a15.63,15.63,0,0,1-4.58-7.28c-2.24-7.72-.14-15.9-2.83-23.61-2.33-6.64-6.49-12.41-10-18.43-3.72-6.36-6.47-13.05-6.74-20.5-.22-5.71.46-13.31,4.81-17.59,4.6-4.53,10.31-1.13,13.84,2.91,10.23,11.74,15,26.58,16.88,41.74,1,8.4,2.15,16.85,1.89,25.32A67.52,67.52,0,0,1,85.84,248.09Z" style="fill:#BB4B4B"></path><path d="M83.81,263a145.23,145.23,0,0,0-.29-23.78.15.15,0,0,0,0-.09c.13-6.43.64-12.83.39-19.27a114.24,114.24,0,0,0-2.83-20.66c0-.08-.14-.06-.12,0a134.37,134.37,0,0,1,2.23,20.21c.13,3.63.11,7.27-.08,10.89-.07,1.19-.18,2.38-.25,3.57h0a127.23,127.23,0,0,0-19.12-50.62c-.14-.21-.51,0-.38.23A132,132,0,0,1,79,221C74,211.86,66.61,204.36,61.1,195.61c0-.05-.11,0-.08,0,4.95,9.74,13.13,17.43,18.34,27q1.36,5.87,2.2,11.84A133.25,133.25,0,0,1,82.75,251c-3-5.6-6.11-11-8.56-16.88-.06-.16-.29-.05-.24.11,2.09,6.15,4.89,12.78,8.81,18q0,5.85-.32,11.68c-.61,10.38-2.38,20.63-3.2,31a.24.24,0,0,0,.47.05A237.51,237.51,0,0,0,83.81,263Z" style="fill:#263238"></path><path d="M72.78,182.88c0-.08-.14,0-.12.05,1.9,5.24,3,10.56,4.34,15.93a.2.2,0,0,0,.39-.06C76.84,193.35,74.89,187.9,72.78,182.88Z" style="fill:#263238"></path><path d="M120.94,204.86a80.52,80.52,0,0,1-4.36,9c-3.42,6.2-7,11.88-7.63,19.1-.28,3.23-.39,6.47-1.37,9.57a28.91,28.91,0,0,1-3.81,7.49c-3.7,5.4-8.33,10-11.76,15.64a65.66,65.66,0,0,0-7.81,18.84c-.09.36-.66.26-.57-.1l0-.08a.1.1,0,0,1,0-.08c-.54-15.48.7-31.09,5.42-45.92a157.3,157.3,0,0,1,7.5-19.1c2.53-5.38,5.69-10.55,10.13-14.57,2.88-2.6,9.13-7.52,13.23-4.91C121.86,201,121.71,202.92,120.94,204.86Z" style="fill:#BB4B4B"></path><path d="M105.38,240a128.11,128.11,0,0,1-9,12.93c-1.5,2-3,3.9-4.52,5.86-.7.93-1.5,1.85-2.15,2.84.41-1.62.81-3.26,1.23-4.88,2-7.82,3.91-15.72,6.89-23.24a157,157,0,0,1,10.75-21.07c.11-.18-.18-.31-.29-.14C105,217.64,101.7,223,99,228.69a87.2,87.2,0,0,0-4,9.74,150.1,150.1,0,0,1,5.28-20.82c0-.06-.07-.11-.09-.05a71.38,71.38,0,0,0-5.48,21.67s0,0,0,0q-1,3-1.86,6.09c-2.44,8.66-4.58,17.41-6.57,26.2a93.88,93.88,0,0,1,1.49-17.22c0-.13-.17-.16-.2,0a54.47,54.47,0,0,0-1.49,18.16q-1.12,5-2.2,10c-1.52,7.13-3.39,14.4-4.28,21.64a.15.15,0,0,0,.29.05c1.06-3.9,1.7-7.95,2.57-11.91s1.77-7.93,2.69-11.88c1.34-5.76,2.75-11.51,4.19-17.25,1-2.1,2.81-4,4.2-5.74,1.52-1.93,3-3.87,4.53-5.84A85.27,85.27,0,0,0,105.51,240C105.56,239.94,105.42,239.88,105.38,240Z" style="fill:#263238"></path><path d="M106,233.34a80.69,80.69,0,0,0-8.81,14c0,.06.07.13.11.07,3-4.65,5.88-9.33,8.83-14C106.22,233.35,106.09,233.26,106,233.34Z" style="fill:#263238"></path><path d="M40.12,219.54c2,3.45,4.3,7.6,3.44,11.75-.55,2.63-2.47,4.76-2.82,7.44-.77,5.92,5.12,9.82,9.39,12.62,10.63,7,25.21,13.19,27.14,27.44.08.5,1,.38.88-.12a.29.29,0,0,0,0-.09s.06,0,.06-.08a54.78,54.78,0,0,0-.2-21.76c-1.59-7.35-4.79-13.94-8.58-20.39-6.39-10.92-13.17-22.1-22.85-30.46-2.67-2.31-8.16-6.47-10.29-1.25S37.67,215.32,40.12,219.54Z" style="fill:#BB4B4B"></path><path d="M49.86,242.68c7,7.63,18.25,11.91,24.32,20.46A85.7,85.7,0,0,0,55.48,228c-.23-.26.14-.63.39-.39a69.3,69.3,0,0,1,15.28,22.13,98.58,98.58,0,0,0-6.58-16.82c-.1-.21.19-.39.31-.19A63.94,63.94,0,0,1,72,251.66C80,271,80.71,293.72,79,314.12a.23.23,0,0,1-.46,0c.46-16.08.2-32.43-3.65-48.14l-.25-1c-6.6-9.2-17.76-13.47-24.94-22.21A.09.09,0,0,1,49.86,242.68Z" style="fill:#263238"></path><path d="M48.22,236.13c3.7,3.39,7.34,6.86,11.05,10.26,0,0,0,.1-.05.07A54,54,0,0,1,48,236.35C47.88,236.19,48.07,236,48.22,236.13Z" style="fill:#263238"></path><path d="M47.64,221.42a116.24,116.24,0,0,0,11.07,15.23.07.07,0,0,1-.1.09,53.6,53.6,0,0,1-11.17-15.21A.11.11,0,0,1,47.64,221.42Z" style="fill:#263238"></path><polygon points="58.21 344.83 102.8 344.83 96.79 284.85 65.08 284.85 58.21 344.83" style="fill:#455a64"></polygon><polygon points="63.96 294.6 97.77 294.6 96.79 284.85 65.08 284.85 63.96 294.6" style="fill:#263238"></polygon><rect x="59.61" y="278.2" width="41.79" height="9.58" transform="translate(161.01 565.98) rotate(180)" style="fill:#455a64"></rect><path d="M400.82,184.6a95.57,95.57,0,0,0-2.23-15.71c-1.11-4.66-2.68-9.41-5.61-13.26-2.69-3.51-6.54-6.31-11-6.86-4.31-.52-8.36,1.4-11.58,4.11-4,3.37-7.06,7.82-9.93,12.14a149.35,149.35,0,0,0-8.57,15,.15.15,0,0,0,.26.14,92.6,92.6,0,0,1,7.66-12.56,80.11,80.11,0,0,1,8.83-10.69c3-2.89,6.72-5.59,11-5.72s8.2,2.25,10.77,5.54c2.87,3.68,4.33,8.27,5.43,12.74a95.5,95.5,0,0,1,2.21,15c.84,10.35,1.07,20.76,1.3,31.14.13,5.88.21,11.75.27,17.63,0,3,.05,5.95.07,8.93s-.13,34.15.34,37c.1.58,1,.52,1.14,0a50.42,50.42,0,0,0,.4-8.15c0-2.83.07-34,.1-36.84.05-5.49.08-11,.06-16.46C401.71,206.64,401.58,195.59,400.82,184.6Z" style="fill:#263238"></path><path d="M364.21,158.79c-1.11.45.4-12.66-4.77-14.34-7.3-2.36-24,1.92-33.32,14.34a27.81,27.81,0,0,0-4,8.36c4.61-2.23,19.84-9.28,23.66-7.12,3.48,2-18.35,8.82-25.07,13.22a50.57,50.57,0,0,0-.6,5.5C324,176,334.7,169,339.48,169c5.32,0-12.32,9.33-19.45,16A56.45,56.45,0,0,0,324.15,204c1.83-3.46,5.85-10.19,11.05-13.82,7.2-5,10.36,3.06,1.28,9.47-4.84,3.42-8.33,6.24-10.54,8.14A37.29,37.29,0,0,0,334,218.2a29.64,29.64,0,0,1,11.85-8.1c1.75-.61,4.63-1.41,8.09-2.57.61-2.27,2.31-9.06,2.46-13.44.2-5.33,6.52-2.37,3.95,7.1-.48,1.78-.92,3.25-1.34,4.48,1.85-.73,5.55-2.14,7.72-3.79.35-3.1-.17-10.24-1.44-17-1.58-8.39,4.81-9,6.19,1.58.65,4.88-.28,9.93-.59,13.22,7.22-4.21,13.21-12.76,13.21-12.76a32.06,32.06,0,0,0-5-13.22c-3.55-5.36.29-7.47,3.85-2.63,2,2.7,3.16,7.23,3.81,10.71C394.4,156.34,385,150.44,364.21,158.79Zm-34.64,27.9c-2-2.86,4.85-8.1,6.32-6.32C337.79,182.65,331.54,189.55,329.57,186.69ZM375.1,175c-2.76,2-5.41-4.62-3.62-5.76S377.45,173.24,375.1,175Z" style="fill:#BB4B4B"></path><path d="M368.77,171.22c-.94-1.85-1.92-3.69-3-5.47a32.14,32.14,0,0,0-3.43-5c.3-.36.58-.73.89-1.09.12-.15-.09-.35-.22-.21-.35.4-.68.81-1,1.21a.31.31,0,0,0-.15.17q-1.92,2.31-3.64,4.74a54.66,54.66,0,0,0-6,1.74c-2,.68-4.05,1.39-6,2.23-.21.08-.11.42.1.33,2-.86,3.95-1.7,6-2.39s3.88-1.15,5.82-1.7c-.63.89-1.25,1.8-1.85,2.71a71.37,71.37,0,0,0-10.66,4.35c-3.6,1.71-7.07,3.7-10.52,5.7-.19.11,0,.41.19.29a117.53,117.53,0,0,1,10.46-5.41c3.34-1.56,6.79-2.85,10.16-4.34-8.48,13.23-13.56,28.5-20.36,42.63-.09.2.23.37.31.17,2.08-5,4.47-9.79,6.73-14.66,2-4.38,4-8.78,6-13.16.59-1.28,1.2-2.56,1.82-3.83-.37,7.07-.22,14.25-1.38,21.24a.18.18,0,1,0,.35,0c.49-7.55,1.82-15,1.77-22.57,0,0,0-.06,0-.1q2.15-4.33,4.62-8.5c2.81,6.61,5.76,13.32,7.07,20.42,0,.22.4.12.34-.1-1.91-7.12-3.68-14.25-7.11-20.82a80,80,0,0,1,6-8.61c.94,1.76,2.15,3.42,3.22,5.1s2.08,3.29,3,5a71.78,71.78,0,0,1,5.31,11.21c.07.21.42.1.33-.1C372.26,178.66,370.62,174.88,368.77,171.22Z" style="fill:#263238"></path><path d="M424.36,189.83c-4.58-4.59-9.9-10.62-17-10.6-6.83,0-11.86,5.51-14.74,11.18-3,5.93-4.11,12.65-5,19.18a232.54,232.54,0,0,0-1.81,23.58c-.12,4.38-.11,8.77,0,13.15s.22,37.27,1,41.62c.13.71,1.27.74,1.31,0,.2-3.68.06-35.76,0-39.45s0-7.27.17-10.9c.27-7.35.8-14.68,1.66-22,.76-6.38,1.35-12.94,3.26-19.1,1.73-5.56,4.95-11.91,10.59-14.35,7.68-3.34,15.19,2.75,20.22,7.89C424.27,190.15,424.5,190,424.36,189.83Z" style="fill:#263238"></path><path d="M451.59,205.26c-8.28-.85-6-5.35,1.54-3.37a34.26,34.26,0,0,1,11.23,5.39c.06-6.82-.79-13.75-3.33-19.61-6.91-1.73-13.2,1.31-19.65,4.34s-10.77-4.82-3.18-8.59a24.07,24.07,0,0,1,20.48-.37,33.59,33.59,0,0,0-1.85-2.9,34.81,34.81,0,0,0-6.31-7c-5.65.46-8.78,3.94-10.45,5-2.38,1.56-6.13-.28-3.75-3.66,1.85-2.65,6.47-3.86,10.29-4.18-6.81-4-13.6-4-17.45-2.27-6.67,3-4.8,20.62-4.8,20.62s-17.49-9.36-23.22-2a21.57,21.57,0,0,0-3.64,8.61c6.19-2.28,13.8-2.83,14.51.88.76,3.91-9.71,2.76-15.15,3.39-.65,7.84,1.18,17,7.42,23.48,5.32-10.22,17.13-18,18.82-12.35s-11,7.07-16.21,14.7a34.1,34.1,0,0,0,7.28,4.06c2.84-4.25,7.57-10.11,9.84-8.33s-3.68,5.92-7.53,9.26A110.13,110.13,0,0,0,433.32,235c1.4-5.89,4.1-11.4,6.7-10.89s-2.44,6.67-4.62,11.32a167.24,167.24,0,0,0,23.16,2.92c.48-.12,3.66-9.43,5.09-21a33.53,33.53,0,0,0-12-2.41c-5.85-.28-6.41-6.94,2.35-6a22.42,22.42,0,0,1,10.12,4.19c.09-1.22.16-2.47.21-3.74h0A33,33,0,0,0,451.59,205.26Zm-2.18-9.12c.89-2,6.24-1.28,5.72,1.16S448.67,197.83,449.41,196.14Zm-43.8,16.54c-.32-1.66,3.26-3.18,3.76-1.85S406.06,214.9,405.61,212.68Zm25.18,13.65c-2.84-1.48,1.23-8,3.84-6.93C436.76,220.26,433.64,227.82,430.79,226.33Z" style="fill:#BB4B4B"></path><path d="M457.54,237.06c-3.93-6.57-7.82-13.18-11.94-19.63q-2.89-4.5-6-8.84c.32-.06.63-.15.94-.22q.78-.17,1.56-.3c1.21-.21,2.43-.38,3.64-.51s2.3-.17,3.46-.19a18.14,18.14,0,0,1,3.68.19c.15,0,.17-.2,0-.19-1.22,0-2.48-.11-3.71-.13s-2.39,0-3.58.09-2.24.17-3.35.34c-.61.1-1.22.2-1.83.32-.36.08-.74.13-1.1.24q-3.19-4.39-6.62-8.61a78.83,78.83,0,0,1,21.51-6.86c.13,0,.08-.22-.05-.2a73,73,0,0,0-21.82,6.62q-1.89-2.31-3.79-4.6c-1.43-1.71-3-3.38-4.23-5.2a.1.1,0,1,0-.16.12,75.69,75.69,0,0,1,5,6.1h0a76,76,0,0,0-8,6.42c-2.61,2.32-5.17,4.72-7.64,7.18a.1.1,0,1,0,.13.14c2.45-2.43,5-4.76,7.65-7s5.45-4.24,8.12-6.42c0,0,0,0,0,0l1.83,2.41.93,1.2s0,.06.06.09c1,1.33,2,2.66,3.05,4a32.5,32.5,0,0,0-3,5.48c-.88,1.86-1.65,3.77-2.36,5.7a83,83,0,0,0-3.27,12.31c0,.13.16.19.19.06a71.5,71.5,0,0,1,3.58-12.07c.76-2,1.63-4,2.53-5.92.81-1.78,1.8-3.49,2.57-5.29.88,1.18,1.75,2.35,2.62,3.54.25.34.49.7.74,1,0,.08,0,.18.08.18h0c2.7,3.77,5.27,7.63,7.77,11.53a3.43,3.43,0,0,0-.34.86c-.16.47-.31.95-.45,1.43a29.46,29.46,0,0,0-.69,2.92c-.17.93-.3,1.86-.39,2.8a25.73,25.73,0,0,1-.23,3.18.1.1,0,1,0,.19,0,9.94,9.94,0,0,1,.22-3c.14-1,.33-2,.56-3s.46-1.8.73-2.69c.13-.45.27-.89.43-1.33.08-.23.19-.48.27-.72q1.75,2.75,3.47,5.52c2.26,3.68,4.5,7.37,6.76,11C457.35,237.41,457.65,237.25,457.54,237.06Z" style="fill:#263238"></path><path d="M399.23,290.74c-.07-2.76-.72-33.9-.81-36.66a121.09,121.09,0,0,0-3-24.24,23.2,23.2,0,0,0-6.49-11.94,10.58,10.58,0,0,0-6.37-3,11,11,0,0,0-6.76,2.09,23.5,23.5,0,0,0-5.69,6,58.52,58.52,0,0,0-4.44,7.2c-.05.1.1.16.16.07a36.67,36.67,0,0,1,9.59-10.75,11.24,11.24,0,0,1,6.05-2.52,8.94,8.94,0,0,1,6.3,2c3.22,2.8,4.91,6.81,6,10.85,1.32,4.8,2.94,17.19,3.28,24,.15,2.92.63,34.25,1.24,37.12A.48.48,0,0,0,399.23,290.74Z" style="fill:#263238"></path><path d="M382.08,220.86c-6.34-.12-13.06,4.61-13.06,4.61s3.57-12.35-6.35-11.95c-5.9.24-13.26,6.42-14.74,16.07,2.28-1.21,7.07-3.53,10.86-3.6,5.14-.09,5.49,3.93-1.6,4.54a44.86,44.86,0,0,0-9.5,1.57,26.42,26.42,0,0,0,1.19,8.91c4-2.4,10.71-4.95,10.91-1.64.15,2.46-6.83,2.66-10.27,3.52a41.22,41.22,0,0,0,5.92,10.53,94.64,94.64,0,0,0,14.29-3.22,27.37,27.37,0,0,0-.45-5.17c-.84-4.4,2.4-4.48,2.82-.25a15.36,15.36,0,0,1-.3,4.72,42.08,42.08,0,0,0,9.17-4.32,28,28,0,0,0-2-9.76c-1.26-3.44,1.24-5.41,3.35-1.46,1.36,2.55.81,7.34.36,10a15.19,15.19,0,0,0,3-3.06C392.44,231.49,388.41,221,382.08,220.86Zm-27.35,2.28c.23-1.78,4.65-1.44,4.43-.06S354.46,225.14,354.73,223.14Zm-4.94,14.5c.43-1.14,2.34-1,2.25-.08S349.5,238.39,349.79,237.64Zm26.29,6.22c-2.57.1-1.72-5.24-.22-5.45C377.12,238.23,378.05,243.78,376.08,243.86Z" style="fill:#BB4B4B"></path><path d="M373.79,244.34c-.25-.66-.47-1.34-.68-2,.19.69.37,1.38.49,2.07A.1.1,0,1,0,373.79,244.34Z" style="fill:#263238"></path><path d="M371.17,235.75c-.47-1.37-1-2.72-1.52-4.07-.28-.71-.58-1.43-.89-2.13a8.79,8.79,0,0,0-.89-1.79,14.2,14.2,0,0,0,.81-1.73c0-.06-.06-.1-.09-.06a21,21,0,0,0-1.94,3c-.27.47-.53.94-.81,1.41a15.48,15.48,0,0,0-1.66.26c-.6.11-1.19.23-1.78.37l-1.77.41c-.58.14-1.16.33-1.76.42-.13,0-.08.24.05.19a11.84,11.84,0,0,1,1.86-.49c.57-.12,1.14-.22,1.72-.3s1.15-.16,1.73-.22l1.31-.1c-.24.41-.48.83-.71,1.25,0,.06-.07.13-.11.2a5.73,5.73,0,0,0-1.42.16c-.51.1-1,.19-1.53.31q-1.56.33-3.09.75c-2.15.6-4.27,1.29-6.38,2-.12,0-.05.22.07.18a62.12,62.12,0,0,1,6.41-1.78c1-.23,2-.46,3.05-.67l1.53-.33a9.56,9.56,0,0,0,1.18-.26c-1.09,2-2.12,4.06-3.06,6.15-2.06,4.56-3.79,9.24-5.55,13.91-.05.12.13.2.17.08a127,127,0,0,1,5.91-13.6c.4-.81.81-1.61,1.21-2.41,0,.16.07.32.1.49.1.55.2,1.1.29,1.66.19,1.1.38,2.21.54,3.32a38.1,38.1,0,0,1,.8,6.89c0,.14.22.14.2,0-.18-1.1-.18-2.25-.25-3.36s-.16-2.32-.29-3.47-.28-2.23-.46-3.34c-.09-.55-.19-1.1-.29-1.65a3.43,3.43,0,0,0-.31-1.2c.58-1.17,1.15-2.34,1.74-3.5s1.11-2.18,1.68-3.26c.24-.46.5-.92.75-1.38a14.85,14.85,0,0,0,.66,1.67c.25.62.51,1.25.77,1.87.56,1.39,1.09,2.78,1.62,4.18.75,2,1.58,4,2.2,6.08C372.36,239.82,371.85,237.75,371.17,235.75Z" style="fill:#263238"></path><path d="M373.11,242.32c0-.16-.09-.32-.14-.48C373,242,373.06,242.16,373.11,242.32Z" style="fill:#263238"></path><polygon points="422.45 281.42 421.75 296.18 419.96 338.58 380.7 338.58 378.9 296.18 378.2 281.42 422.45 281.42" style="fill:#455a64"></polygon><polygon points="422.45 281.42 421.75 296.18 378.9 296.18 378.2 281.42 422.45 281.42" style="fill:#263238"></polygon><rect x="375.41" y="275.45" width="49.83" height="11.94" style="fill:#455a64"></rect><rect x="383.88" y="338.58" width="6.89" height="6.25" style="fill:#455a64"></rect><rect x="383.88" y="338.58" width="6.89" height="3.13" style="fill:#263238"></rect><rect x="409.89" y="338.58" width="6.89" height="6.25" style="fill:#455a64"></rect><rect x="409.89" y="338.58" width="6.89" height="3.13" style="fill:#263238"></rect><path d="M445.93,286c-2.8-2.75-6.42-6.07-10.7-4.88-4,1.11-5.58,5.51-6.3,9.18-.93,4.72-1.65,9.49-2.4,14.25s-1.47,9.61-2.16,14.43q-.58,4.07-1.16,8.15l-.57,4.07c-.18,1.34-.4,2.67-.48,4,0,.43.65.49.75.08.52-2.26.73-4.62,1.06-6.92s.67-4.63,1-6.94c.67-4.59,1.37-9.19,2.06-13.78s1.41-9.18,2.14-13.77c.62-3.89.92-8.72,4.37-11.29A6.68,6.68,0,0,1,440,282a19.39,19.39,0,0,1,5.85,4.1C445.91,286.17,446,286.09,445.93,286Z" style="fill:#263238"></path><path d="M442.1,283.23s-5.73-2.06-8.56,2.12.56,14.82,26.64,20.81a73.44,73.44,0,0,0-6.28-23.57C448.31,270.39,438.35,275,442.1,283.23Z" style="fill:#BB4B4B"></path><path d="M458.68,304.42a23.1,23.1,0,0,0-1.31-2.11l-1.32-2c-.34-.5-.68-1-1-1.49a2.35,2.35,0,0,0,.05-.37l.09-.68.21-1.47c.07-.48.15-1,.25-1.45a7.17,7.17,0,0,1,.34-1.54c0-.07-.11-.11-.12,0a5.2,5.2,0,0,1-.23.86c-.06.22-.12.44-.17.66-.13.49-.25,1-.36,1.49s-.19.92-.27,1.38c0,.23-.07.45-.1.67-.47-.66-.94-1.32-1.43-2-1.39-1.83-2.85-3.58-4.37-5.29,0,0,0,0,0,0a47.34,47.34,0,0,1,.67-8.15c0-.07-.09-.11-.11,0a27.77,27.77,0,0,0-1,7.8c-.54-.61-1.09-1.21-1.65-1.81-1.27-1.37-2.56-2.71-3.89-4-.05-.05-.13,0-.08.08,2.2,2.37,4.28,4.83,6.32,7.34a44.54,44.54,0,0,0-4.77.18c-1.77.13-3.53.35-5.28.6a.06.06,0,1,0,0,.11,49.11,49.11,0,0,1,5.27-.47c1.7-.07,3.4,0,5.1,0,1.09,1.36,2.18,2.73,3.25,4.12h-1.44c-.79,0-1.59.07-2.37.13a37.36,37.36,0,0,0-4.82.72.06.06,0,0,0,0,.12c1.6-.18,3.21-.33,4.82-.39.77,0,1.54,0,2.31,0h1.2a1.59,1.59,0,0,0,.66-.06l2.1,2.73c.55.73,1.1,1.47,1.63,2.21s1.05,1.58,1.66,2.29C458.63,304.54,458.71,304.48,458.68,304.42Z" style="fill:#263238"></path><path d="M444.59,289.16a17.21,17.21,0,0,0-2.78-.14c-.94,0-1.87,0-2.8.06a.06.06,0,1,0,0,.12c.94-.07,1.89-.09,2.83-.07s1.83.1,2.74.07A0,0,0,1,0,444.59,289.16Z" style="fill:#263238"></path><path d="M452.78,291.26c.11-.89.22-1.79.41-2.66,0-.09-.1-.11-.11,0-.14.88-.31,1.75-.44,2.63l-.18,1.32a5.77,5.77,0,0,0-.1,1.24c0,.08.13.09.15,0a8.4,8.4,0,0,0,.13-1.24C452.68,292.11,452.73,291.68,452.78,291.26Z" style="fill:#263238"></path><path d="M451.07,281.39c-.23.87-.46,1.74-.62,2.63-.08.44-.15.89-.21,1.34a5.34,5.34,0,0,0-.09,1.32,0,0,0,0,0,.07,0,7.53,7.53,0,0,0,.21-1.26c.06-.43.12-.86.2-1.3.15-.91.32-1.81.55-2.7C451.19,281.36,451.08,281.32,451.07,281.39Z" style="fill:#263238"></path><path d="M417.1,334.29c-.14-1.64-.3-3.28-.47-4.92q-.53-4.87-1.18-9.73c-.43-3.23-.85-6.47-1.37-9.68a24.37,24.37,0,0,0-1-4.4,4.15,4.15,0,0,0-2.44-2.74c-3.07-1.06-5.14,2.12-6.38,4.37a.06.06,0,0,0,.11.06c.74-1.07,2.79-4.06,5.12-3.92,1.56.09,2.82,1.2,3.57,5.1,1.87,9.74,3.56,29.49,3.76,30.78.1.68.59.65.59-.08C417.43,337.51,417.24,335.9,417.1,334.29Z" style="fill:#263238"></path><path d="M405.1,306s2.68-9.47-3.25-4.74c-9.87,7.89-10.22,25-10.22,25s17.55-10.19,19.73-16.91C414.61,299.35,405.1,306,405.1,306Z" style="fill:#BB4B4B"></path><path d="M408.42,310.63c-1.37.28-2.77.46-4.16.66l-2,.28-1.34.16c1.31-1.8,2.63-3.6,3.88-5.43.05-.08-.06-.15-.12-.09a43,43,0,0,0-2.93,3.38l-.78-2.2a25.47,25.47,0,0,1-.83-2.56.06.06,0,0,0-.11,0c.24.87.41,1.76.64,2.63s.48,1.67.77,2.49c-.64.83-1.25,1.68-1.85,2.55-.31-.86-.68-1.69-.94-2.55a.06.06,0,0,0-.12,0c.32,1,.49,2,.78,2.93-.4.58-.8,1.17-1.19,1.77-.71,1.09-1.37,2.21-2,3.33a.25.25,0,0,0-.15.26c-1.11,1.92-2.16,3.87-3.21,5.83a.06.06,0,0,0,.11.06c1-1.94,2.2-3.83,3.4-5.68h0a3,3,0,0,1,.57-.11l.61-.13q.68-.15,1.35-.33c.89-.22,1.77-.43,2.67-.58.08,0,0-.13,0-.11-1.06.2-2.13.32-3.2.44-.51.06-1,.13-1.52.21h-.07q.94-1.44,1.92-2.85c.64-.93,1.29-1.84,1.95-2.75.61-.09,1.21-.25,1.81-.36l2-.4c1.36-.27,2.71-.57,4.08-.8C408.53,310.73,408.5,310.61,408.42,310.63Z" style="fill:#263238"></path><path d="M397.88,311.56l-.24-.75c-.16-.52-.29-1.05-.4-1.59a.06.06,0,0,0-.11,0c.11.54.24,1.07.36,1.6a9.54,9.54,0,0,0,.46,1.58c.05.12.24.07.2-.06S398,311.83,397.88,311.56Z" style="fill:#263238"></path><path d="M410.22,308.44c-.8.12-1.61.17-2.41.24s-1.61.19-2.42.31c0,0,0,.07,0,.07.8-.06,1.6-.12,2.41-.23s1.6-.22,2.41-.28C410.3,308.55,410.29,308.42,410.22,308.44Z" style="fill:#263238"></path><path d="M430,322.3c-.31-7-.75-13.94-1.45-20.88-.35-3.46-.74-6.92-1.23-10.36a72.52,72.52,0,0,0-2-10A19.25,19.25,0,0,0,422,274a7.62,7.62,0,0,0-6.75-3c-3.05.38-5.5,2.3-7.63,4.39-2.38,2.35-4.57,4.91-6.78,7.41-.56.64-1.11,1.27-1.66,1.92-.05.05,0,.14.09.08,2.16-2.48,4.4-4.89,6.75-7.2,2.17-2.13,4.4-4.46,7.41-5.34a7.67,7.67,0,0,1,4.3-.1,6.83,6.83,0,0,1,2.94,1.87A15.47,15.47,0,0,1,424,280.5c1.87,6.4,2.54,13.13,3.24,19.74s1.19,13.47,1.52,20.23.61,13.58,1.26,20.35c.08.84.19,1.67.3,2.5.07.56.94.56.89,0C430.65,336.31,430.33,329.31,430,322.3Z" style="fill:#263238"></path><path d="M407.24,276.17s4-7.37-.73-9.74-20.45,15.22-25.05,40.92c0,0,25.43-11.25,34.07-22.46S414.38,271.2,407.24,276.17Z" style="fill:#BB4B4B"></path><path d="M411,282.16c-2.86,0-5.71-.21-8.57-.19.53-.62,1.07-1.23,1.61-1.84a27.34,27.34,0,0,0,2.23-2.6.07.07,0,0,0-.1-.1A21.07,21.07,0,0,0,404,279.6c-.72.76-1.43,1.52-2.14,2.29-1.09,1.18-2.16,2.39-3.23,3.59,0-.12,0-.23,0-.35,0-.5,0-1,0-1.5,0-1,0-1.94,0-2.91,0-2,0-3.94.15-5.9,0-.07-.12-.07-.12,0-.14,2-.34,3.94-.44,5.91-.05,1-.07,1.94-.08,2.91,0,.5,0,1,0,1.5,0,.28,0,.57,0,.85-.17.19-.34.37-.5.56-2.29,2.6-4.45,5.3-6.57,8,0-.15,0-.3,0-.45s-.07-.61-.1-.91c-.08-.65-.17-1.31-.27-2s-.18-1.23-.29-1.84-.28-1.38-.33-2.07c0-.09-.14-.07-.12,0a18.23,18.23,0,0,1,.24,2.1c.06.63.12,1.25.17,1.88l.18,1.89.09.91.06.45a1,1,0,0,0,.12.36c-.36.48-.73,1-1.09,1.42-1.44,1.91-2.85,3.84-4.27,5.77,0,.06,0,.14.08.08,1.35-1.75,2.73-3.47,4.12-5.17,1.05.05,2.12,0,3.16-.05s2.21,0,3.31,0a.06.06,0,0,0,0-.12l-3.31,0c-1,0-2-.05-3,0,1.23-1.5,2.48-3,3.72-4.46l1.37-1.62a6.82,6.82,0,0,0,1.28,0h1.5l2.82,0c1.94,0,3.88-.1,5.82-.1a.06.06,0,0,0,0-.12c-1.94,0-3.89-.11-5.83-.16l-2.82-.06-1.51,0c-.28,0-.58,0-.86,0q1.59-1.9,3.2-3.8a.13.13,0,0,0,.06-.07c1-1.23,2.08-2.46,3.14-3.68l.43-.5c3,.1,5.93-.1,8.89,0C411.05,282.28,411.05,282.16,411,282.16Z" style="fill:#263238"></path><path d="M409.51,287.22h-.69c-.07,0-.06.11,0,.11h.7C409.59,287.33,409.59,287.22,409.51,287.22Z" style="fill:#263238"></path><path d="M408,287.22l-2.74-.05-1.38-.05a5.39,5.39,0,0,0-1.27,0,0,0,0,0,0,0,.08,4.55,4.55,0,0,0,1.28.09l1.37,0c.92,0,1.83,0,2.75,0C408.05,287.34,408.05,287.23,408,287.22Z" style="fill:#263238"></path><path d="M400,295.81a37.89,37.89,0,0,0-5.63-.51s0,0,0,0c1.87.18,3.74.28,5.6.58C400,295.93,400.05,295.82,400,295.81Z" style="fill:#263238"></path><path d="M392.33,287.62c0-.16,0-.32-.06-.49,0-.36-.1-.73-.16-1.1-.11-.7-.23-1.39-.36-2.09,0-.06-.13,0-.12,0,.09.72.17,1.44.23,2.16,0,.35.06.71.09,1.06a2.85,2.85,0,0,0,.15,1,.13.13,0,0,0,.24,0A1.35,1.35,0,0,0,392.33,287.62Z" style="fill:#263238"></path><path d="M429.76,266.7c-.91-1.69-2.07-3.93-4.34-3.79-1.87.12-2.72,2-3.12,3.62-1.24,4.89-1.33,10.05-1.57,15.07-.51,10.6-1,21.21-1,31.83q0,4.41,0,8.83c0,3,0,6,.21,9a.22.22,0,0,0,.44,0c0-2.57-.08-5.14-.09-7.7s0-5,.05-7.52q.12-7.6.41-15.21c.18-5,.41-10.08.62-15.12.11-2.52.21-5,.33-7.55s.21-4.88.49-7.31c.16-1.36.36-2.72.64-4.06a5.69,5.69,0,0,1,1.18-2.72,2.56,2.56,0,0,1,3.31-.24,7,7,0,0,1,2.35,2.94C429.7,266.83,429.8,266.77,429.76,266.7Z" style="fill:#263238"></path><path d="M429.15,265.89s-1.87-6.59,2.26-3.29c6.88,5.49,7.12,17.43,7.12,17.43s-12.22-7.1-13.74-11.78C422.52,261.28,429.15,265.89,429.15,265.89Z" style="fill:#BB4B4B"></path><path d="M436,275.14c-.11-.19-.23-.36-.35-.55a3.49,3.49,0,0,0,0-.56v-.85l.06-1.67c0-.08-.11-.07-.11,0,0,.55-.05,1.09-.07,1.64l0,.82c0,.11,0,.23,0,.35-.48-.74-1-1.48-1.48-2.2l-.46-.63a12.85,12.85,0,0,1,0-2.15c0-.77,0-1.53,0-2.3,0-.08-.11-.07-.11,0,0,.8-.07,1.6-.11,2.39a14,14,0,0,0,0,1.71c-1.18-1.6-2.44-3.15-3.7-4.69-.05-.05-.14,0-.1.07.79,1,1.54,2,2.28,3.05-1.44-.34-2.9-.53-4.36-.74-.08,0-.11.1,0,.11,1.55.23,3.06.62,4.59,1h0q.89,1.25,1.74,2.49c.24.34.46.68.69,1h-.06l-.48-.06-1-.1-2.12-.13c-.07,0-.07.12,0,.12.7,0,1.39.07,2.08.14l1.09.13.48.06.14,0,1.18,1.73c.69,1,1.3,2.12,2,3.1,0,.06.12,0,.09-.06A31,31,0,0,0,436,275.14Z" style="fill:#263238"></path><path d="M432.91,267.68c0-.25,0-.51,0-.77a12.38,12.38,0,0,1,.06-1.61.06.06,0,1,0-.11,0c0,.54-.06,1.07-.09,1.61,0,.26,0,.53,0,.8v.37a1,1,0,0,0,0,.38.05.05,0,0,0,.1,0,1.08,1.08,0,0,0,0-.36C432.92,268,432.91,267.82,432.91,267.68Z" style="fill:#263238"></path><path d="M431.4,270.42a12.65,12.65,0,0,0-1.38-.14c-.5,0-1-.09-1.51-.16a.06.06,0,1,0,0,.12c1,.06,1.93.23,2.89.27C431.45,270.51,431.46,270.42,431.4,270.42Z" style="fill:#263238"></path><path d="M435.24,270.46c0,.05,0,.19,0,.25v.21c0,.16,0,.31,0,.46v.47a1.07,1.07,0,0,0,0,.4s0,0,.05,0a.41.41,0,0,0,0-.19v-.22c0-.15,0-.3,0-.46v-.67a.75.75,0,0,1,0-.26C435.42,270.35,435.16,270.35,435.24,270.46Z" style="fill:#263238"></path><path d="M430.05,301.91c-2.57-1.93-4.88-4.71-8.34-4.84-2.85-.11-4.85,2-6,4.43a26,26,0,0,0-1.4,3.94c-.51,1.8-1,3.62-1.45,5.44q-1.35,5.37-2.29,10.84c-.35,2-.67,4.07-.93,6.11a52.62,52.62,0,0,0-.6,6.26.33.33,0,0,0,.64.07c.35-1.71.49-3.47.75-5.2s.51-3.47.81-5.2q.87-5.2,2-10.34c.74-3.23,1.46-6.52,2.51-9.67.75-2.25,1.95-4.89,4.38-5.7,3.71-1.24,7.08,1.9,9.8,3.94C430,302,430.11,302,430.05,301.91Z" style="fill:#263238"></path><path d="M427.39,300.06s-2.37-6.77,1.05-8.09c5.14-2,18.58,13.15,15.95,36.35a132.2,132.2,0,0,1-18.05-12.16c-7.67-6.44-9.64-14.84-6.26-17S427.39,300.06,427.39,300.06Z" style="fill:#BB4B4B"></path><path d="M442.84,323.35a17.52,17.52,0,0,0-1.25-2.34c-.44-.8-.88-1.59-1.34-2.37-.89-1.53-1.78-3.06-2.69-4.57-.15-.25-.31-.49-.45-.74,0-.09,0-.18.05-.27l.15-.67c.12-.5.21-1,.3-1.52.19-1,.36-2,.63-3,0-.07-.1-.1-.12,0-.21,1-.52,2-.82,2.94-.14.48-.3.95-.42,1.44-.05.16-.09.33-.13.49-1.11-1.81-2.23-3.61-3.44-5.35a2.55,2.55,0,0,0,.12-.74l.12-1c.09-.76.18-1.53.29-2.29a45,45,0,0,1,.81-4.44c0-.07-.1-.09-.11,0-.37,1.46-.78,2.92-1.05,4.4-.14.73-.27,1.46-.37,2.19l-.12,1.1c0,.11,0,.22,0,.33-.38-.52-.75-1.05-1.14-1.56q-1.79-2.34-3.66-4.6c0-.06-.14,0-.09.06a82.42,82.42,0,0,1,5.84,8.53c.34.55.67,1.1,1,1.64l-.33,0-1.31-.12-2.63-.23c-1.75-.14-3.5-.24-5.25-.43-.07,0-.09.11,0,.11,1.77.21,3.53.49,5.29.74l2.61.35a10,10,0,0,0,2,.21c.69,1.11,1.38,2.23,2.06,3.35a2.36,2.36,0,0,0-.46,0h-2.5l-3.38,0c-.08,0-.07.11,0,.11,1.14,0,2.28.08,3.42.14l1.62.09.81.06a1.54,1.54,0,0,0,.71,0c.59.95,1.18,1.9,1.76,2.85s1.08,1.75,1.63,2.62a21.44,21.44,0,0,0,1.77,2.65S442.87,323.42,442.84,323.35Z" style="fill:#263238"></path><path d="M437.89,304.6a16.53,16.53,0,0,1-.46,2.2c-.19.75-.41,1.5-.66,2.23a.07.07,0,1,0,.14.05c.23-.73.44-1.47.62-2.21s.3-1.51.48-2.25C438,304.54,437.9,304.52,437.89,304.6Z" style="fill:#263238"></path><path d="M430.26,309.13a.82.82,0,0,0-.57-.21l-1-.14-1.82-.22c-1.27-.15-2.54-.27-3.8-.43-.08,0-.1.11,0,.12,1.19.14,2.38.32,3.57.48l1.76.23.84.09a3.07,3.07,0,0,1,1,.17A.06.06,0,0,0,430.26,309.13Z" style="fill:#263238"></path><path d="M437.87,319.33c-.59-.05-1.2-.07-1.8-.09l-.9,0h-.44a3.44,3.44,0,0,1-.56,0c-.09,0-.1.13,0,.11a3.13,3.13,0,0,1,.53,0l.47,0,.91.05c.6,0,1.2.07,1.8.08C437.94,319.46,438,319.34,437.87,319.33Z" style="fill:#263238"></path><path d="M441.53,316.73c.07-.34.14-.68.2-1,.12-.67.25-1.33.37-2a.06.06,0,1,0-.12,0c-.14.65-.29,1.3-.44,1.95l-.21,1-.1.45a1.31,1.31,0,0,0-.05.48c0,.06.09.1.13,0A2.28,2.28,0,0,0,441.53,316.73Z" style="fill:#263238"></path><polygon points="406.37 331.49 407.09 339.72 409.55 367.48 431.29 367.48 434.36 339.72 435.27 331.49 406.37 331.49" style="fill:#37474f"></polygon><polygon points="406.37 331.49 407.09 339.72 434.36 339.72 435.27 331.49 406.37 331.49" style="fill:#263238"></polygon><rect x="404.21" y="329.25" width="33.21" height="6.67" transform="translate(841.64 665.17) rotate(180)" style="fill:#37474f"></rect><path d="M59.85,410.93a54.28,54.28,0,0,1,14.44-1.65c4.33.22,14.09,2.11,17.06,2.65s6.92-.08,6.69,1.19-14.23,5.53-20.3,4.65S59.85,410.93,59.85,410.93Z" style="fill:#37474f"></path><path d="M79.92,383.33c0-2-.07-4.06-.1-6.1,0-6.75-.12-13.5-.28-20.26q-.2-8-.49-16.08s0-.05-.06-.07l0-4.39s-.06-.06-.12-.05-.11,0-.11.05c0,1.47,0,2.94,0,4.4,0,0,0,0,0,.07-.36,9.54-.67,19.08-.75,28.62,0,1.94,0,3.88,0,5.82q-.14,9.35-.1,18.67c0,1,0,2,0,3,0,5.7.07,34.18.08,39.87,0,.31.44.46.91.48s1.12-.15,1.12-.5c0-6.28.06-35.35.06-41.63C79.94,391.25,80,387.29,79.92,383.33Z" style="fill:#263238"></path><path d="M69.86,346.61S58.28,338,47.29,343.82,34.57,372,34.57,372s16.14,2.31,26.31-7.37C70.68,355.28,69.86,346.61,69.86,346.61Z" style="fill:#BB4B4B"></path><path d="M73,347.14a13.9,13.9,0,0,0-6.71-.88,11.19,11.19,0,0,0-1.42-.14L63.26,346l-3.38-.24c-2.28-.17-4.58-.31-6.86-.54-.08,0-.09.14,0,.15,2.25.28,4.5.61,6.77.83,1.16.12,2.32.24,3.49.32l.85.09-1,.25A27.17,27.17,0,0,0,57.84,349c-.91.16-1.82.41-2.71.63-1.44.33-2.86.7-4.29,1.08-2.81.73-5.59,1.56-8.39,2.37a.07.07,0,0,0,0,.14c2.79-.68,5.59-1.31,8.39-2,1.35-.32,2.71-.64,4.07-1L56,350a33.82,33.82,0,0,0-8.23,7.16,44.67,44.67,0,0,0-5.72,9c0,.08.07.16.12.08a43.76,43.76,0,0,1,6.93-9.09c0,.15-.11.31-.15.46-.22.68-.43,1.37-.65,2-.43,1.36-.86,2.73-1.27,4.1,0,.09.11.12.14,0,.49-1.32,1-2.65,1.42-4l.69-2c.12-.33.23-.67.35-1a2.83,2.83,0,0,1,.11-.31,40,40,0,0,1,4.11-3.5A30.74,30.74,0,0,1,60,349.55l-.12.59c-.12.53-.23,1.06-.34,1.59-.23,1.09-.44,2.19-.66,3.29-.43,2.24-.7,4.51-1.12,6.76a.07.07,0,1,0,.14,0c.52-2.25,1.19-4.47,1.69-6.73.25-1.13.51-2.26.74-3.39.11-.53.22-1.06.32-1.59.06-.3.13-.59.17-.89.21-.08.41-.18.63-.26,3-1.12,6.39-1.94,9.63-1.32a9.51,9.51,0,0,1,7,5.59c.1.25.5.09.44-.16A8.93,8.93,0,0,0,73,347.14Z" style="fill:#263238"></path><path d="M55.29,356.68c-.33,1.47-.66,2.94-1,4.41a32.93,32.93,0,0,0-.81,4.28c0,.06.08.06.1,0a33.35,33.35,0,0,0,1-4.32c.28-1.44.57-2.89.85-4.34C55.45,356.63,55.31,356.59,55.29,356.68Z" style="fill:#263238"></path><path d="M44.08,360.41c-1.47.75-2.9,1.6-4.44,2.21a.08.08,0,1,0,.06.14,48.62,48.62,0,0,0,4.42-2.29S44.12,360.39,44.08,360.41Z" style="fill:#263238"></path><path d="M79,333.6s13.32-4.86,15.6-16.06-4.44-22.81-4.44-22.81-12.89,7.64-15.6,16.15S79,333.6,79,333.6Z" style="fill:#BB4B4B"></path><path d="M78.54,349.07c-.17-1.59-.21-3.2-.29-4.8s-.1-3.06-.09-4.59a88.3,88.3,0,0,1,.53-9.34c.22-2,.53-3.94.88-5.89-.08-.24-.14-.49-.2-.73-.12-.43-.24-.86-.35-1.29-.23-.87-.45-1.75-.67-2.63-.49-1.92-.9-3.86-1.41-5.78,0-.09.12-.15.14-.06.52,1.89,1.12,3.74,1.65,5.62.26.93.53,1.85.78,2.77.09.34.18.67.26,1a104.71,104.71,0,0,1,2.76-11.14l.48-1.47c0-.11,0-.23,0-.35,0-.29,0-.58,0-.87l-.12-1.79c-.08-1.17-.21-2.34-.39-3.5a.08.08,0,1,1,.15,0c.2,1.18.39,2.36.54,3.55.08.57.13,1.14.17,1.72,0,.1,0,.2,0,.29.86-2.53,1.83-5,2.82-7.52,0-.09.16,0,.13.06A102,102,0,0,0,82,317.6a8.81,8.81,0,0,1,.85-.66c.92-.63,1.86-1.22,2.81-1.79,2-1.19,4-2.39,5.94-3.64.08-.05.17.06.09.11-1.83,1.28-3.62,2.61-5.42,3.94-.84.63-1.71,1.23-2.57,1.84a18.65,18.65,0,0,0-2,1.64c-.08.4-.17.79-.24,1.18-.35,1.8-.64,3.61-.91,5.43l1.21-.84c.92-.63,1.84-1.25,2.78-1.86,1.83-1.2,3.66-2.41,5.42-3.71.07-.06.16.06.09.11-1.78,1.34-3.51,2.75-5.24,4.14-.84.66-1.7,1.32-2.56,1.95l-1.31.94a2.82,2.82,0,0,1-.54.36c-.54,3.9-.94,7.83-1.17,11.76-.11,1.72-.17,3.45-.22,5.18s0,3.54,0,5.32C79.1,349.35,78.57,349.44,78.54,349.07Z" style="fill:#263238"></path><path d="M78.71,313.45q-.43-2-.84-4.05c0-.09.12-.11.14,0,.29,1.32.59,2.64.91,3.95s.68,2.63.86,4a0,0,0,0,1,0,0A28.51,28.51,0,0,1,78.71,313.45Z" style="fill:#263238"></path><path d="M86.12,309.76c.47-.56,1-1.08,1.51-1.6.28-.27.55-.54.82-.82l.41-.42a2,2,0,0,0,.44-.48c.07-.11.2,0,.11.09A2.87,2.87,0,0,0,89,307l-.39.44c-.26.27-.51.55-.76.83a20,20,0,0,1-1.59,1.6C86.16,309.93,86.06,309.83,86.12,309.76Z" style="fill:#263238"></path><path d="M85.25,371.62s2.29,15.87,14.23,21.43,26.49,0,26.49,0S120.25,358.7,85.25,371.62Z" style="fill:#BB4B4B"></path><path d="M117.75,382.72c-1.11-.13-2.2-.31-3.29-.51l-1.61-.31-.83-.16c-.32-.3-.64-.61-1-.9a48,48,0,0,0-7.3-5.29,40.2,40.2,0,0,0-4.38-2.25h.23l3.93.17c2.62.12,5.24.18,7.86.35.09,0,.09-.14,0-.15-2.63-.18-5.24-.46-7.87-.69l-3.81-.34-2-.17-.5-.06c-.69-.25-1.37-.49-2.06-.7a18.55,18.55,0,0,0-10.12-.56c-3,.77-6,2.73-6.78,5.9,0,.11.15.19.19.08,1.12-2.65,4.06-4,6.71-4.53a16.11,16.11,0,0,1,5.41-.11,12.58,12.58,0,0,0,.6,2.4c.33,1.12.66,2.24,1,3.35.67,2.23,1.42,4.44,2.08,6.68,0,.09.16,0,.14-.05-.56-2.22-1-4.47-1.56-6.71-.26-1.09-.54-2.19-.81-3.28a20.5,20.5,0,0,0-.6-2.26c1,.19,2.08.44,3.1.73a46.8,46.8,0,0,1,5.41,2c.17,1.14.42,2.26.68,3.37.33,1.41.69,2.79,1.14,4.16a.07.07,0,1,0,.13,0c0-.08,0-.17,0-.26h0c-.27-1.3-.56-2.59-.83-3.89-.22-1-.43-2.09-.65-3.14,1.48.67,2.94,1.4,4.35,2.21,0,.32.11.65.15.95.09.54.19,1.08.29,1.62.22,1.23.47,2.45.76,3.66a56.94,56.94,0,0,0,2,6.9.09.09,0,0,0,0,.1.27.27,0,0,1,.07.08c0,.06.14,0,.12-.08-.55-2.35-1.18-4.68-1.7-7.05-.26-1.18-.52-2.35-.75-3.54-.12-.59-.23-1.18-.34-1.77,0-.17-.06-.35-.08-.54a52.91,52.91,0,0,1,4.65,3.1,50.93,50.93,0,0,1,7.11,6.5c.09.1.26,0,.18-.14a43.06,43.06,0,0,0-2.85-3.47c-.6-.65-1.22-1.27-1.86-1.88l.2,0c.56.09,1.12.18,1.68.25,1.11.15,2.21.26,3.32.38C117.8,382.87,117.84,382.73,117.75,382.72Z" style="fill:#263238"></path><path d="M109.36,388.1h0c0-.14,0-.27-.06-.41s-.12-.34-.15-.52h0c-.25-1.07-.45-2.13-.65-3.21,0-.07-.13,0-.13,0a13.14,13.14,0,0,0,.91,4.15,0,0,0,0,0,.09,0Z" style="fill:#263238"></path><path d="M99.36,387.85a.06.06,0,0,0-.07-.07c-.33-1.4-.66-2.81-1-4.23l-.45-2.23c-.07-.4-.15-.8-.22-1.21a3.32,3.32,0,0,0-.26-1,.07.07,0,0,0-.13,0,7,7,0,0,0,.3,2.13c.15.78.3,1.55.47,2.32.34,1.57.74,3.13,1.18,4.67,0,.09.16.07.16,0Z" style="fill:#263238"></path><path d="M116.66,378.15c-2.18-.3-4.36-.62-6.55-.88-.09,0-.13.13,0,.14,2.17.32,4.36.59,6.54.88C116.71,378.3,116.75,378.16,116.66,378.15Z" style="fill:#263238"></path><path d="M59.85,410.93c-1.36.42-2.61,5.73-1.73,8.49s-4.21,11.35-5.25,14.88-.28,4.52,0,5.18-2.55,1.87-2.18,2.53,3.38,1,4.74.77S64,446,71.12,446.86c11.8,1.43,24.51-2.14,26.93-3,.79-.3,3.63.62,4.72.18s-.07-2.4-.18-3.06.76-2.68.91-7S96,420.41,96.36,419s1.78-5.12,1.68-5.86-12.25,3.54-20.3,3S62,410.27,59.85,410.93Z" style="fill:#455a64"></path></g><g id="freepik--Shovel--inject-30"><path d="M125.9,310.7a2,2,0,0,1-2.05-1.51L76.25,108.48a3,3,0,0,1,1.89-3.33,2.19,2.19,0,0,1,3.1,1.31l47.6,200.7a3,3,0,0,1-1.89,3.33A2.69,2.69,0,0,1,125.9,310.7Z" style="fill:#BB4B4B"></path><path d="M125.9,310.7a2,2,0,0,1-2.05-1.51L76.25,108.48a3,3,0,0,1,1.89-3.33,2.19,2.19,0,0,1,3.1,1.31l47.6,200.7a3,3,0,0,1-1.89,3.33A2.69,2.69,0,0,1,125.9,310.7Z" style="opacity:0.2"></path><path d="M99.61,305.08c-.24-.57,45.65,0,47.35,0s6.59,35.2,7.16,39.25-11.79,15.14-17,15.14c-10.51,0-25.82-6-30-11.09S100.07,306.15,99.61,305.08Z" style="fill:#c7c7c7"></path><path d="M128.78,325.61a12.57,12.57,0,0,1-4-4.85c-2.42-5.15-3.57-12.25-4.4-14.49-.09-.24-.55-.08-.49.19,1,4.25,1.24,8.14,2.23,12.37a10.46,10.46,0,0,0,6.14,7.46C128.68,326.49,129.18,325.87,128.78,325.61Z" style="fill:#a6a6a6"></path><path d="M132.16,316.29a78.49,78.49,0,0,0-2.73-9.92c-.05-.13-.26,0-.25.1.55,6.13,3.48,12.18,2.59,18.59,0,.23.32.3.41.05C133.35,321.91,132.86,319.25,132.16,316.29Z" style="fill:#a6a6a6"></path><path d="M117.72,304.84c.85,0-3.79-14.79-3.83-15.75s11.56-1.49,12.57-.53,3.83,16.37,4.26,16.37Z" style="fill:#c7c7c7"></path><path d="M166.65,362.75c-11.74,1.05-23.61.41-35.37.53s-23.58.35-35.37-.42c-.22,0-.22-.61,0-.61l1.73-.11c1-2.08,2.29-3.35,3.8-3.75.48-.12,1.67.42,2,.05s.22-.7.46-1.54c1.52-5.26,4.51-5,7.34-3.86-1.54-6.83,1.64-10.51,5.47-12,4.41-1.72,8.54-.28,10.22,6.87,1.88-2.28,4.26-2.8,6.38-1,1.13.94,1.34,2.07,2.58,1.59a5.37,5.37,0,0,1,3.43-.53,6.34,6.34,0,0,1,3.21,2.31c.69.88,1.3,2.77,2,3.2.86.53,1.6-.41,2.51.85a6.87,6.87,0,0,1,1,4c2.57-1.44,4.66-.53,7.11,1.39,1.19.95,2.21-.19,3.47.23a4.62,4.62,0,0,1,2.29,2s0,0,0,0c1.9.09,3.79.2,5.69.37C166.81,362.35,166.81,362.74,166.65,362.75Z" style="fill:#BB4B4B"></path><path d="M166.65,362.75c-11.74,1.05-23.61.41-35.37.53s-23.58.35-35.37-.42c-.22,0-.22-.61,0-.61l1.73-.11c1-2.08,2.29-3.35,3.8-3.75.48-.12,1.67.42,2,.05s.22-.7.46-1.54c1.52-5.26,4.51-5,7.34-3.86-1.54-6.83,1.64-10.51,5.47-12,4.41-1.72,8.54-.28,10.22,6.87,1.88-2.28,4.26-2.8,6.38-1,1.13.94,1.34,2.07,2.58,1.59a5.37,5.37,0,0,1,3.43-.53,6.34,6.34,0,0,1,3.21,2.31c.69.88,1.3,2.77,2,3.2.86.53,1.6-.41,2.51.85a6.87,6.87,0,0,1,1,4c2.57-1.44,4.66-.53,7.11,1.39,1.19.95,2.21-.19,3.47.23a4.62,4.62,0,0,1,2.29,2s0,0,0,0c1.9.09,3.79.2,5.69.37C166.81,362.35,166.81,362.74,166.65,362.75Z" style="opacity:0.30000000000000004"></path></g><g id="freepik--Character--inject-30"><path d="M412.94,394.48c.26,3.53-9.84,4.55-14.06,2.26-1.34-.73-5.12-3.93-9.73-8C379,379.79,365,366.68,365,366.68l-61.07,21.54L282.56,332.9s55-22.47,58.42-23.81l.63-.26c15.65-6,28.62-10.57,29.95-9.63C375.14,301.69,412.67,390.92,412.94,394.48Z" style="fill:#ad6359"></path><path d="M412.94,394.47c.27,3.55-9.84,4.55-14.06,2.28-1.33-.74-5.12-3.93-9.72-8C379,379.8,365,366.68,365,366.68l-23.71,8.56L318,316.87c.25-.11,50.63-19.78,53.55-17.68C375.12,301.73,412.67,390.92,412.94,394.47Z" style="fill:#BB4B4B"></path><path d="M409.29,395c-6.87-15.14-33.12-76.84-38.76-92.32,0-.13,0-.16.1,0,7.13,14.85,32.89,76.76,38.91,92.25C409.67,395.26,409.43,395.36,409.29,395Z" style="fill:#263238"></path><path d="M388.56,388a15.47,15.47,0,0,1,.13-12.43c1.55-3.19,4.21-6.44,8-7.79.11,0,.19.16.09.22-6.6,3.8-10.23,12.6-8,19.92A.12.12,0,0,1,388.56,388Z" style="fill:#263238"></path><path d="M412.94,394.47c.27,3.55-9.84,4.55-14.06,2.28-1.33-.74-5.12-3.93-9.72-8C379,379.8,365,366.68,365,366.68l-23.71,8.56-14.74-36.95,52-25.61C390.47,338.34,412.73,391.74,412.94,394.47Z" style="opacity:0.1"></path><path d="M345.41,381.57s-110.2,25.31-150.74,18c-19.4-3.49-33.4-28.46-24.08-47.58,8.7-17.85,61.9-35.95,76.93-46.45,4.73-3.29,4.22-16.33,4.22-16.33l39.49-.53s14.07,22.36,8.1,33.24a3.92,3.92,0,0,1-.33.54l17.81-6.77Z" style="fill:#455a64"></path><path d="M321,351.77c-4.39-9.54-9.22-18.87-13.69-28.38-.08-.18-.37-.08-.29.11,4.21,9.58,8.11,19.29,12.5,28.8s9.15,18.9,13.76,28.34c.12.24.51.11.4-.15C329.45,370.93,325.39,361.29,321,351.77Z" style="fill:#263238"></path><path d="M299.26,322.92c-2.72,1.58-5.32,3.42-8,5.13s-5.23,3.35-7.9,4.93c-5.39,3.21-10.9,6.2-16.48,9a282.66,282.66,0,0,1-34.79,15c-6.64,2.34-13.36,4.62-20.2,6.31-.15,0-.08.27.07.23,5-1.19,10-2.36,14.88-3.75-2.61,1.64-5.17,3.36-7.77,5a.12.12,0,0,0,.13.2c2.84-1.71,5.71-3.36,8.53-5.11a.28.28,0,0,0,.08-.4c.84-.24,1.68-.48,2.52-.74q9.13-2.82,18-6.39a221.69,221.69,0,0,0,33.69-17c3-1.88,6-3.8,9-5.79a81.92,81.92,0,0,0,8.5-6.3C299.74,323.09,299.48,322.79,299.26,322.92Z" style="fill:#263238"></path><path d="M455.23,408c.27,3.53-9.83,4.55-14.05,2.26-1.34-.73-5.12-3.93-9.73-8-10.13-9-24.14-22.07-24.14-22.07L347.75,401.7l-22.89-55.26s24.53-10.38,47.85-19.67c3.59-1.42,7.12-2.81,10.56-4.15l.64-.25c15.65-6,28.62-10.57,29.95-9.64C417.44,315.23,455,404.46,455.23,408Z" style="fill:#ad6359"></path><path d="M455.23,408c.27,3.53-9.84,4.55-14.05,2.26-1.34-.74-5.13-3.94-9.73-8-10.12-9-24.15-22.08-24.15-22.08L373.47,394,349.29,336c.44-.18,30.54-12,34-13.34l.64-.25c15.66-6,28.61-10.57,29.95-9.63C417.44,315.22,455,404.45,455.23,408Z" style="fill:#BB4B4B"></path><path d="M452.2,409.27c-6.84-15.15-33-76.89-38.59-92.39-.05-.12,0-.16.09,0,7.11,14.87,32.76,76.82,38.75,92.33C452.58,409.49,452.34,409.59,452.2,409.27Z" style="fill:#263238"></path><path d="M430,400.21a15.49,15.49,0,0,1,.13-12.44c1.55-3.18,4.21-6.44,8-7.78.11,0,.19.16.09.21-6.6,3.8-10.23,12.61-8,19.92A.12.12,0,0,1,430,400.21Z" style="fill:#263238"></path><path d="M265.32,289l67.88-1s14.4,36.64,8.44,47.54-68.49,26.47-68.49,26.47l86-32.7,28.6,65.86S283.2,417.88,227.78,412.23c-20.81-2.12-33.86-29.29-21.68-50.17,12.82-22,59.34-52,59.34-52Z" style="fill:#455a64"></path><path d="M356.87,329.07c-26.31,12-52.85,23.51-80,33.53q-5.65,2.1-11.33,4.13c-3.93,1.41-7.82,3-11.83,4.16-.2.05-.1.37.09.3,3.46-1.3,7.06-2.23,10.57-3.38s6.86-2.27,10.28-3.45l4.41-1.57-.89.61c-1.35.91-2.7,1.81-4,2.75-2.75,1.93-5.3,4.22-8.18,5.94-.18.11,0,.39.17.27,2.74-1.94,5.82-3.4,8.64-5.23,1.37-.9,2.7-1.82,4-2.77a27.36,27.36,0,0,0,3.54-2.73c4.32-1.55,8.64-3.12,12.93-4.76q20.28-7.72,40.06-16.66c7.36-3.33,14.66-6.8,21.86-10.47C357.57,329.55,357.26,328.89,356.87,329.07Z" style="fill:#263238"></path><path d="M364.83,364.73c-4.39-9.54-9.21-18.87-13.68-28.38-.08-.18-.38-.08-.3.11,4.22,9.58,8.12,19.29,12.5,28.8s9.16,18.9,13.76,28.34c.12.24.52.11.4-.14C373.26,383.89,369.21,374.25,364.83,364.73Z" style="fill:#263238"></path><path d="M264.21,310.76A186.52,186.52,0,0,0,242.77,325c-6.81,5-13.4,10.39-19.69,16.07-3.17,2.87-6.24,5.87-9.2,8.95a70.38,70.38,0,0,0-7.8,9.43,33.12,33.12,0,0,0-5.63,20.71,35.35,35.35,0,0,0,2.69,11.32,42.08,42.08,0,0,0,6.29,9.71c.1.12.28-.06.17-.18a26.51,26.51,0,0,1-5.31-9.28,35,35,0,0,1,2.65-29.88c4.17-6.92,10.3-12.66,16.12-18.16a243.1,243.1,0,0,1,18.88-16.08q5.52-4.24,11.2-8.28c3.78-2.71,7.63-5.31,11.33-8.14A.24.24,0,0,0,264.21,310.76Z" style="fill:#263238"></path><path d="M283.94,313.49c-5.52-1.93-11.55-2.68-17.34-3.32s-11.58-.95-17.4-1c-.16,0-.14.23,0,.24,5.89.52,11.78,1.26,17.63,2.14,5.66.85,11.33,2.08,17,2.53C284.22,314.07,284.22,313.58,283.94,313.49Z" style="fill:#263238"></path><path d="M330.1,314.29a83.35,83.35,0,0,1-10.81-1c-3-.42-6-.86-8.48-2.71C306,307,304,300.64,303,295c0-.14-.26-.1-.24,0,.82,6.17,1.1,13.26,6.52,17.4,2.68,2.05,5.92,2.67,9.22,2.88a57.7,57.7,0,0,0,11.59-.72A.14.14,0,0,0,330.1,314.29Z" style="fill:#263238"></path><path d="M337.57,324.07a73.22,73.22,0,0,0-1.9-10.59c-.85-3.58-1.87-7.12-3-10.62-1.28-4-2.78-7.88-4.34-11.75-.06-.14-.28-.08-.23.07,2.24,6.55,4.28,13.19,6,19.9q1.28,5,2.27,10a20.94,20.94,0,0,1,.06,9.86,17.28,17.28,0,0,1-5.44,8.46s0,.07,0,.05A17.74,17.74,0,0,0,337.57,324.07Z" style="fill:#263238"></path><path d="M349.18,344.2c-4.58,1.2-9.06,2.78-13.57,4.24s-9,2.92-13.51,4.42c-9,3-18,6.1-26.92,9.2-5.09,1.76-10.14,3.63-15.2,5.48-.14,0-.08.28.07.23q27.17-8.43,54-17.9c5.07-1.78,10.23-3.43,15.19-5.5A.09.09,0,0,0,349.18,344.2Z" style="fill:#263238"></path><path d="M262,206.26c-1,20.77-8.49,64.82-17.41,79.48-3.85,6.32-26.18,21.86-41.88,29-5.87,2.67-24.11-30.48-18.06-34.08,4.11-2.46,29.83-18.27,32.34-21.08,4.63-5.17,23.07-44.84,33.05-61.12C255.65,189.39,262.64,193.35,262,206.26Z" style="fill:#ad6359"></path><path d="M208.88,310.8c-.51.49-7.77,7.38-12.59,10.52-3.6,2.34-14.15,8.8-17.12,5.09-2-2.53,3.73-7.06,7.72-10.35,2.11-1.73,4.32-5.15,3.14-6.49-2.07-2.33-7.45,2.27-10.81,5.88-6.5,7-14.76,21.91-20.79,19.37-2.28-1-.75-7.87,1.53-11.51-4.07,4.67-6.54,9.89-10.69,9.44-1.57-.18-2.44-3.31-2.2-4.94-1.4,1-2.8,1.29-4.06.57-2.15-1.22-2.12-4-1.12-7.11a2,2,0,0,1-1.78-.52c-5.05-4.22,7.67-24.6,13.22-27.83,16.34-9.51,35.13-14.35,35.13-14.35C197,282,208.89,310.78,208.88,310.8Z" style="fill:#ad6359"></path><path d="M178.08,302.44a31.16,31.16,0,0,0-10.37,8.07c-3.57,4.3-5.49,8.64-8.18,13.25a.11.11,0,0,0,.19.11c1.28-2.19,6.79-10.63,8.28-12.62a29.72,29.72,0,0,1,10.12-8.75A0,0,0,1,0,178.08,302.44Z" style="fill:#263238"></path><path d="M172.54,296c-4.24,2.67-8.6,5.38-12.23,8.87-4,3.82-6.47,8.84-8.95,13.69q-2.22,4.37-4.27,8.84c-.05.12.13.24.19.11q3.74-7.49,7.93-14.75a39.29,39.29,0,0,1,10.08-11.62c2.34-1.81,4.82-3.44,7.29-5.06C172.63,296,172.59,295.93,172.54,296Z" style="fill:#263238"></path><path d="M165.62,290.92c-4.22,2.29-7.9,4.27-11.15,7.88-4.31,4.79-7.76,11.7-9,14.14-1.34,2.71-2.58,5.45-3.78,8.21-.05.11.14.2.2.09a154.66,154.66,0,0,1,9.6-17.73,30.84,30.84,0,0,1,6.15-7.31,57.61,57.61,0,0,1,8-5.25S165.64,290.91,165.62,290.92Z" style="fill:#263238"></path><path d="M217,258.11l31.85,22.46s14.13-46,13.76-71.42c-.28-19.87-6.92-21.38-15.55-7S217,258.11,217,258.11Z" style="fill:#BB4B4B"></path><g style="opacity:0.1"><path d="M222.77,247v15.23l-1.92-1.35-.15-.11v-9.8c.08-.15.16-.3.23-.45C221.5,249.4,222.12,248.22,222.77,247Z"></path><path d="M233.13,227.3v42.2L231.06,268V231.19l.77-1.43Z"></path><path d="M243.49,208.29V276.8l-2.07-1.46V212l.49-.89,1.16-2.08Z"></path><path d="M253.85,193.79v68.69l-.11.44c-.69,2.69-1.36,5.17-2,7.37V195.63A13.37,13.37,0,0,1,253.85,193.79Z"></path><path d="M262.59,209v.12c0,.64,0,1.29,0,2,0,2.53-.19,5.23-.45,8v-17A63.23,63.23,0,0,1,262.59,209Z"></path><path d="M261.94,200.75h-14c.47-.74.94-1.44,1.4-2.08h12.21C261.68,199.31,261.82,200,261.94,200.75Z"></path><path d="M262.59,209v.12c0,.64,0,1.29,0,2H241.91l1.16-2.08Z"></path><path d="M262.12,219.4H237.38c-.38.68-.75,1.37-1.12,2.07h25.65Z"></path><path d="M260.8,229.76c-.1.69-.22,1.38-.33,2.07H230.72c.12-.21.23-.43.34-.64l.77-1.43Z"></path><path d="M259,240.12l-.42,2.07H225.26l1.1-2.07Z"></path><path d="M256.76,250.48c-.16.7-.32,1.39-.47,2.07H219.86q.4-.77.84-1.62c.08-.15.16-.3.23-.45Z"></path><path d="M254.27,260.84l-.42,1.64-.11.44H223.8l-1-.73-1.92-1.35Z"></path><path d="M251.52,271.21c-.19.73-.39,1.42-.57,2.07H238.49l-2.93-2.07Z"></path></g><polygon points="212.82 259.04 248.12 285.04 248.12 283.26 251 282.94 251 281.59 253.15 278.54 216.98 253.78 216.98 255.66 214.53 256.4 214.74 258.11 212.82 259.04" style="fill:#BB4B4B"></polygon><polygon points="212.82 259.04 248.12 285.04 248.12 283.26 251 282.94 251 281.59 253.15 278.54 216.98 253.78 216.98 255.66 214.53 256.4 214.74 258.11 212.82 259.04" style="opacity:0.1"></polygon><path d="M333.2,287.93l-81.46,1.28c.35,1.75-11.12-45.34-1.66-90.73,2.09-10,16.75-14.82,24.06-10.33C306.18,207.82,333.43,289.07,333.2,287.93Z" style="fill:#BB4B4B"></path><path d="M330.86,281.57h-25.2v-8.29h-2.07v8.29H295.3v-8.29h8.29v-2.07H284.94v-8.29h8.29v-2.08H274.58v2.08h8.29v8.29H264.22v2.07h8.29v8.29H253.85v2.07h77.78C331.39,283,331.14,282.32,330.86,281.57Zm-48,0h-8.29v-8.29h8.29Zm10.36,0h-8.29v-8.29h8.29Zm-43,0c.13.74.26,1.43.38,2.07h1.21v-2.07Zm76.65-10.36H305.66v-8.29h-2.07v8.29H284.94v-8.29h8.29v-2.08H274.58v2.08h8.29v8.29h-29v2.07h73.82C327.4,272.61,327.13,271.92,326.84,271.21Zm-78.25,0c.1.71.19,1.4.29,2.07h2.9v-2.07Zm74-10.37H305.66v-8.29h-2.07v8.29H295.3v-8.29h-2.07v8.29H253.85v2.08h18.66v8.29h2.07v-8.29h18.65v8.29h2.07v-8.29h28.13C323.15,262.23,322.85,261.54,322.55,260.84Zm-75.12,0c.06.7.13,1.4.2,2.08h4.15v-2.08ZM318,250.48H305.66v-8.29h-2.07v8.29H295.3v-8.29h-2.07v8.29h-8.29v-8.29h-2.07v8.29h-29v2.07h18.66v8.29h2.07v-8.29h8.29v8.29h2.07v-8.29h33.95C318.58,251.86,318.27,251.17,318,250.48Zm-71.28,0,.12,2.07h5v-2.07ZM314,242.07c-.32-.65-.64-1.3-1-1.95H295.3v-8.29h-2.07v8.29h-8.29v-8.29h-2.07v8.29h-8.29v-8.29h-2.07v8.29H253.85v2.07h18.66v8.29h2.07v-8.29H314Zm-67.6-1.95c0,.69,0,1.38,0,2.07h5.41v-2.07Zm61.22-10.36H284.94v-8.29h-2.07v8.29h-8.29v-8.29h-2.07v8.29H253.85v2.07H308.7C308.33,231.14,308,230.45,307.57,229.76Zm-61.1,0q0,1.05-.06,2.07h5.37v-2.07Zm55.1-10.36H284.94v-8.29h-2.07v8.29h-8.29v-8.29h-2.07v8.29H253.85v2.07h49C302.41,220.77,302,220.08,301.57,219.4Zm-54.49,0c-.06.69-.11,1.38-.16,2.07h4.86V219.4Zm48.22-9.53c-.2-.29-.4-.56-.6-.84H274.58v-8.28h-2.07V209H253.85v2.08h42.32ZM248.25,209c-.1.7-.2,1.39-.29,2.08h3.82V209Zm38.13-10.36H253.85v2.08h8.29V209h-8.29v2.08h10.37V200.75h24C287.61,200,287,199.34,286.38,198.67Zm-36.34,0c-.14.69-.28,1.38-.41,2.08h2.15v-2.08Zm24.54-10.24-.19-.12H259.1a19.44,19.44,0,0,0-3.53,2.07h21.84C276.47,189.68,275.53,189,274.58,188.43ZM314,273.28v8.29H316v-8.29Zm0,0v8.29H316v-8.29ZM324.31,265v23.07l2.08,0v-18C325.74,268.45,325,266.76,324.31,265ZM314,281.57H316v-8.29H314Zm0-8.29v8.29H316v-8.29Zm0,0v8.29H316v-8.29Zm.06-31.09-.06-.12v8.41h-8.29v-8.29h-2.07v8.29H295.3v-8.29h-2.07v8.29h-8.29v-8.29h-2.07v18.65h2.07v-8.29h8.29v18.66h2.07v-8.29h8.29v10.36H314v15l2.07,0V246.36Q315,244.29,314,242.19ZM295.3,260.84v-8.29h8.29v8.29ZM314,271.21h-8.29v-8.29H314Zm0-10.37h-8.29v-8.29H314Zm-10.36-38.09v17.37H295.3v-8.29h-2.07v8.29h-8.29v-8.29h-2.07v8.29h-8.29v2.07h8.29v18.65h2.07v-8.29h8.29v18.66h2.07v-8.29h8.29v25.47l2.07,0v-62C305,225.13,304.29,223.93,303.59,222.75Zm-18.65,27.73v-8.29h8.29v8.29Zm18.65,10.36H295.3v-8.29h8.29Zm0-10.36H295.3v-8.29h8.29Zm-8.29,20.73V209.87c-.2-.29-.4-.56-.6-.84-.49-.68-1-1.36-1.47-2V219.4h-8.29v-8.29h-2.07v8.29h-8.29v-8.29h-2.07v20.72h10.36v8.29h-8.29v2.07h8.29v18.65h2.07v-8.29h8.29v36l2.07,0V273.28h8.29v-2.07Zm-2.07-49.74v8.29h-8.29v-8.29Zm-18.65,8.29v-8.29h8.29v8.29Zm18.65,2.07v8.29h-8.29v-8.29Zm-8.29,18.65v-8.29h8.29v8.29Zm8.29,12.44v-2.08h-8.29V197.13c-.69-.72-1.38-1.41-2.07-2.08v14h-8.29v-8.28h-2.07V209h-8.29v2.08h8.29v20.72h10.36v8.29h-8.29v2.07h8.29v18.65h-8.29v2.08h8.29v25.79l2.07,0v-15.4h8.29v-2.07h-8.29v-8.29Zm-10.36-51.81v8.29h-8.29v-8.29Zm-8.29,18.65v-8.29h8.29v8.29Zm0,22.79h8.29v-2.07h-8.29v-62l-.19-.12-.25-.16a9.86,9.86,0,0,0-1.63-.8v11.32h-8.29v2.08h8.29V209h-8.29v2.08h8.29v60.1h-8.29v2.07h8.29v15.6l2.07,0V273.28h8.29v-2.07h-8.29Zm0-2.07V231.83h-2.07v8.29h-8.29v-8.29h8.29v-2.07h-8.29v-8.29h8.29V219.4h-8.29V186.74a19.44,19.44,0,0,0-2.08.47V209h-8.29v2.08h8.29V289l2.08,0V262.92h8.29v8.29h2.07V252.55h8.29v-2.07Zm-10.36-8.29h8.29v8.29h-8.29Zm0,18.65v-8.29h8.29v8.29Zm10.36-10.36V231.83h-2.07v8.29h-8.29v-8.29h8.29v-2.07h-8.29v-8.29h8.29V219.4h-8.29v-8.29h-2.08v8.29h-8.29v2.07h8.29v8.29h-8.29v2.07h8.29v8.29h-8.29v2.07h8.29v8.29h-8.29v2.07h8.29v8.29h-8.29v2.08h8.29v8.29h-8.29v2.07h8.29v8.29h2.08V262.92h8.29v8.29h2.07V252.55h8.29v-2.07Zm-10.36-8.29h8.29v8.29h-8.29Zm0,18.65v-8.29h8.29v8.29Zm-2.08,12.44v8.29h2.08v-8.29Zm0,0v8.29h2.08v-8.29Zm0,0v8.29h2.08v-8.29Zm0,0v8.29h2.08v-8.29Zm0-10.36v8.29h-8.29v2.07h10.37V262.92Zm0,0v8.29h-8.29v2.07h10.37V262.92Zm0,0v8.29h-8.29v2.07h10.37V262.92Zm2.08-2.08v-8.29h-2.08v8.29h-8.29v2.08h18.66v8.29h2.07V260.84Zm0,0v-8.29h-2.08v8.29h-8.29v2.08h18.66v8.29h2.07V260.84Zm0,0v-8.29h-2.08v8.29h-8.29v2.08h18.66v8.29h2.07V260.84Zm0-10.36v-8.29h-2.08v8.29h-8.29v2.07h18.66v8.29h2.07v-8.29h8.29v-2.07Zm0,0v-8.29h-2.08v8.29h-8.29v2.07h18.66v8.29h2.07v-8.29h8.29v-2.07Zm8.29-18.65v8.29h-8.29v-8.29h-2.08v8.29h-8.29v2.07h18.66v8.29h2.07V231.83Zm-8.29-2.07v-8.29h-2.08v8.29h-8.29v2.07h18.66v-2.07Z" style="opacity:0.1"></path><path d="M253.85,271.21v18l-2.07,0v-18Z" style="opacity:0.1"></path><rect x="251.78" y="252.55" width="2.07" height="18.66" style="opacity:0.1"></rect><rect x="251.78" y="240.12" width="2.07" height="12.43" style="opacity:0.1"></rect><rect x="251.78" y="221.47" width="2.07" height="18.65" style="opacity:0.1"></rect><path d="M253.85,191.84v29.63h-2.07v-27.1A13.88,13.88,0,0,1,253.85,191.84Z" style="opacity:0.1"></path><path d="M269.54,186.45s.15,27.8,0,28.12-16.84,2.23-17.06,2.08.67-23.11.67-23.11l-2.58,1.91s-4.56,9-4.58,38.49c0,27.18,5.75,55.27,5.75,55.27l58.07,4.45,23.39-5.73s-5.7-22.79-17.6-42.45c0,0-28.27-10.36-32.28-12.95s-9.95-45.17-9.95-45.17Z" style="fill:#455a64"></path><path d="M253.06,236.92c1.87,1.37,7.8,3.33,9.78,3.32s10.32-3,11.55-4.42c.49-.57-1.25-13.32-1.62-14.1s-19.94.9-20.43,1.6C251.26,224.87,252.4,236.44,253.06,236.92Zm-.2-12.9c.58-.61,17.95-2.5,19.44-1.63.39,2.66,1.57,12.58,1.31,12.94s-9.06,4.17-10.73,4.09c-2.48-.1-8.21-2.35-9.22-3C253,236,252.45,224.45,252.86,224Z" style="fill:#37474f"></path><path d="M188.55,341.26s0,0,0,0" style="fill:#BB4B4B;stroke:#d0ddd0;stroke-linecap:round;stroke-linejoin:round;stroke-width:0px"></path><path d="M177.09,344.32c.2.29.64,0,.43-.29-.08-.09-.18-.18-.27-.29s0-.05,0-.09c-1-3.49-1.06-7.43-2.67-10.74-1.46-3-4.11-5.58-6.39-8-1.13-1.19-8.45-9.92-10.4-7-.91,1.36.78,4,1.54,4.95,1.1,1.4,2.47,2.19,3,4,.42,1.4.4,2.84.91,4.21C165.65,337.43,173.39,339,177.09,344.32Z" style="fill:#BB4B4B"></path><path d="M165.52,353.51c1.31,6.66,5,12.21,9.26,17.33.25.31.74,0,.51-.33v0h0a16.67,16.67,0,0,0,.59-8.2,9.32,9.32,0,0,0-1.63-3.31,13.45,13.45,0,0,1-2.18-5.65,34.7,34.7,0,0,0-3.06-9.13c-.46-.86-1.36-2.63-2.63-2.41C163.54,342.25,165.2,351.87,165.52,353.51Z" style="fill:#BB4B4B"></path><path d="M185.85,378.4c-.18.35.25.64.52.48a.08.08,0,0,0,.07,0c2.36-1.89,4.89-2.53,6.79-5a20.75,20.75,0,0,0,3.24-7c.71-2.34,3.72-12.37,0-13.7-1.12-.39-1.77.38-2.31,1.29a27.81,27.81,0,0,0-1.66,4.56c-.78,2.15-2,3.23-3.68,4.78C184.35,367.94,188.22,373.74,185.85,378.4Z" style="fill:#BB4B4B"></path><path d="M191.6,333.26c.6-3.2-.18-6.75-.54-9.95-.24-2.06-.71-14.29-4.53-13.68-1.53.25-1.6,2.67-1.68,3.76-.3,4,.41,7.45-.9,11.35-1.95,5.8,1.28,11.62,4.4,16.42a.14.14,0,0,0,.1.07,2.66,2.66,0,0,1,0,.28c0,.1.16.13.19,0C189.59,338.84,191.08,336.11,191.6,333.26Z" style="fill:#BB4B4B"></path><path d="M166.9,389.91c0,.07.07.07.12.06v.11c0,.1.17.11.18,0,.33-3,1.47-5.78,1.61-8.77A24,24,0,0,0,167,372c-1.05-2.81-2.11-6.26-3.7-8.82-.41-.65-.88-1.52-1.79-1.07-1.13.55-.79,3.56-.68,4.52.14,1.27.64,2.4.89,3.63a8,8,0,0,1-.54,4.12C159.52,380.14,165,385,166.9,389.91Z" style="fill:#BB4B4B"></path><path d="M163.13,416a91.82,91.82,0,0,0,6.63-12.94c0-4.65-2.35-8.86-3.16-13.4-.95-5.38-.62-10.9-1.78-16.25-.06-.3.38-.47.46-.17,1.2,5,1.39,10.14,2.25,15.22.69,4.08,2.65,8,3.26,12.06,1.43-3.62,2.71-7.3,3.9-11,1.07-3.34,2.17-6.68,3.12-10-.59-5.53-4.25-10-6.45-15a43,43,0,0,1-3.48-15.69c0-.09.13-.1.14,0a55.46,55.46,0,0,0,6,18.11c1.78,3.35,3.63,6.48,4.48,10.07a54.37,54.37,0,0,0,2-16.36c-.14-2.82-.35-5.63-.6-8.44a86.45,86.45,0,0,0-14.72-25.73c-.14-.17.13-.35.27-.19a78.83,78.83,0,0,1,14.13,22.58A334.33,334.33,0,0,0,170,298.87a.07.07,0,0,1,.14-.05,265.07,265.07,0,0,1,7.9,31.52,218.31,218.31,0,0,1,4,30,67.7,67.7,0,0,0,3.13-6.19,35.68,35.68,0,0,0,2.5-9.56c.7-7.36,0-15,.17-22.4,0-.1.16-.12.16,0,.5,7.56,1.45,15.55.8,23.12-.48,5.58-2.7,12.93-6.67,17.18.23,9.08-2.69,17.86-5.52,26.42,2.29-3.34,5.37-6.21,8.09-9.12,4.53-4.84,7.07-11.47,9.36-17.61.07-.17.32,0,.26.13-2,5.63-3.64,12.11-7.4,16.88s-8.31,9-11.7,14.32a.49.49,0,0,1-.23.2c-2.77,8-6.15,15.83-11.05,22.77C163.61,417,162.85,416.45,163.13,416Z" style="fill:#263238"></path><path d="M172,302.15a28.33,28.33,0,0,0,1.74-6.71,48.51,48.51,0,0,0,.26-6.6,26.26,26.26,0,0,0-3.59-13.2.87.87,0,0,1-.6-.13.89.89,0,0,1,0-1.5.83.83,0,0,1,.37-.11h0a.87.87,0,0,1,.95,1.06.85.85,0,0,1-.41.57,23.56,23.56,0,0,1,4.07,13.07,36.42,36.42,0,0,1-.43,6.92,17.83,17.83,0,0,1-2.18,6.72C172.16,302.33,172,302.28,172,302.15Z" style="fill:#263238"></path><path d="M156.64,292.15a30.7,30.7,0,0,1-3.57-7.1,18.6,18.6,0,0,1-.76-6.7.85.85,0,0,1-.62-.41l-.06-.14a.88.88,0,0,1,.14-1,.66.66,0,0,1,.7-.28,1,1,0,0,1,.73.39.88.88,0,0,1-.17,1.23,1.11,1.11,0,0,1-.52.2c-.1,4.91,2.12,9.48,4.7,13.53a50.7,50.7,0,0,0,4.63,6.27,42.51,42.51,0,0,0,6,5.34.17.17,0,0,1-.18.28C163,301.2,159.45,296.5,156.64,292.15Z" style="fill:#263238"></path><path d="M168.47,300.83c-.28-9.62-2.47-19.27-7.29-27.68a.9.9,0,0,1-.88-1.46.84.84,0,0,1,.51-.43.91.91,0,0,1,1.1.6,1,1,0,0,1-.44,1.18l-.09,0c4.91,8.4,7.84,17.93,7.45,27.75A.18.18,0,0,1,168.47,300.83Z" style="fill:#263238"></path><path d="M158.85,276h-.06a.89.89,0,0,1-.55-1.27.88.88,0,0,1,1.37-.19.84.84,0,0,1,.19.39,1.29,1.29,0,0,1,0,.19.85.85,0,0,1-.79.89c.54,9.8,5.1,18.61,9.74,27.06.06.09-.09.18-.15.08C163.63,294.83,159.08,285.84,158.85,276Z" style="fill:#263238"></path><path d="M171.58,299.67a40.84,40.84,0,0,0-.94-13.13,33.68,33.68,0,0,0-5.45-11.45l-.07,0a.87.87,0,0,1-1.2-.9v-.1a.73.73,0,0,1,.69-.67.93.93,0,0,1,.71,1.52,32.65,32.65,0,0,1,5.83,11.42,28.27,28.27,0,0,1,.67,13.3A.12.12,0,0,1,171.58,299.67Z" style="fill:#263238"></path><path d="M148.82,291.44a44.55,44.55,0,0,0,4.28,5.5,34.9,34.9,0,0,0,9,7.39,16,16,0,0,0,5.66,1.86,5.86,5.86,0,0,0,1.11,0,3.63,3.63,0,0,0,1.67-.58l.2-.15a2.79,2.79,0,0,0,.38-.39,3.34,3.34,0,0,0,.29-3c-.32-4.16-3.68-8-6.45-10.83-1.79-1.85-3.94-4.17-6.34-5.21a3.14,3.14,0,0,0-4,.91c-1.43-1-3.19-2.23-5-2.23a2.68,2.68,0,0,0-2.84,2.31C146.65,288.55,148,290.23,148.82,291.44Z" style="fill:#BB4B4B"></path><path d="M148.82,291.44a44.55,44.55,0,0,0,4.28,5.5,34.9,34.9,0,0,0,9,7.39,16,16,0,0,0,5.66,1.86,5.86,5.86,0,0,0,1.11,0,3.63,3.63,0,0,0,1.67-.58l.2-.15a2.79,2.79,0,0,0,.38-.39,3.34,3.34,0,0,0,.29-3c-.32-4.16-3.68-8-6.45-10.83-1.79-1.85-3.94-4.17-6.34-5.21a3.14,3.14,0,0,0-4,.91c-1.43-1-3.19-2.23-5-2.23a2.68,2.68,0,0,0-2.84,2.31C146.65,288.55,148,290.23,148.82,291.44Z" style="opacity:0.1"></path><path d="M149.76,289a59.81,59.81,0,0,0,18,17.19,5.86,5.86,0,0,0,1.11,0,98.18,98.18,0,0,1-14.57-14.82s-.07,0-.05,0a81.37,81.37,0,0,0,13.51,14.37A63.74,63.74,0,0,1,149.8,289S149.75,289,149.76,289Z" style="opacity:0.1"></path><path d="M160.06,294a53.81,53.81,0,0,0,10.46,11.62l.2-.15a61.9,61.9,0,0,1-10.6-11.5S160,294,160.06,294Z" style="fill:#d24e5d"></path><path d="M172,304l.22.07a2.71,2.71,0,0,0,.82.06l.3,0,.41-.09.13,0,.16-.05c3.52-1.24,4.95-5.29,5.61-8.59a49.68,49.68,0,0,0,.85-5.94,28.62,28.62,0,0,0,.41-5.38,19.32,19.32,0,0,0-.87-5.49c-.41-1.27-1-3-2.34-3.52-2.75-1-3.77,3.56-4.06,5.83a2.93,2.93,0,0,0-3.25,0c-1.53,1-2.1,2.92-2.39,4.59-.68,4,.08,8.38.93,12.27C169.36,299.76,169.89,303.29,172,304Z" style="fill:#BB4B4B"></path><path d="M172,304l.22.07a2.71,2.71,0,0,0,.82.06l.3,0,.41-.09.13,0,.16-.05c3.52-1.24,4.95-5.29,5.61-8.59a49.68,49.68,0,0,0,.85-5.94,28.62,28.62,0,0,0,.41-5.38,19.32,19.32,0,0,0-.87-5.49c-.41-1.27-1-3-2.34-3.52-2.75-1-3.77,3.56-4.06,5.83a2.93,2.93,0,0,0-3.25,0c-1.53,1-2.1,2.92-2.39,4.59-.68,4,.08,8.38.93,12.27C169.36,299.76,169.89,303.29,172,304Z" style="opacity:0.1"></path><path d="M173.72,303.92a45.69,45.69,0,0,0,4.17-11.07,39.76,39.76,0,0,0,.7-11.82s0,0,0,0c.9,7.72-.52,16.35-4.79,23A.07.07,0,1,1,173.72,303.92Z" style="opacity:0.1"></path><path d="M173,304.14l.3,0a41.25,41.25,0,0,0,2.87-17.3h0A45.72,45.72,0,0,1,173,304.14Z" style="opacity:0.1"></path><path d="M172,304l.22.07a66.18,66.18,0,0,0,1.23-17.26s-.07,0-.06,0A68.37,68.37,0,0,1,172,304Z" style="opacity:0.1"></path><path d="M164.53,301.34a28.23,28.23,0,0,0,3.76,3.4,5.17,5.17,0,0,0,3.11,1.33h0a1.69,1.69,0,0,0,.39-.08l.2-.06.31-.16c1.81-1,2.68-4.34,2.94-6a14.42,14.42,0,0,0,0-4,23.55,23.55,0,0,0-2-8c-.95-2.24-2.15-5.74-4.78-6.5a9.6,9.6,0,0,0-2.14-.22,7.5,7.5,0,0,1-2.85-.83,6.91,6.91,0,0,0-3.72-.82,4.91,4.91,0,0,0-4.51,4.62,11.81,11.81,0,0,0,1.12,4.54,39.6,39.6,0,0,0,2,4.35A38.9,38.9,0,0,0,164.53,301.34Z" style="fill:#BB4B4B"></path><path d="M168.68,286.13A32.6,32.6,0,0,1,172,305.92l.31-.16a30.19,30.19,0,0,0-3.56-19.69A.06.06,0,1,0,168.68,286.13Z" style="opacity:0.1"></path><path d="M171.44,306.06a1.69,1.69,0,0,0,.39-.08l-.12-.11c-2-5.58-4.09-11.05-5.61-16.78h0a91.08,91.08,0,0,0,5.2,16.34c-5.41-5.55-9.05-12.54-11.86-19.8,0,0-.08,0-.06,0C162.18,293.05,165.72,300.51,171.44,306.06Z" style="opacity:0.1"></path><path d="M160.43,291.64a.05.05,0,0,1,.1,0,35.06,35.06,0,0,0,5.06,8.88c.06.08-.07.18-.13.1A33.17,33.17,0,0,1,160.43,291.64Z" style="opacity:0.1"></path><path d="M166.27,307.05c1.86.62,3.92.84,5.61,1.89.33.2.73.69,1.16.47s.46-.78.6-1.06a15.22,15.22,0,0,1,.88-1.51c.73-1.11,4.2-4.82,4.09-7a.31.31,0,0,0-.38-.29,10.64,10.64,0,0,0-3,2.22c-.92.81-3.2,3.05-4.43,1.79-.58-.6-2.09-4.3-3.23-3.44a.28.28,0,0,0-.13.3,16.13,16.13,0,0,0,1.18,3.11c.06.15.65,1.26.56,1.42-.3.53-1.36.13-1.77,0-1.5-.35-3.1-1.46-4.67-1.18a.26.26,0,0,0-.18.31C162.87,305.75,164.86,306.58,166.27,307.05Z" style="fill:#263238"></path><path d="M134.11,421.19c10.06.5,20.24.19,30.32.25s20.21.17,30.32-.2a.15.15,0,0,0,0-.3l-1.48-.05a5.13,5.13,0,0,0-3.26-1.81c-.42-.06-1.43.21-1.71,0s-.2-.34-.4-.74c-1.3-2.54-3.86-2.42-6.29-1.87,1.32-3.29-1.41-6.51-4.69-7.24a7.7,7.7,0,0,0-8.76,4.76,5.5,5.5,0,0,0-5.47-.5c-1,.46-1.15,1-2.21.77a7.87,7.87,0,0,0-2.94-.26,6.61,6.61,0,0,0-2.76,1.12c-.59.42-1.11,1.33-1.72,1.54s-1.37-.2-2.15.41A2.38,2.38,0,0,0,150,419c-2.2-.7-4-.26-6.09.67-1,.46-1.89-.09-3,.11a4,4,0,0,0-1.95,1l0,0c-1.62,0-3.25.09-4.87.18A.1.1,0,1,0,134.11,421.19Z" style="fill:#BB4B4B"></path><path d="M134.11,421.19c10.06.5,20.24.19,30.32.25s20.21.17,30.32-.2a.15.15,0,0,0,0-.3l-1.48-.05a5.13,5.13,0,0,0-3.26-1.81c-.42-.06-1.43.21-1.71,0s-.2-.34-.4-.74c-1.3-2.54-3.86-2.42-6.29-1.87,1.32-3.29-1.41-6.51-4.69-7.24a7.7,7.7,0,0,0-8.76,4.76,5.5,5.5,0,0,0-5.47-.5c-1,.46-1.15,1-2.21.77a7.87,7.87,0,0,0-2.94-.26,6.61,6.61,0,0,0-2.76,1.12c-.59.42-1.11,1.33-1.72,1.54s-1.37-.2-2.15.41A2.38,2.38,0,0,0,150,419c-2.2-.7-4-.26-6.09.67-1,.46-1.89-.09-3,.11a4,4,0,0,0-1.95,1l0,0c-1.62,0-3.25.09-4.87.18A.1.1,0,1,0,134.11,421.19Z" style="opacity:0.30000000000000004"></path><path d="M285.44,202c8.11,14.72,10.56,75.35,8.79,81.06-6.57,21.07-54.44,39.4-71.51,43.27-4.79,1.09-6.7-38.5-1.61-39.79,10-2.54,39-12.53,41-16s7.91-45.74,10.14-63.32C274.09,192.4,281.34,194.54,285.44,202Z" style="fill:#ad6359"></path><path d="M225.52,285.72s-8,.37-15.43,1c-9,.8-30.74,7.07-39,31.05-3.16,9.2,1.91,15.43,6.89,6.46,3.5-6.31,5.39-11,7.11-12.73,0,0,1.82,10.91,7.59,13.7a117.8,117.8,0,0,0,15.57,6.24,23.65,23.65,0,0,0,1.43-2.81,13.46,13.46,0,0,0,14.07-2.82Z" style="fill:#ad6359"></path><path d="M201.54,288.49c-3.43,3.26-10.58,10.28-14.44,18.07-4.28,8.64-10.19,26.45-3.78,29.54,4.71,2.27,7.56-4.33,7.56-4.33s-.89,7.87,3.8,9c4.28,1,6.19-4.21,6.19-4.21s.28,4.87,4.59,5.05c5.18.23,3.75-10,9.2-14.32C215.88,326.31,201.54,288.49,201.54,288.49Z" style="fill:#ad6359"></path><path d="M197,309.55c-2.72,3.6-6.81,13.34-6.22,22.05,0,.2.17.3.19.11a95.12,95.12,0,0,1,6.11-22.12S197,309.51,197,309.55Z" style="fill:#263238"></path><path d="M205.59,314.13c-2,3.34-5.8,13.57-4.9,22.38,0,.2.19.28.21.1a100.68,100.68,0,0,1,4.78-22.45C205.69,314.11,205.62,314.09,205.59,314.13Z" style="fill:#263238"></path><path d="M260.19,272.09c-4.27,2.15-8.64,4.11-13,6s-8.86,3.63-13.38,5.25c-2.25.81-4.53,1.57-6.84,2.25-1.14.36-2.31.65-3.47,1l-.44.12a3,3,0,0,1-.57.08l-.92,0-1.79,0a79.42,79.42,0,0,0-14.14,1.36,42.91,42.91,0,0,0-6.8,1.83,41.63,41.63,0,0,0-6.38,3,50.75,50.75,0,0,0-11.13,8.67,41.25,41.25,0,0,0-8,11.64,37.89,37.89,0,0,0-2.52,6.65,10.8,10.8,0,0,0,.11,7,8.71,8.71,0,0,1-.86-3.49,14.94,14.94,0,0,1,.36-3.59,38.21,38.21,0,0,1,2.24-6.86,42,42,0,0,1,7.82-12.13,48.25,48.25,0,0,1,11.29-9.07,45,45,0,0,1,6.56-3.16,44,44,0,0,1,7-1.95,80.11,80.11,0,0,1,14.4-1.25h2.67a1.31,1.31,0,0,0,.31,0l.43-.11c1.15-.31,2.3-.58,3.44-.93,2.28-.67,4.56-1.36,6.83-2.1,4.53-1.48,9-3.12,13.48-4.84S255.78,273.94,260.19,272.09Z" style="fill:#263238"></path><path d="M260.19,268.23l37.21,11.6s-.67-48.1-8.83-72.2c-6.37-18.82-13.15-18.22-16.95-1.88S260.19,268.23,260.19,268.23Z" style="fill:#BB4B4B"></path><path d="M271.62,205.75c3.8-16.34,10.58-16.94,16.95,1.88,8.16,24.1,8.83,72.2,8.83,72.2l-37.21-11.6S267.82,222.09,271.62,205.75Z" style="fill:#BB4B4B"></path><path d="M294.67,238.6c-.54-2.84-.9-5.67-1.29-8.49s-.76-5.64-1.1-8.51a34.67,34.67,0,0,1,2.1,8.38A40.7,40.7,0,0,1,294.67,238.6Z" style="fill:#263238"></path><path d="M294.15,223.21a6.31,6.31,0,0,1,.27,1.49,9.39,9.39,0,0,1,0,1.5,10.35,10.35,0,0,1-.22,1.48,8,8,0,0,1-.45,1.44c0-1,.1-2,.17-3Z" style="fill:#263238"></path><g style="opacity:0.1"><path d="M264.22,244.62v24.87l-2.08-.65V256.67c.22-1.3.46-2.68.71-4.12.11-.67.23-1.37.35-2.07C263.52,248.6,263.87,246.64,264.22,244.62Z"></path><path d="M274.58,197.2v75.52l-2.07-.65V202.4q.25-.87.54-1.65c.26-.75.53-1.45.81-2.08S274.33,197.65,274.58,197.2Z"></path><path d="M284.94,198.67V276l-2.07-.65V195.89a19.37,19.37,0,0,1,1.87,2.78Z"></path><path d="M295.3,242.19v37l-2.07-.65V228.05l.27,1.71.3,2.07c.39,2.75.73,5.53,1,8.29.08.69.16,1.38.23,2.07Z"></path><path d="M285.83,200.75H273.05c.26-.75.53-1.45.81-2.08h11.08V199C285.24,199.56,285.53,200.13,285.83,200.75Z"></path><path d="M289.65,211.11h-19.2c.15-.72.3-1.41.44-2.08H289C289.24,209.71,289.45,210.4,289.65,211.11Z"></path><path d="M292.08,221.47H268.4c.14-.7.27-1.39.41-2.07h22.86C291.81,220.08,292,220.77,292.08,221.47Z"></path><path d="M293.8,231.83H266.49c.13-.69.25-1.38.38-2.07H293.5Z"></path><path d="M295.07,242.19H264.64c.12-.68.24-1.37.37-2.07h29.83C294.92,240.81,295,241.5,295.07,242.19Z"></path><path d="M296,252.55H262.85c.11-.67.23-1.37.35-2.07h32.66C295.91,251.18,296,251.87,296,252.55Z"></path><path d="M296.73,262.92H261.08c.11-.64.22-1.34.35-2.08h35.18C296.65,261.55,296.69,262.24,296.73,262.92Z"></path><path d="M297.22,273.28H276.39l-1.81-.56-2.07-.65-2.76-.86h27.39C297.17,271.94,297.19,272.63,297.22,273.28Z"></path></g><polygon points="256.52 270.39 298.1 284.31 297.55 282.61 300.2 281.42 299.78 280.13 300.89 276.57 258.87 264.11 259.44 265.9 257.34 267.36 258.06 268.92 256.52 270.39" style="fill:#BB4B4B"></polygon><polygon points="256.52 270.39 298.1 284.31 297.55 282.61 300.2 281.42 299.78 280.13 300.89 276.57 258.87 264.11 259.44 265.9 257.34 267.36 258.06 268.92 256.52 270.39" style="opacity:0.1"></polygon><path d="M260.24,206c4.28-1.24,9.63-10.13,9.28-17,0-.48-2.87-3.88-6.14-8.18-2-2.61-4.1-5.57-5.85-8.41-.36-.58-15.14,15.3-15.14,15.3a53.29,53.29,0,0,1,8.44,9.85,8.17,8.17,0,0,1,.59,1.24c0,.06.05.13.09.21C252.52,201.38,255.66,207.31,260.24,206Z" style="fill:#ad6359"></path><path d="M251.42,198.74c0,.06.06.14.1.21a14.9,14.9,0,0,0,1.88-1c10.34-6.69,5-21.52,3.5-25.18-2.88,2.41-14.52,14.91-14.52,14.91a53.16,53.16,0,0,1,8.45,9.85A8.17,8.17,0,0,1,251.42,198.74Z" style="fill:#263238"></path><path d="M216.41,151s7.39-13,13.62-16.14c3.36-1.68,7.17.86,8.91.78s5.83-2.14,9.68-1,10.17,14.76,9.95,22.21Z" style="fill:#BB4B4B"></path><path d="M216.41,151s7.39-13,13.62-16.14c3.36-1.68,7.17.86,8.91.78s5.83-2.14,9.68-1,10.17,14.76,9.95,22.21Z" style="fill:#fff;opacity:0.4"></path><path d="M238,171.29c-12.52-.51-32.74-7.78-32-14.91.81-7.36,18.21-13.3,34.27-11,16.52,2.31,27.73,9.79,27.22,15.39C266.8,168.53,251.43,171.84,238,171.29Z" style="fill:#BB4B4B"></path><path d="M238,171.29c-12.52-.51-32.74-7.78-32-14.91.81-7.36,18.21-13.3,34.27-11,16.52,2.31,27.73,9.79,27.22,15.39C266.8,168.53,251.43,171.84,238,171.29Z" style="fill:#fff;opacity:0.6000000000000001"></path><path d="M264,160.5a10.56,10.56,0,0,0-.6-2.08l1.37.7c.11,0,.17-.11.09-.18a10.22,10.22,0,0,0-1.75-1.16,11.59,11.59,0,0,0-1.87-2.78,26.41,26.41,0,0,1,3,1.11.1.1,0,0,0,.09-.17,12.8,12.8,0,0,0-3.48-1.39,13.3,13.3,0,0,0-1.77-1.49,0,0,0,0,0,0,.08,14.07,14.07,0,0,1,1.36,1.31,15,15,0,0,0-2.22-.31,9,9,0,0,0-1.31-.87c-.05,0-.1,0-.05.07a8.3,8.3,0,0,1,1,.78,18.49,18.49,0,0,0-2.47,0c-.06,0,0,.09,0,.09a15,15,0,0,1,2.69.08,12.71,12.71,0,0,1,1.86,2.15c-.75-.23-1.51-.43-2.27-.61-.05,0-.08.06,0,.08a16.73,16.73,0,0,1,2.55.9c.48.71.94,1.45,1.41,2.18.07.11.25,0,.19-.12a19.76,19.76,0,0,0-1-1.8c.69.32,1.37.66,2.05,1a19,19,0,0,1,.95,2.42C263.84,160.68,264.06,160.66,264,160.5Zm-3.54-3.85a11.17,11.17,0,0,0-2-2.27,17.56,17.56,0,0,1,2.29.48,14.23,14.23,0,0,1,1.76,2.61A16.39,16.39,0,0,0,260.49,156.65Z" style="fill:#BB4B4B"></path><path d="M213.93,154.73c.12,0,.14-.16,0-.2a5,5,0,0,0-1.38-.41,15.6,15.6,0,0,1,1.32-.93c.13-.08.05-.29-.1-.22a7,7,0,0,0-1.74,1.09,7.42,7.42,0,0,0-2.25.17,13.6,13.6,0,0,1,2-2.13c.11-.1,0-.25-.15-.17a7.58,7.58,0,0,0-2.31,2.44,8.37,8.37,0,0,0-2,.83,0,0,0,0,0,0,.08,8.47,8.47,0,0,1,1.76-.63,9.85,9.85,0,0,0-.63,1.36c-.29,0-.57.08-.84.14-.08,0-.06.13,0,.12.25,0,.5-.05.76-.07a9.13,9.13,0,0,0-.39,1.45.05.05,0,0,0,.1,0,9.65,9.65,0,0,1,.5-1.49,10.73,10.73,0,0,1,1.5,0l.09,0a11.17,11.17,0,0,0-.66,1.29c0,.06.06.09.09,0a8.6,8.6,0,0,1,.81-1.3c.63.08,1.25.23,1.88.29.12,0,.14-.15,0-.2a5.29,5.29,0,0,0-1.7-.4,11.2,11.2,0,0,1,1.4-1.44C212.73,154.53,213.32,154.62,213.93,154.73ZM208.79,156a8.66,8.66,0,0,1,.78-1.4,8.89,8.89,0,0,1,2.06-.13,8.71,8.71,0,0,0-1.17,1.46A9.26,9.26,0,0,0,208.79,156Z" style="fill:#BB4B4B"></path><path d="M247.05,150.06c5.67,5.29,13,25.8,10.83,32.58-3.16,9.83-13.67,16.67-23.37,11.65-9.4-4.86-18.48-31.77-15.55-38.48C223.28,145.93,238.67,142.24,247.05,150.06Z" style="fill:#ad6359"></path><path d="M220.1,169.6c-.16-2.81-.9-7.71,0-9.91s2.39,2.28,5.83,1.95,3.57-6.71,6-9,8.85-.05,10.9,4.07,4.49,9.95,6.54,12.61,8.26,2.05,8.26,2.05-3.93-19.4-14.18-24.44-23.43,2.28-25,8.4S220.1,169.6,220.1,169.6Z" style="fill:#263238"></path><path d="M235.37,171.63c0-.06.13,0,.15.08.46,1.39,1.21,2.91,2.63,2.92,0,0,.06.07,0,.08C236.56,175.05,235.58,173,235.37,171.63Z" style="fill:#263238"></path><path d="M236.08,169.74c2.16-1,3.94,3.41,1.94,4.31S234.27,170.55,236.08,169.74Z" style="fill:#263238"></path><path d="M227.59,175.05s-.08.11-.05.17c.59,1.34,1.05,3,0,3.93a0,0,0,0,0,0,.07C229,178.4,228.37,176.23,227.59,175.05Z" style="fill:#263238"></path><path d="M225.8,174.13c-2.25.72-.64,5.18,1.45,4.51S227.69,173.52,225.8,174.13Z" style="fill:#263238"></path><path d="M237,167a18,18,0,0,1-1.94.09,3.12,3.12,0,0,1-2-.28,1,1,0,0,1-.31-1.19,2.49,2.49,0,0,1,2.22-1.18,3.7,3.7,0,0,1,2.54.67A1.07,1.07,0,0,1,237,167Z" style="fill:#263238"></path><path d="M223.2,172.61a16.17,16.17,0,0,0,1.56-1.16c.6-.45,1.12-.75,1.37-1.49a1,1,0,0,0-.52-1.11,2.48,2.48,0,0,0-2.46.5,3.64,3.64,0,0,0-1.54,2.13A1.07,1.07,0,0,0,223.2,172.61Z" style="fill:#263238"></path><path d="M241.77,183.73c-.2.45-.35,1-.82,1.26a4,4,0,0,1-1.6.25.05.05,0,0,0,0,.1,2,2,0,0,0,2,0,1.55,1.55,0,0,0,.58-1.64C241.91,183.65,241.8,183.66,241.77,183.73Z" style="fill:#263238"></path><path d="M238.68,180.24a5,5,0,0,1-2.25,3.32,6,6,0,0,1-1.63.75,1.43,1.43,0,0,1-.34.09,2.33,2.33,0,0,1-.31.08.37.37,0,0,1-.4-.19h0a.66.66,0,0,1-.05-.15h0l0-.12c-.45-1-1-2.66-1-2.66-.3.34-1.89,2-2.09,1.45-1.57-4.63-3.32-9.78-3.91-14.73a.14.14,0,0,1,.26-.07c1.69,4.4,2.6,9.06,4.22,13.5a8.83,8.83,0,0,1,1.92-1.55c.16,0,1,3.17,1.24,3.62l0,.05c1.85-.49,3-1.56,4.18-3.44C238.57,180.05,238.72,180.1,238.68,180.24Z" style="fill:#263238"></path><path d="M235.2,183.53a6,6,0,0,0,2.89.81,2.77,2.77,0,0,0,1.54-.52c1-.73.59-1.74,0-2.51a6.09,6.09,0,0,0-1-1.1A7.67,7.67,0,0,1,235.2,183.53Z" style="fill:#263238"></path><path d="M238.09,184.34a2.77,2.77,0,0,0,1.54-.52c1-.73.59-1.74,0-2.51A2.77,2.77,0,0,0,238.09,184.34Z" style="fill:#ff98b9"></path><path d="M239.52,178.69a6.19,6.19,0,0,1-7.43-4.59h0a6.18,6.18,0,1,1,8.87,4.05A6.69,6.69,0,0,1,239.52,178.69Zm-6.62-4.78a5.34,5.34,0,1,0,4-6.43,5.11,5.11,0,0,0-1.24.46A5.34,5.34,0,0,0,232.9,173.91Z" style="fill:#BB4B4B"></path><path d="M227.33,183.31c-2.36.9-5.28-.95-6.49-4.13a7.38,7.38,0,0,1-.33-4.49,3.85,3.85,0,0,1,6.15-2.36,7.37,7.37,0,0,1,2.76,3.57c1.15,3,.38,6.14-1.72,7.24Zm-6-8.41a6.53,6.53,0,0,0,.3,4c1,2.75,3.49,4.39,5.43,3.64s2.66-3.58,1.61-6.34a6.57,6.57,0,0,0-2.44-3.17,3.31,3.31,0,0,0-3-.47,1.85,1.85,0,0,0-.29.13A3.39,3.39,0,0,0,221.31,174.9Z" style="fill:#BB4B4B"></path><path d="M232.54,174.7l.27-.78c-1.15-.4-3.55-.62-4.39,1.43l.77.31C229.93,173.83,232.44,174.66,232.54,174.7Z" style="fill:#BB4B4B"></path><path d="M258.8,166.36l.55-.62c-.29-.26-2.86-2.49-4.69-2.11s-11.67,5.28-12.09,5.49l.36.73c2.86-1.41,10.58-5.14,11.9-5.41S258.1,165.74,258.8,166.36Z" style="fill:#BB4B4B"></path><path d="M251.22,168.1s.9-8.41,4.48-8.41,5.25,10.55,2.68,13.54a3.76,3.76,0,0,1-5.38.66Z" style="fill:#ad6359"></path><path d="M256.1,162.73s.1,0,.07.07c-1.76,2.17-1.8,4.93-1.43,7.57a2.07,2.07,0,0,1,2.44-2,.08.08,0,0,1,0,.15,2.33,2.33,0,0,0-1.84,1.94,11.13,11.13,0,0,0-.07,2.38c0,.27-.42.36-.47.08a.13.13,0,0,1,0-.06C253.15,170,253.16,164.73,256.1,162.73Z" style="fill:#263238"></path><path d="M258.48,161.78c-6-3.58-24.35-12.37-40.81-5.53a.13.13,0,0,1-.14,0c-.16,0-.35-.12-.26-.29,1.86-3.76,4.33-7.65,8.28-9.46s9.38-1.53,13.38-1.07c5.57.65,8.5,1.56,12.07,4.16C255.18,152.59,259,162.07,258.48,161.78Z" style="fill:#BB4B4B"></path><g style="opacity:0.6000000000000001"><path d="M258.48,161.78c-6-3.58-24.35-12.37-40.81-5.53a.13.13,0,0,1-.14,0c-.16,0-.35-.12-.26-.29,1.86-3.76,4.33-7.65,8.28-9.46s9.38-1.53,13.38-1.07c5.57.65,8.5,1.56,12.07,4.16C255.18,152.59,259,162.07,258.48,161.78Z" style="fill:#fff"></path></g><path d="M260.15,162.85c-7-4.7-15.72-8.37-24.15-9.26a45.48,45.48,0,0,0-22.3,3.51.06.06,0,0,0,0,.12c7.24-1.84,14.34-3.67,21.88-2.93,8.66.85,16.77,4.78,24.25,9C260.15,163.42,260.42,163,260.15,162.85Z" style="fill:#BB4B4B"></path></g><g id="freepik--watering-can--inject-30"><polygon points="268.13 362.78 268.56 378.76 254.03 384.21 268.13 362.78" style="fill:#BB4B4B"></polygon><polygon points="299.66 394.97 305.6 416.85 264.3 380.38 268.43 375.95 299.66 394.97" style="fill:#BB4B4B"></polygon><polygon points="299.66 394.97 305.6 416.85 264.3 380.38 268.43 375.95 299.66 394.97" style="opacity:0.2"></polygon><path d="M339.26,412.33s8.78,3.37,14.23-.28c17-11.32,10.57-58.54,2.46-58.29s-21.56,26.66-21.56,26.66Zm1.27-4.23-3.79-24.85s11.38-23,17.69-23.24,10.42,39.06-2.83,47.87C347.36,410.71,340.53,408.1,340.53,408.1Z" style="fill:#BB4B4B"></path><polygon points="291.38 427.72 344.55 427.79 335.99 349.05 301.87 349.3 291.38 427.72" style="fill:#BB4B4B"></polygon><polygon points="335.99 349.05 341.44 343.32 297.83 342.8 301.87 349.3 335.99 349.05" style="fill:#BB4B4B"></polygon><polygon points="335.99 349.05 341.44 343.32 297.83 342.8 301.87 349.3 335.99 349.05" style="opacity:0.2"></polygon><path d="M321.57,372.54c-17.88-3.81-23.82,24-5.92,27.78S339.47,376.35,321.57,372.54Z" style="fill:#fff"></path><path d="M324,385.41a28.58,28.58,0,0,1-5.24,8.65c-.24.27-4.37-5.12-5.59-7.82-.64-1.43-1.52-4.59-.08-5.91,2.68-2.48,4.89,3.67,5.66,7.08.43-3.72,1.89-10.79,5.3-8C325.64,380.71,324.58,384,324,385.41Z" style="fill:#BB4B4B"></path></g><g id="freepik--garden-trowel--inject-30"><path d="M241.45,456.12c.36.13-1.66-27.29-1.72-28.31,0,0-23-3.85-28.24-2.56-2.38.58-17.81,7.47-18,10.56-.25,3.92,9.41,11.3,18.08,15.5C219.08,454.94,240.8,455.89,241.45,456.12Z" style="fill:#a6a6a6"></path><path d="M251.41,444.82c.08,0-.24-5.82-.26-6,0,0-26.18-3-27.3-2.71-.51.13-3.81,1.67-3.84,2.34,0,.84,2.07,2.39,4,3.26C225.59,442.43,251.27,444.78,251.41,444.82Z" style="fill:#dbdbdb"></path><path d="M279.11,439.63c-10.09-1.25-28-.85-28-.85l.25,6.05s18.42,3.41,26.7,4.53S289.19,440.87,279.11,439.63Zm.42,7A2.12,2.12,0,1,1,282,445,2.12,2.12,0,0,1,279.53,446.67Z" style="fill:#BB4B4B"></path></g></svg>