<svg xmlns="http://www.w3.org/2000/svg" viewBox="0 0 500 500"><g id="freepik--background-complete--inject-81"><rect x="336.23" y="242.21" width="53.52" height="14.16" style="fill:#ebebeb"></rect><path d="M367.11,271.28s0-.1,0-.26l0-.73c0-.66,0-1.59,0-2.78,0-2.45-.05-6-.09-10.39l.16.16-53.51.11.27-.27h0v7.17q0,3.56,0,7l-.27-.27,38.14.12,11.26.08,3.05,0,.79,0,.28,0h-.24l-.77,0-3,0-11.2.07-38.33.12h-.26v-.26c0-2.28,0-4.6,0-7v-7.17h0c.55-.55.15-.15.28-.27l53.51.1h.17v.17c0,4.47-.07,8-.09,10.49,0,1.17,0,2.09,0,2.75,0,.28,0,.51,0,.69S367.12,271.28,367.11,271.28Z" style="fill:#e0e0e0"></path><rect x="70.9" y="94.17" width="53.52" height="14.16" style="fill:#f5f5f5"></rect><path d="M101.79,123.24a1.46,1.46,0,0,1,0-.26c0-.19,0-.43,0-.73,0-.66,0-1.59,0-2.78,0-2.45-.06-6-.1-10.39l.17.17-53.52.1.27-.27h0v14.14l-.27-.27,38.14.12,11.26.08,3,0,.8,0,.28,0-.25,0h-.76l-3,0-11.19.07-38.33.12H48V109.1h0c.54-.55.15-.15.27-.27l53.52.1H102v.17c0,4.47-.07,8-.1,10.49,0,1.17,0,2.09,0,2.75,0,.28,0,.51,0,.69A.94.94,0,0,1,101.79,123.24Z" style="fill:#e0e0e0"></path><rect x="373.51" y="137.04" width="53.52" height="14.16" style="fill:#e0e0e0"></rect><path d="M442.88,137s0-.09,0-.26l0-.72c0-.67,0-1.6,0-2.79,0-2.44-.05-6-.09-10.39l.16.17-53.51.1c.12-.12-.28.28.26-.27h0V137l-.27-.27,38.14.13,11.26.07,3,0h.8l.28,0a1,1,0,0,1-.25,0l-.76,0-3,0-11.19.08-38.33.12h-.26V137q0-3.42,0-7v-7.19h0c.54-.54.15-.15.28-.27l53.51.11h.17v.16c0,4.47-.07,8-.09,10.49,0,1.17,0,2.09,0,2.75,0,.28,0,.51,0,.7S442.89,137.05,442.88,137Z" style="fill:#e0e0e0"></path><path d="M340.85,70.79a1.33,1.33,0,0,1,0-.26c0-.19,0-.42,0-.72,0-.67,0-1.6,0-2.79,0-2.44,0-6-.09-10.39l.17.17-53.52.1c.12-.12-.27.28.27-.27h0v7.19q0,3.54,0,7l-.26-.27,38.14.13,11.25.07,3,0h.8l.28,0-.25,0-.76,0-3,0-11.2.08-38.32.12h-.27V63.83c0-1.19,0-2.38,0-3.58V56.64h0l.28-.27,53.52.11H341v.16c0,4.47-.07,8-.09,10.49,0,1.17,0,2.09,0,2.75,0,.28,0,.51,0,.7A1.57,1.57,0,0,1,340.85,70.79Z" style="fill:#e0e0e0"></path><path d="M348.1,56.63s0-.1,0-.27,0-.45,0-.75c0-.69,0-1.64-.05-2.84,0-2.48-.06-6-.1-10.3l.19.2L316,42.75c-.25.24.33-.34.27-.27h0v7.27q0,3.56,0,6.86l-.26-.26,23,.13,6.7.07,1.81,0,.64,0a4,4,0,0,1-.58,0l-1.75,0-6.64.07L316,56.89h-.26v-.26q0-3.3,0-6.86V42.5h0c-.06.05.52-.52.28-.28l32.15.08h.2v.19c0,4.37-.08,7.91-.11,10.42,0,1.18,0,2.11,0,2.8A6.28,6.28,0,0,1,348.1,56.63Z" style="fill:#e0e0e0"></path><path d="M104.85,262.31s0-.09,0-.25,0-.43,0-.73c0-.67,0-1.6,0-2.79,0-2.44,0-6-.09-10.38l.16.16-53.51.11c.12-.12-.28.27.26-.27h0v14.13l-.27-.26,38.14.12,11.26.07,3,0,.8,0h.28s-.08,0-.25,0l-.76,0-3,0-11.19.08-38.33.12h-.26v-.27c0-2.27,0-4.6,0-7v-7.17h0l.28-.28,53.51.11H105v.17c0,4.47-.07,8-.09,10.48,0,1.18,0,2.09,0,2.75,0,.29,0,.52,0,.7S104.86,262.32,104.85,262.31Z" style="fill:#ebebeb"></path><path d="M112.11,248.15a.76.76,0,0,1,0-.26c0-.21,0-.45,0-.75,0-.7,0-1.65,0-2.84,0-2.49-.06-6-.11-10.3l.2.19L80,234.27l.27-.27h0v7.27c0,2.37,0,4.66,0,6.86L80,247.9l23,.12,6.7.07,1.8,0,.65,0a2.27,2.27,0,0,1-.59,0l-1.75,0-6.64.07L80,248.41h-.26v-.27q0-3.3,0-6.86V234h0c-.06.06.52-.52.27-.28l32.16.08h.2v.2c0,4.36-.08,7.9-.1,10.42,0,1.17,0,2.1,0,2.79A7.82,7.82,0,0,1,112.11,248.15Z" style="fill:#ebebeb"></path><path d="M439.77,219.72s-7-1.65-8.93,14.38-1.65,24.78-1.65,24.78-.78,3.49-3.4,2.36-7.21-5.4-10.17-3.24-2.78,6.48-.06,11.85,8.24,17.38,8.74,18.46.45,2.92-1.46,2.43-14.28-7-17-1,7.29,19.79,8.35,21.31,1,2.37.36,3.08-4.6-1.88-8.19-3.6-8.07-3.07-9.36.55,2.2,15.42,20,30.09l8.72,6.26,9.89-4.28c20.6-10.44,26.58-21.19,26.1-25s-5.13-3.47-9-2.57-8.3,2.56-8.78,1.73-.36-1.68,1-2.93,14.15-12.47,12.78-19-14.87-2.82-16.84-2.76-1.6-1.75-.89-2.68,8.72-11.47,12.55-16.12,5-8.74,2.51-11.59-7.82.42-10.63,1-2.81-3-2.81-3,2.16-8.48,3.78-24.55-5.78-15.93-5.78-15.93" style="fill:#ebebeb"></path><path d="M424.79,349.86c1.23-11.79,3.78-32.71,5.87-50.69s4-34.23,5.27-46l1.52-14c.18-1.63.32-2.91.42-3.79.05-.43.09-.75.11-1s0-.33,0-.33,0,.11,0,.33,0,.57-.09,1c-.08.89-.2,2.17-.35,3.81-.31,3.3-.79,8.07-1.41,14-1.24,11.79-3.08,28.06-5.18,46s-4.68,38.89-6,50.68" style="fill:#e0e0e0"></path><path d="M421.8,264.23a2.81,2.81,0,0,1,.51.59c.31.39.74,1,1.26,1.68,1.05,1.45,2.45,3.47,3.95,5.74s2.81,4.26,3.82,5.81l1.17,1.76a3.55,3.55,0,0,1,.41.66,3.74,3.74,0,0,1-.51-.59c-.31-.39-.74-1-1.26-1.69-1-1.45-2.4-3.5-3.91-5.77l-3.86-5.78-1.18-1.75A3.77,3.77,0,0,1,421.8,264.23Z" style="fill:#e0e0e0"></path><path d="M433.91,280.31c-.06-.08,4-3.14,9-6.85s9.2-6.65,9.25-6.57-4,3.14-9,6.84S434,280.38,433.91,280.31Z" style="fill:#e0e0e0"></path><path d="M429.45,307.76a3.63,3.63,0,0,1,.73-.31l2-.73c1.71-.63,4.06-1.5,6.62-2.56s4.85-2.08,6.5-2.84l2-.9a3.85,3.85,0,0,1,.73-.3,3,3,0,0,1-.67.41c-.45.25-1.1.59-1.91,1-1.63.82-3.91,1.89-6.48,2.94s-4.94,1.9-6.67,2.47c-.87.28-1.57.5-2.06.64A3.47,3.47,0,0,1,429.45,307.76Z" style="fill:#e0e0e0"></path><path d="M415.3,295.62a4.47,4.47,0,0,1,.6.42l1.56,1.24c1.31,1.05,3.1,2.53,5.07,4.17s3.74,3.15,5,4.25c.58.52,1.08,1,1.49,1.31a3.3,3.3,0,0,1,.52.52,2.77,2.77,0,0,1-.61-.42l-1.56-1.23c-1.3-1.06-3.1-2.53-5.07-4.17s-3.73-3.15-5-4.25l-1.49-1.32C415.47,295.83,415.28,295.64,415.3,295.62Z" style="fill:#e0e0e0"></path><path d="M408.28,319.36a4.88,4.88,0,0,1,.77.54l2,1.58c1.69,1.34,4,3.21,6.54,5.29s4.83,4,6.48,5.38L426,333.8a5.31,5.31,0,0,1,.68.65,5.56,5.56,0,0,1-.77-.55l-2-1.57c-1.69-1.34-4-3.22-6.54-5.3s-4.83-4-6.48-5.37L409,320A4.94,4.94,0,0,1,408.28,319.36Z" style="fill:#e0e0e0"></path><path d="M426.35,334a5.5,5.5,0,0,1,.92-.41l2.53-1c2.13-.87,5.08-2.08,8.29-3.51s6.09-2.79,8.17-3.79l2.46-1.19a5.41,5.41,0,0,1,.92-.4,6.79,6.79,0,0,1-.86.52c-.56.31-1.39.75-2.41,1.28-2.06,1.06-4.92,2.46-8.14,3.89s-6.19,2.61-8.35,3.42c-1.08.41-2,.72-2.57.93A5.55,5.55,0,0,1,426.35,334Z" style="fill:#e0e0e0"></path><path d="M335.47,334.21a10.86,10.86,0,0,1,8.35,1.72,19.19,19.19,0,0,1,5.8,6.47c2.87,4.88,3.72,11.33,3.67,17-6.26-.46-11.46-5.56-13.94-8.32-3.91-4.35-8.33-14.6-3.88-16.85" style="fill:#f5f5f5"></path><path d="M363.26,363.49a9.28,9.28,0,0,1-2.91-8.86,12.38,12.38,0,0,1,5.57-7.74,5.18,5.18,0,0,1,4.27-1,4,4,0,0,1,2.47,3.18,8.11,8.11,0,0,1-.62,4.14c-1.73,4.52-4.24,8.57-8.78,10.24" style="fill:#f5f5f5"></path><path d="M366.59,377.25a18.11,18.11,0,0,1-1.7-3.33,16.89,16.89,0,0,1-1.17-3.92,38.17,38.17,0,0,1-.66-4.94,18.68,18.68,0,0,1,1.62-8.89,13.6,13.6,0,0,1,1.45-2.34c.42-.5.67-.76.71-.73s-.85,1.16-1.75,3.26A19.84,19.84,0,0,0,363.7,365a43.21,43.21,0,0,0,.6,4.87,19.3,19.3,0,0,0,1,3.85A26.73,26.73,0,0,1,366.59,377.25Z" style="fill:#e0e0e0"></path><path d="M339.52,341.71a11,11,0,0,1,1.29,1.4c.79.92,1.92,2.27,3.3,3.95,2.76,3.36,6.52,8,10.55,13.32s7.53,10.15,10,13.74c1.23,1.79,2.21,3.25,2.87,4.27a10.73,10.73,0,0,1,1,1.63,11.64,11.64,0,0,1-1.18-1.49l-3-4.16c-2.55-3.51-6.12-8.34-10.14-13.61l-10.39-13.42c-1.28-1.66-2.33-3-3.15-4.08A11.44,11.44,0,0,1,339.52,341.71Z" style="fill:#e0e0e0"></path><path d="M358.85,369.51a21.77,21.77,0,0,0-19.64-2.93c-1.66.58-3.47,1.68-3.56,3.43s1.6,3.05,3.2,3.76a18.55,18.55,0,0,0,20.24-3.85" style="fill:#f5f5f5"></path><path d="M343.53,369.35a3,3,0,0,1,1-.3c.62-.16,1.53-.34,2.66-.52a24.51,24.51,0,0,1,8.93.13,15.52,15.52,0,0,1,4.6,1.88,14.83,14.83,0,0,1,4.73,4.79c.33.54.5.85.46.88s-.85-1.14-2.42-2.75a15.14,15.14,0,0,0-7.51-4.18,27.91,27.91,0,0,0-8.74-.31A30.25,30.25,0,0,1,343.53,369.35Z" style="fill:#e0e0e0"></path></g><g id="freepik--Character--inject-81"><path d="M257.33,209.32s11.28,2.7,12.41,3.46,7.51,8.82,7.52,9.68,1.76,12.59,0,11.75-2.86-9.05-2.86-9.05l-.86-.87s1.14,7,.79,8.71-2.06,1.62-2.34.36-1.06-7.45-1.41-7.72.51,6.84.32,7.7c-.25,1.15-1.94,1.81-2.25.57-.19-.74-.63-7.56-.63-7.56a57.75,57.75,0,0,1-.57,6.22,1,1,0,0,1-1.87-.41c-.08-.79.44-4.87.33-5.93,0,0-.55-.85-2.7-1.07-1-.11-7.06-.1-8.07-3.4-.89-2.92-4.22-5-4.22-5Z" style="fill:#b78876"></path><path d="M277.25,234.2a5.49,5.49,0,0,1-1.22-1.84,12.35,12.35,0,0,1-.85-2.26c-.19-.88-.36-1.85-.55-2.87-.13-.75-.26-1.48-.37-2.17l.05.12a30.35,30.35,0,0,1-3.08-4.29,30.35,30.35,0,0,1,3.49,4l0,0V225c.13.68.26,1.4.4,2.15.18,1,.34,1.94.5,2.85a15.34,15.34,0,0,0,.71,2.22C276.89,233.44,277.32,234.15,277.25,234.2Z" style="fill:#aa6550"></path><path d="M259.87,213.29a2.32,2.32,0,0,0,.85,2.58c.74.63,1.67,1,2.45,1.58,2.33,1.73,3,5.11,5.44,6.73.33.22.82.4,1.11.12s.16-.71,0-1.06l-3.23-9.08" style="fill:#b78876"></path><path d="M266.53,214.16a4.05,4.05,0,0,1,.45,1c.26.62.61,1.52,1,2.64s.93,2.5,1.47,3.95l.42,1.15a1.89,1.89,0,0,1,.16,1.43.8.8,0,0,1-.8.43,1.6,1.6,0,0,1-.74-.26,6.4,6.4,0,0,1-1.09-.92,37.5,37.5,0,0,1-2.91-4.29,7.36,7.36,0,0,0-1.47-1.6c-.54-.41-1.13-.71-1.64-1a3.38,3.38,0,0,1-1.75-2.27,1.23,1.23,0,0,1,.21-1,2.64,2.64,0,0,0,0,1,3.26,3.26,0,0,0,1.75,2c.5.3,1.1.58,1.7,1a7.49,7.49,0,0,1,1.61,1.66,44.09,44.09,0,0,0,2.9,4.21,5.46,5.46,0,0,0,1,.83c.33.22.7.26.77.06s0-.63-.18-1l-.39-1.15c-.5-1.46-1-2.8-1.36-4s-.68-2.06-.87-2.7A3.37,3.37,0,0,1,266.53,214.16Z" style="fill:#aa6550"></path><polygon points="229.94 205.71 253.17 218.62 258.35 209.56 227.08 184.77 229.94 205.71" style="fill:#b78876"></polygon><polygon points="177.14 240.71 266.58 192.75 254.73 171.51 317.68 178.31 290.7 235.28 279.09 214.46 189.34 262.58 177.14 240.71" style="fill:#B95555"></polygon><polygon points="177.14 240.71 266.58 192.75 254.73 171.51 317.68 178.31 290.7 235.28 279.09 214.46 189.34 262.58 177.14 240.71" style="opacity:0.6000000000000001"></polygon><polygon points="173.26 243.05 265.83 201.46 255.49 179.44 317.81 190.62 286.93 245.57 276.79 223.99 183.9 265.73 173.26 243.05" style="fill:#B95555"></polygon><path d="M177,409.65l-4.79,40,50.68,1.12c-.19-4.84-28.31-15-28.31-15l5.37-26.64Z" style="fill:#B95555"></path><path d="M181.05,433.08a2.08,2.08,0,0,0-1.48,2.33,2,2,0,0,0,2.3,1.49,2.19,2.19,0,0,0,1.56-2.47,2.07,2.07,0,0,0-2.57-1.29" style="fill:#fff"></path><path d="M172.2,449.64l.23-4.1,48.51,2.61s2.23,1,1.94,2.61Z" style="fill:#263238"></path><path d="M195.33,436.22c0,.25-1.26.33-2.49,1.1s-1.91,1.8-2.13,1.69.17-1.52,1.68-2.42S195.38,436,195.33,436.22Z" style="fill:#263238"></path><path d="M201.92,438.67c.05.24-1,.64-1.9,1.67s-1.13,2.12-1.37,2.11-.38-1.42.72-2.68S201.92,438.43,201.92,438.67Z" style="fill:#263238"></path><path d="M204.69,444.85c-.22,0-.54-1.19.13-2.53s1.83-1.86,1.93-1.65-.63.92-1.16,2S204.94,444.83,204.69,444.85Z" style="fill:#263238"></path><path d="M195.08,429.43c-.11.22-1.24-.14-2.64-.08s-2.5.48-2.62.27.94-1.08,2.59-1.13S195.2,429.24,195.08,429.43Z" style="fill:#263238"></path><path d="M196.11,423.37a4.84,4.84,0,0,1-2.54-.07,11.9,11.9,0,0,1-2.64-.87,12.38,12.38,0,0,1-1.44-.81,3,3,0,0,1-.75-.61,1.09,1.09,0,0,1-.09-1.32,1.37,1.37,0,0,1,1.1-.54,3.26,3.26,0,0,1,.95.15,9.1,9.1,0,0,1,1.57.58,9,9,0,0,1,2.3,1.58c1.16,1.12,1.54,2.05,1.45,2.1s-.67-.71-1.85-1.64a9.65,9.65,0,0,0-2.23-1.32,9.13,9.13,0,0,0-1.45-.48c-.53-.16-1-.17-1.13.07-.05.09-.06.12,0,.28a2.21,2.21,0,0,0,.55.45,13.39,13.39,0,0,0,1.33.8,14.64,14.64,0,0,0,2.43,1A18.82,18.82,0,0,1,196.11,423.37Z" style="fill:#263238"></path><path d="M195.78,423.72a4.07,4.07,0,0,1-.62-2.47,8.19,8.19,0,0,1,1.09-4.29,2.09,2.09,0,0,1,1.65-1.25,1.17,1.17,0,0,1,1,.73,3.34,3.34,0,0,1,.24.94,5.74,5.74,0,0,1,0,1.71,6,6,0,0,1-1.14,2.59c-1,1.29-2.06,1.57-2.08,1.48s.79-.58,1.58-1.83a5.93,5.93,0,0,0,.85-2.36,5.57,5.57,0,0,0,0-1.47c-.07-.54-.26-1-.47-.93s-.69.39-.9.81a8.48,8.48,0,0,0-.66,1.36,9.06,9.06,0,0,0-.55,2.52C195.67,422.75,195.92,423.68,195.78,423.72Z" style="fill:#263238"></path><path d="M256.12,372.55l-.29,40.66,50.69,1.12c-.2-4.84-28.32-15-28.32-15l.87-27.31Z" style="fill:#B95555"></path><path d="M264.69,396.66A2.07,2.07,0,0,0,263.2,399a2,2,0,0,0,2.3,1.49,2.17,2.17,0,0,0,1.56-2.47,2.07,2.07,0,0,0-2.56-1.29" style="fill:#fff"></path><path d="M255.83,413.21V409.1l48.74,2.62s2.23,1,1.95,2.61Z" style="fill:#263238"></path><path d="M279,399.79c0,.25-1.26.34-2.49,1.1s-1.91,1.8-2.13,1.7.17-1.53,1.68-2.43S279,399.57,279,399.79Z" style="fill:#263238"></path><path d="M285.55,402.24c.05.24-1,.64-1.89,1.67s-1.13,2.13-1.38,2.11-.37-1.42.72-2.68S285.55,402,285.55,402.24Z" style="fill:#263238"></path><path d="M288.33,408.42c-.23.05-.55-1.19.12-2.53s1.83-1.86,1.93-1.65-.63.92-1.16,2S288.57,408.4,288.33,408.42Z" style="fill:#263238"></path><path d="M278.71,393c-.11.22-1.24-.14-2.64-.08s-2.5.48-2.62.27.94-1.08,2.59-1.13S278.84,392.81,278.71,393Z" style="fill:#263238"></path><path d="M279.74,386.94a4.84,4.84,0,0,1-2.54-.07,11.19,11.19,0,0,1-2.63-.87,12.48,12.48,0,0,1-1.45-.81,3,3,0,0,1-.75-.61,1.07,1.07,0,0,1-.08-1.32,1.35,1.35,0,0,1,1.09-.54,3.57,3.57,0,0,1,.95.15,9.12,9.12,0,0,1,3.88,2.16c1.15,1.12,1.53,2.05,1.44,2.1s-.67-.71-1.84-1.63a10.35,10.35,0,0,0-2.24-1.33,8.8,8.8,0,0,0-1.45-.48c-.53-.15-1-.17-1.13.07s-.06.12.05.28a2.41,2.41,0,0,0,.55.45,14.65,14.65,0,0,0,1.33.8,13.82,13.82,0,0,0,2.43,1A18.82,18.82,0,0,1,279.74,386.94Z" style="fill:#263238"></path><path d="M279.41,387.29a4,4,0,0,1-.61-2.47,8.09,8.09,0,0,1,.4-2.77,8.45,8.45,0,0,1,.68-1.52,2.1,2.1,0,0,1,1.65-1.25,1.2,1.2,0,0,1,1,.73,3.42,3.42,0,0,1,.24.94,5.74,5.74,0,0,1,0,1.71,5.85,5.85,0,0,1-1.14,2.59c-1,1.3-2.06,1.57-2.08,1.48s.79-.58,1.58-1.83a5.64,5.64,0,0,0,.85-2.36,5.18,5.18,0,0,0,0-1.47c-.07-.54-.26-1-.47-.93s-.68.39-.9.82a7.74,7.74,0,0,0-.66,1.36,9.27,9.27,0,0,0-.55,2.52C279.3,386.32,279.55,387.25,279.41,387.29Z" style="fill:#263238"></path><path d="M228.61,230.94c-.37,1.83-3.65,48.17-5.84,65.32S203,425.19,203,425.19l-32-2.11s10.21-118.79,10.94-128.65-6.65-48.53-3.32-58.74,8.71-14.36,8.71-14.36l18.33-6.08,23,3.29Z" style="fill:#263238"></path><path d="M285.55,384.93s2.55-75,0-85.17-61-65.17-61-65.17L216,283.12s21.46,16.23,37.31,28.91l-1.72,72.9Z" style="fill:#263238"></path><path d="M228.3,238.11a1,1,0,0,1,0,.25c0,.2,0,.44,0,.73,0,.69-.09,1.63-.15,2.81-.13,2.44-.38,6-.73,10.32-.71,8.71-1.91,20.72-3.53,34s-3.29,25.19-4.61,33.83c-.66,4.32-1.23,7.8-1.64,10.21-.2,1.17-.37,2.1-.49,2.77l-.14.72a.81.81,0,0,1-.06.24.67.67,0,0,1,0-.25q0-.29.09-.72.15-1,.39-2.79c.36-2.46.86-5.95,1.47-10.24,1.23-8.64,2.85-20.6,4.46-33.83s2.88-25.22,3.68-33.92c.4-4.35.71-7.87.9-10.3.1-1.19.18-2.12.24-2.8,0-.3.06-.54.08-.73A1,1,0,0,1,228.3,238.11Z" style="fill:#455a64"></path><path d="M271.14,301.25a25.12,25.12,0,0,1-2.87,1.41c-1.78.85-4.2,2.1-6.77,3.65s-4.78,3.15-6.36,4.33a24.37,24.37,0,0,1-2.58,1.9s.19-.25.59-.64,1-.91,1.76-1.55a56.32,56.32,0,0,1,6.32-4.48,54.42,54.42,0,0,1,6.89-3.54c.92-.39,1.66-.68,2.19-.85A3,3,0,0,1,271.14,301.25Z" style="fill:#455a64"></path><path d="M276.05,308.61a25.5,25.5,0,0,1-3.52.52c-2.18.27-5.18.64-8.49,1.12s-6.29,1-8.46,1.31a25.41,25.41,0,0,1-3.52.49,4,4,0,0,1,.92-.28c.59-.15,1.46-.35,2.54-.57,2.14-.45,5.13-1,8.45-1.47s6.33-.79,8.52-1c1.1-.09,2-.14,2.6-.16A3.64,3.64,0,0,1,276.05,308.61Z" style="fill:#455a64"></path><path d="M186.13,92a10.94,10.94,0,0,0-5.72-5,7.34,7.34,0,0,0-7.28,1.35,5.56,5.56,0,0,0-.87,7.07,7.67,7.67,0,1,0,3.59,13.53,5.73,5.73,0,0,0,9.26,3.07c3.76-3.16,2.64-10.17,6.87-12.69" style="fill:#263238"></path><path d="M191.73,66.34c1.12-3.46,6.87-6.59,10-8.4,4.71-2.71,9.08-2.17,11.77.24,4.87-4.08,11.28-8,17.42-6.4s11.14,7.9,10,14.16c-.66,3.68-3.22,7-3.07,10.73.1,2.55,1.45,4.85,2.53,7.16s1.9,5,1,7.37c-.9,2.2-3.12,3.58-4.32,5.63-1,1.66-1.21,3.65-1.83,5.48-2.32,6.79-10.32,10.59-17.39,9.4s-13-6.51-16.29-12.86-4.44-13.62-4.83-20.78" style="fill:#263238"></path><path d="M197,71.24l1.41,56.55,25.37-2.34c-.43-6.88-.74-14.13-.74-14.13s8.76-2,9.85-13.73c.56-6-.41-15.79-1.43-23.59A11.6,11.6,0,0,0,218,64.07" style="fill:#b78876"></path><path d="M223,111.17A29.51,29.51,0,0,1,207.22,108s4.38,7.78,15.88,5.95Z" style="fill:#aa6550"></path><path d="M214.61,75.75c-.13.44-1.74.34-3.59.69s-3.34,1-3.62.58c-.12-.18.12-.6.7-1.06a6.11,6.11,0,0,1,2.64-1.12,6,6,0,0,1,2.85.15C214.3,75.22,214.66,75.54,214.61,75.75Z" style="fill:#263238"></path><path d="M228.13,74.65c-.26.38-1.38.07-2.71.14s-2.42.4-2.7,0c-.13-.18,0-.55.49-.93a3.77,3.77,0,0,1,2.16-.73,3.67,3.67,0,0,1,2.2.59C228.06,74.1,228.24,74.46,228.13,74.65Z" style="fill:#263238"></path><path d="M215.46,88.78a.42.42,0,1,1-.42-.42A.42.42,0,0,1,215.46,88.78Z" style="fill:#aa6550"></path><path d="M227.44,86.71a.42.42,0,1,1-.42-.43A.42.42,0,0,1,227.44,86.71Z" style="fill:#aa6550"></path><path d="M229.78,87.81a.42.42,0,1,1-.42-.42A.42.42,0,0,1,229.78,87.81Z" style="fill:#aa6550"></path><path d="M230.5,86a.43.43,0,1,1-.43-.42A.42.42,0,0,1,230.5,86Z" style="fill:#aa6550"></path><path d="M213.52,90.65a.42.42,0,0,1-.42.43.43.43,0,0,1,0-.85A.42.42,0,0,1,213.52,90.65Z" style="fill:#aa6550"></path><path d="M211.94,89a.43.43,0,1,1-.43-.42A.42.42,0,0,1,211.94,89Z" style="fill:#aa6550"></path><path d="M217.41,62.27c-1,9.21-7.57,20.55-16.41,23.35-8.39-2-2.48,6.46-2.41,13,.07,6.07,3.3,10.22-.63,13.31-3.25.79-5.13-8.11-7.54-10.6s-4.72-5.55-4.54-9c.08-1.62.71-3.17.8-4.79a23.51,23.51,0,0,0-.79-5.31,20.26,20.26,0,0,1,9.47-20.34,22.24,22.24,0,0,1,22.68.37" style="fill:#263238"></path><path d="M187,86.65a1.66,1.66,0,0,1-.29-.32,3.31,3.31,0,0,1-.53-1.13,6.65,6.65,0,0,1,.67-4.49,8.55,8.55,0,0,1,1.84-2.58,17.29,17.29,0,0,1,2.78-2.37A15,15,0,0,1,195,74c1.32-.45,2.72-.8,4.15-1.16s2.82-.71,4.13-1.17A25.39,25.39,0,0,0,207,70a27.24,27.24,0,0,0,8.61-7.21c.34-.42.58-.77.75-1a3.66,3.66,0,0,1,.27-.35,1.93,1.93,0,0,1-.23.38c-.15.23-.38.59-.71,1a25,25,0,0,1-3.05,3.41,26.64,26.64,0,0,1-5.53,4,25.71,25.71,0,0,1-3.68,1.62c-1.32.46-2.72.82-4.15,1.18s-2.83.7-4.14,1.15A14.35,14.35,0,0,0,191.55,76a17.13,17.13,0,0,0-2.75,2.31A8.69,8.69,0,0,0,187,80.79a6.64,6.64,0,0,0-.74,4.38A3.89,3.89,0,0,0,187,86.65Z" style="fill:#455a64"></path><path d="M216.59,61.49a1.87,1.87,0,0,1-.24.3l-.73.79a32,32,0,0,1-3,2.68,20.27,20.27,0,0,1-5,3,19.23,19.23,0,0,1-3.38.92c-1.18.23-2.42.42-3.69.61a41.62,41.62,0,0,0-7,1.48,15.52,15.52,0,0,0-5.09,2.81A10,10,0,0,0,186,77.19c-.2.42-.35.75-.43,1l-.14.35a1.6,1.6,0,0,1,.09-.36,6.56,6.56,0,0,1,.38-1A9.72,9.72,0,0,1,188.31,74a15.17,15.17,0,0,1,5.13-2.9,39.84,39.84,0,0,1,7.07-1.51c1.27-.19,2.5-.38,3.68-.61a19.41,19.41,0,0,0,3.34-.89,20.81,20.81,0,0,0,5-3,36.28,36.28,0,0,0,3-2.6l.77-.76Z" style="fill:#455a64"></path><path d="M229.54,51.41c0,.06-1,.09-2.54.5-.39.11-.8.23-1.24.4s-.9.37-1.38.58a15.59,15.59,0,0,0-5.31,4.22c-.32.42-.63.81-.88,1.21a9.83,9.83,0,0,0-.66,1.12c-.75,1.41-1,2.38-1.07,2.36a3.42,3.42,0,0,1,.18-.68,5.57,5.57,0,0,1,.27-.77A14.37,14.37,0,0,1,218,58.2a14.16,14.16,0,0,1,.87-1.24,15.79,15.79,0,0,1,2.45-2.46,16.12,16.12,0,0,1,2.95-1.83,14.37,14.37,0,0,1,1.41-.57c.44-.16.87-.27,1.26-.37s.76-.15,1.07-.21a5.65,5.65,0,0,1,.82-.09A3.4,3.4,0,0,1,229.54,51.41Z" style="fill:#455a64"></path><path d="M237.75,95.43s0,0,.07-.1l.25-.28c.21-.25.53-.61.89-1.12a6.31,6.31,0,0,0,1-2,3.45,3.45,0,0,0,.1-1.37,3.74,3.74,0,0,0-.52-1.45,25.21,25.21,0,0,0-2.28-2.82,16.42,16.42,0,0,1-2.18-3.59,16.23,16.23,0,0,1-1.26-4.46,34.19,34.19,0,0,1-.13-5,17,17,0,0,0-.45-4.88A10,10,0,0,0,227.75,62a9.37,9.37,0,0,0-3.49-.8,10.17,10.17,0,0,0-5.06,1.11,11.36,11.36,0,0,0-1.22.73l-.31.22-.11.07a7,7,0,0,1,1.59-1.11,10.16,10.16,0,0,1,5.11-1.21,9.48,9.48,0,0,1,3.58.79,10.26,10.26,0,0,1,5.69,6.49,17.68,17.68,0,0,1,.46,5,34.85,34.85,0,0,0,.12,4.93,15.88,15.88,0,0,0,1.23,4.4,16.2,16.2,0,0,0,2.12,3.55A26.24,26.24,0,0,1,239.73,89a3.94,3.94,0,0,1,.53,1.53,3.53,3.53,0,0,1-.13,1.43,6.38,6.38,0,0,1-1.08,2c-.39.49-.72.85-.94,1.08l-.27.27Z" style="fill:#455a64"></path><path d="M187.56,87.3s-.05,0-.13,0l-.35-.19a9.75,9.75,0,0,1-1.27-.87,10.74,10.74,0,0,1-3.28-4.57,10.6,10.6,0,0,1,3.59-12.05,14.92,14.92,0,0,1,4.78-2.35,27.39,27.39,0,0,1,5.25-1c1.71-.16,3.36-.24,4.93-.35a41.49,41.49,0,0,0,4.44-.5,19.93,19.93,0,0,0,3.74-1,13.41,13.41,0,0,0,4.71-3,10.11,10.11,0,0,0,1-1.17l.23-.32c.06-.07.08-.11.09-.1a8.19,8.19,0,0,1-1.23,1.66,13.11,13.11,0,0,1-4.73,3.08,20.66,20.66,0,0,1-3.76,1,39.57,39.57,0,0,1-4.46.52c-3.14.25-6.64.28-10.12,1.32a14.49,14.49,0,0,0-4.7,2.29,10.42,10.42,0,0,0-3.57,11.79,10.83,10.83,0,0,0,3.17,4.55,11.3,11.3,0,0,0,1.22.91l.34.2Z" style="fill:#263238"></path><path d="M229.11,82.56a1.47,1.47,0,0,1-1.35,1.56,1.41,1.41,0,0,1-1.59-1.25,1.48,1.48,0,0,1,1.34-1.57A1.43,1.43,0,0,1,229.11,82.56Z" style="fill:#263238"></path><path d="M228.91,80.25c-.17.2-1.34-.57-2.93-.48s-2.71,1-2.9.76.08-.44.57-.84a4.05,4.05,0,0,1,2.31-.84,3.86,3.86,0,0,1,2.34.62C228.81,79.82,229,80.16,228.91,80.25Z" style="fill:#263238"></path><path d="M213.41,84a1.48,1.48,0,0,1-1.35,1.56,1.4,1.4,0,0,1-1.59-1.25,1.48,1.48,0,0,1,1.34-1.57A1.43,1.43,0,0,1,213.41,84Z" style="fill:#263238"></path><path d="M213.37,81.11c-.17.2-1.33-.57-2.92-.48s-2.72.94-2.9.76.08-.44.57-.84a4.09,4.09,0,0,1,2.3-.85,4,4,0,0,1,2.35.62C213.27,80.67,213.46,81,213.37,81.11Z" style="fill:#263238"></path><path d="M219.69,93.45a11.38,11.38,0,0,1,2.56-.6c.4-.06.78-.16.84-.44a2.09,2.09,0,0,0-.34-1.19c-.43-1-.89-2-1.37-3-1.9-4.32-3.3-7.88-3.12-8s1.85,3.36,3.76,7.68c.46,1.06.89,2.08,1.31,3a2.36,2.36,0,0,1,.3,1.58,1,1,0,0,1-.64.63,2.69,2.69,0,0,1-.68.13A9.86,9.86,0,0,1,219.69,93.45Z" style="fill:#263238"></path><path d="M219.22,97.33a2.87,2.87,0,0,0-2.63-.93,2.63,2.63,0,0,0-1.75,1.06,1.67,1.67,0,0,0,0,1.91,1.92,1.92,0,0,0,2.11.41,5.89,5.89,0,0,0,2-1.32,1.65,1.65,0,0,0,.43-.49.54.54,0,0,0,0-.6" style="fill:#aa6550"></path><path d="M215.06,94.8c.26,0,.36,1.7,1.9,2.85s3.37.86,3.4,1.1-.39.36-1.17.42a4.29,4.29,0,0,1-2.83-.82A3.8,3.8,0,0,1,214.88,96C214.78,95.24,215,94.8,215.06,94.8Z" style="fill:#263238"></path><path d="M199.51,85.68c-.19-.09-7.6-2.61-7.68,5.06s7.63,6.16,7.64,5.94S199.51,85.68,199.51,85.68Z" style="fill:#b78876"></path><path d="M197.16,93.75s-.13.1-.36.2a1.35,1.35,0,0,1-1,0,3.32,3.32,0,0,1-1.49-3,4.35,4.35,0,0,1,.39-1.91,1.52,1.52,0,0,1,1-1,.67.67,0,0,1,.78.37c.1.21.05.37.09.38s.17-.13.11-.44a.84.84,0,0,0-.3-.49,1,1,0,0,0-.73-.2,1.88,1.88,0,0,0-1.41,1.17,4.62,4.62,0,0,0-.49,2.14c0,1.54.81,3,1.91,3.33a1.5,1.5,0,0,0,1.23-.19C197.15,93.94,197.19,93.77,197.16,93.75Z" style="fill:#aa6550"></path><path d="M190.83,100.49a11.61,11.61,0,0,1-3.31-5.15,11.65,11.65,0,0,1-.74-6.08,31.62,31.62,0,0,0,1.23,5.9A31.51,31.51,0,0,0,190.83,100.49Z" style="fill:#B95555"></path><path d="M195.56,123.71s-17.12,11.84-17.85,24.61,9.67,50.51,9.67,50.51-5.48,17.52-2.92,21.17,17.51-.73,28.46,1.82,17.88,5.48,21.16,2.19,4.38-5.47,2.92-18.61,3.93-29.88,3.93-42c0-12.41-13.65-35.27-13.65-35.27l-1.69-5.76s-23.19-7.54-28.67-6.81Z" style="fill:#B95555"></path><path d="M177.68,146.84c-.19,1.11,0,51.28,0,51.28L174,205c-.35,2.4.92,4.89,2.78,7.42l19.75,2.81,6.63-8.46-5.94-9.45,11-41.82s4.09-8.46-1.63-16.09S180.62,129.41,177.68,146.84Z" style="fill:#B95555"></path><path d="M204.71,143.64c-.09.05-.7-1.29-2.23-3a16.42,16.42,0,0,0-16.36-5.24c-2.27.55-3.54,1.28-3.58,1.19a3.2,3.2,0,0,1,.87-.54,14.37,14.37,0,0,1,2.61-1,15.93,15.93,0,0,1,16.74,5.35,14.41,14.41,0,0,1,1.55,2.33A3.46,3.46,0,0,1,204.71,143.64Z" style="fill:#263238"></path><path d="M179.62,195a1.37,1.37,0,0,1-.15.35l-.49.95c-.47.89-1.12,2.08-1.92,3.57s-1.88,3.38-2.94,5.45c-.31,1,.22,2.31.75,3.47A24.9,24.9,0,0,0,177,212.3l-.16-.1L189.67,214l5,.72-.15,0c1.87-.77,3.73-1.16,5.32-2a2.83,2.83,0,0,0,.51-.34c.16-.14.32-.31.48-.47.31-.31.61-.63.89-.95A8.31,8.31,0,0,0,203.1,209a4.66,4.66,0,0,0,.38-2.25,6,6,0,0,0-.65-2.08,13.47,13.47,0,0,0-2.47-3.14,16.82,16.82,0,0,1-3.74-4.47,5.74,5.74,0,0,1-.5-1.5,1.76,1.76,0,0,1,0-.55,8,8,0,0,0,.7,2,17.71,17.71,0,0,0,3.82,4.31,13.61,13.61,0,0,1,2.58,3.19,6,6,0,0,1,.72,2.23,4.84,4.84,0,0,1-.39,2.47,8.49,8.49,0,0,1-1.43,2.2c-.29.33-.59.66-.91,1l-.48.49a3.32,3.32,0,0,1-.62.41c-1.67.87-3.57,1.27-5.32,2l-.08,0h-.07l-5-.71-12.85-1.85-.11,0,0-.08a25.78,25.78,0,0,1-2.12-3.64,13.1,13.1,0,0,1-.7-1.86,3.55,3.55,0,0,1,0-1.94c1.14-2.15,2.21-3.92,3.07-5.45s1.53-2.64,2-3.5c.22-.37.4-.68.55-.92A1.58,1.58,0,0,1,179.62,195Z" style="fill:#263238"></path><path d="M194.63,186.53a5.71,5.71,0,0,1,1.44,1.56,15.41,15.41,0,0,1,2.88,9.7,6.22,6.22,0,0,1-.35,2.09,25.31,25.31,0,0,0-.77-7A24.62,24.62,0,0,0,194.63,186.53Z" style="fill:#263238"></path><path d="M206.8,157.51a7,7,0,0,1-.16,1.45c-.13.93-.35,2.27-.65,3.92-.59,3.3-1.51,7.84-2.72,12.81s-2.47,9.43-3.46,12.63c-.49,1.6-.91,2.89-1.22,3.77a7.28,7.28,0,0,1-.53,1.36,9.19,9.19,0,0,1,.33-1.42l1.07-3.82c.89-3.22,2.1-7.68,3.31-12.65s2.18-9.48,2.86-12.75c.33-1.57.6-2.87.81-3.89A7.51,7.51,0,0,1,206.8,157.51Z" style="fill:#263238"></path><path d="M227.28,128.17a.47.47,0,0,0-.14.32,3.2,3.2,0,0,0,.18,1c.14.45.34,1,.56,1.64.11.32.23.67.33,1.05a5.7,5.7,0,0,1,.11.62.75.75,0,0,1-.26.72l-.15.1-.07-.19a69.76,69.76,0,0,0-6-11.1l.43,0a75.35,75.35,0,0,0-3.5,10.13c-.32,1.18-.6,2.35-.84,3.46l-.07.32-.29-.14a164.93,164.93,0,0,1-15.87-8.66c-1.93-1.2-3.46-2.21-4.5-2.92l-1.19-.83c-.27-.19-.4-.3-.39-.32a2.24,2.24,0,0,1,.44.24l1.24.75c1.07.66,2.63,1.62,4.58,2.78,3.91,2.33,9.45,5.42,15.91,8.49l-.37.18c.24-1.12.53-2.3.84-3.48a72.56,72.56,0,0,1,3.56-10.19l.19-.43.24.4a64.43,64.43,0,0,1,5.83,11.25l-.21-.08c.09,0,.12-.25.11-.43a3.56,3.56,0,0,0-.09-.57c-.08-.37-.19-.72-.29-1.05-.2-.65-.37-1.2-.48-1.67a2.84,2.84,0,0,1-.11-1.09C227.11,128.2,227.29,128.15,227.28,128.17Z" style="fill:#263238"></path><path d="M222.13,122.58a1.24,1.24,0,0,1,.13.25l.34.72,1.27,2.82c1.08,2.46,2.63,6,4.33,10.52a96.26,96.26,0,0,1,4.69,16.2,59.15,59.15,0,0,1,1,9.93,64.19,64.19,0,0,1-.82,10.68c-.53,3.63-1.19,7.15-1.6,10.56a47.27,47.27,0,0,0-.32,9.88c.26,3.15.87,6.1,1.35,8.88a51.16,51.16,0,0,1,.9,7.82,23.82,23.82,0,0,1-.76,6.46,16,16,0,0,1-2,4.49,12.9,12.9,0,0,1-2,2.37c-.27.23-.49.39-.63.51a.86.86,0,0,1-.22.15,15.29,15.29,0,0,0,2.68-3.14,19.65,19.65,0,0,0,2.55-10.83,52.27,52.27,0,0,0-1-7.75c-.5-2.77-1.13-5.73-1.41-8.91a47.53,47.53,0,0,1,.3-10c.4-3.44,1.06-7,1.59-10.57a64.66,64.66,0,0,0,.82-10.6,58.36,58.36,0,0,0-1-9.85A97.64,97.64,0,0,0,227.85,137c-1.64-4.5-3.15-8.08-4.17-10.56-.5-1.21-.89-2.17-1.17-2.86l-.3-.74A1,1,0,0,1,222.13,122.58Z" style="fill:#263238"></path><g style="opacity:0.37"><path d="M205.55,196c-1.43-10.07,3.34-21.7-.11-31.26-2.06,8-3,15.07-5.43,21.78-1.21,3.4-1.47,6.67-1.59,6.25-.45-1.59.22,6.77.22,6.77a47.45,47.45,0,0,1,3.79,4,7.81,7.81,0,0,1-.41,7.7c-1.39,2-5.88,2.66-8.09,3.69l-1,5.57c6.4,1.67,13.8-4.9,14.64-11.47C208.1,204.69,206.17,200.4,205.55,196Z"></path></g><g style="opacity:0.37"><path d="M215.21,134.77c.86.5,1.73,1,2.6,1.48a66.14,66.14,0,0,1,3.87-13.87c2.47,3.43,5.07,7.28,6.5,11.26,0-.7-.94-5.21-.9-5.47a7.26,7.26,0,0,1,.8,8,21.05,21.05,0,0,1-5.61-8.47l-1.32,9c-.18,1.21-.55,2.66-1.73,3a3.2,3.2,0,0,1-2.26-.48,58.73,58.73,0,0,1-17.11-13Z"></path></g><path d="M237.21,208.6a3.46,3.46,0,0,1,.2.87c.1.56.23,1.37.34,2.39a18.16,18.16,0,0,1-.64,8,10.17,10.17,0,0,1-2.33,3.8,8.21,8.21,0,0,1-3.1,1.92,6.55,6.55,0,0,1-2.42.33,2.33,2.33,0,0,1-.88-.18,8.91,8.91,0,0,0,3.18-.5,8.06,8.06,0,0,0,2.88-1.91,10.14,10.14,0,0,0,2.18-3.63,19.81,19.81,0,0,0,.77-7.77A26,26,0,0,1,237.21,208.6Z" style="fill:#263238"></path><path d="M172.77,270.89s-10.61,1.77-16.63,9.2S148,293,148,293l9.67,2.36s.2-9.64,5.15-14.95,11.09-7.34,13.44-3.18,3.89,18.45,0,22.66L185,302S186.91,271.6,172.77,270.89Z" style="fill:#455a64"></path><path d="M175.68,250.6s-9,17.73-9.82,19.91-2.13,11.22-2.13,11.22l1.63,2.66s1.19,3.09,4.78,1.62c.41-.17,1.85,1.52,4.76.5a38.62,38.62,0,0,1,3.85-1.07l3.2-6.36,1.08,4.18a23.61,23.61,0,0,0,3.29-12.75c-.28-7.36,0-19.91,0-19.91Z" style="fill:#b78876"></path><path d="M176.62,275.28a4.42,4.42,0,0,1-.56,1.72c-.44,1-1.25,2.35-1.81,3.9a6,6,0,0,0-.19,4.08,8,8,0,0,0,.84,1.53c0,.05-.7-.32-1.19-1.39a5,5,0,0,1-.4-2,7.06,7.06,0,0,1,.45-2.41,26.12,26.12,0,0,1,2-3.89A11.07,11.07,0,0,1,176.62,275.28Z" style="fill:#aa6550"></path><path d="M172,274.08A14.47,14.47,0,0,0,170.14,286a4.16,4.16,0,0,1-.7-1.73,11.57,11.57,0,0,1-.19-4.51,11.37,11.37,0,0,1,1.55-4.25A4.41,4.41,0,0,1,172,274.08Z" style="fill:#aa6550"></path><path d="M183.94,273.29a11.29,11.29,0,0,1-3,7.17c-.12-.09.83-1.55,1.64-3.52S183.79,273.26,183.94,273.29Z" style="fill:#aa6550"></path><path d="M165.36,284.39a12.27,12.27,0,0,1,1.41-8c.14.06-.5,1.78-.88,4S165.51,284.38,165.36,284.39Z" style="fill:#aa6550"></path><path d="M123,291.58a4.39,4.39,0,0,1,5.34-3.35L148,293l57.29,14a4.4,4.4,0,0,1,3.25,5.26l-11,48a4.39,4.39,0,0,1-5.27,3.3l-76.55-17.65a4.4,4.4,0,0,1-3.31-5.22Z" style="fill:#455a64"></path><path d="M207.29,315.06a4.88,4.88,0,0,1-.85-.2l-2.43-.69-8.92-2.58c-7.54-2.16-18-5-29.57-8s-22.16-5.34-29.82-7l-9.07-2-2.47-.54a4.94,4.94,0,0,1-.85-.23,6.25,6.25,0,0,1,.87.12l2.49.45c2.15.4,5.27,1,9.11,1.8,7.68,1.58,18.26,3.94,29.87,6.86s22,5.88,29.54,8.13c3.76,1.13,6.79,2.07,8.88,2.74l2.4.79A6.56,6.56,0,0,1,207.29,315.06Z" style="fill:#263238"></path><polygon points="176.66 212.62 172.95 256.88 186.04 256.88 193.81 215.16 176.66 212.62" style="fill:#b78876"></polygon><path d="M207.15,153.84a5.44,5.44,0,0,1-1.09.44c-.71.26-1.76.57-3.07.91a52.13,52.13,0,0,1-10.44,1.54,51.54,51.54,0,0,1-10.53-.61c-1.34-.22-2.41-.44-3.14-.64a4.36,4.36,0,0,1-1.12-.34c0-.09,1.65.27,4.31.61a59.46,59.46,0,0,0,20.83-.92C205.53,154.25,207.12,153.76,207.15,153.84Z" style="fill:#fafafa"></path><path d="M201.88,178a3.84,3.84,0,0,1-.95.08c-.61,0-1.5,0-2.59,0-2.18,0-5.19-.15-8.51-.47s-6.3-.76-8.45-1.15c-1.07-.2-1.94-.37-2.53-.51a3.12,3.12,0,0,1-.91-.27,30.29,30.29,0,0,1,3.5.41c2.16.3,5.14.68,8.44,1s6.3.51,8.48.63A27.31,27.31,0,0,1,201.88,178Z" style="fill:#fafafa"></path><path d="M199.71,202.27a3.39,3.39,0,0,1-.84.29,22.24,22.24,0,0,1-2.39.52,33.49,33.49,0,0,1-8,.38,34,34,0,0,1-7.91-1.56c-1-.33-1.75-.63-2.28-.87s-.81-.38-.79-.42,1.22.38,3.18.94a41.58,41.58,0,0,0,7.84,1.39,41.15,41.15,0,0,0,8-.22C198.45,202.46,199.69,202.18,199.71,202.27Z" style="fill:#fafafa"></path><path d="M238.66,184.08a9.27,9.27,0,0,1-1.39.72c-.9.45-2.25,1-3.93,1.67a61,61,0,0,1-6,1.94A63.37,63.37,0,0,1,212,190.57a61.09,61.09,0,0,1-6.33-.19c-1.8-.16-3.25-.34-4.24-.52a7.84,7.84,0,0,1-1.53-.32,10,10,0,0,1,1.56.12c1,.12,2.44.24,4.23.35s3.93.14,6.3.08a76.08,76.08,0,0,0,7.67-.65c2.71-.39,5.26-.92,7.56-1.49s4.34-1.22,6-1.83,3-1.11,4-1.5A7.86,7.86,0,0,1,238.66,184.08Z" style="fill:#fafafa"></path><path d="M238.43,154.14a6.77,6.77,0,0,1-1.25.47c-.81.27-2,.64-3.47,1.08-2.94.88-7,2-11.56,3.16s-8.68,2.05-11.69,2.66c-1.5.31-2.72.54-3.57.68a6.93,6.93,0,0,1-1.32.18,6,6,0,0,1,1.28-.38l3.53-.84c3-.7,7.11-1.67,11.64-2.81s8.63-2.22,11.59-3l3.51-.92A5.93,5.93,0,0,1,238.43,154.14Z" style="fill:#fafafa"></path><path d="M231.21,138.31a3.93,3.93,0,0,1-1,.25l-2.78.49c-2.35.41-5.6,1-9.17,1.69s-6.78,1.4-9.11,1.91l-2.77.59a4,4,0,0,1-1,.16,3.82,3.82,0,0,1,1-.35c.64-.2,1.57-.46,2.73-.76,2.31-.6,5.53-1.36,9.1-2.07s6.84-1.22,9.21-1.53c1.18-.16,2.14-.27,2.81-.33A4.1,4.1,0,0,1,231.21,138.31Z" style="fill:#fafafa"></path><path d="M200,126.6c.09.12-1.65,1.4-3.51,3.28s-3.13,3.61-3.25,3.53a12.15,12.15,0,0,1,2.88-3.9A12.29,12.29,0,0,1,200,126.6Z" style="fill:#fafafa"></path><path d="M218.25,127.78a3.07,3.07,0,0,1-.91-.14c-.58-.13-1.42-.34-2.44-.63a61.19,61.19,0,0,1-7.78-2.84,62.43,62.43,0,0,1-7.35-3.83c-.91-.56-1.62-1-2.11-1.37a3.43,3.43,0,0,1-.72-.58,30.39,30.39,0,0,1,3,1.63c1.85,1,4.43,2.37,7.38,3.67s5.68,2.3,7.68,3A29.21,29.21,0,0,1,218.25,127.78Z" style="fill:#fafafa"></path><path d="M237.2,209a7.13,7.13,0,0,1-1.24.59,25.91,25.91,0,0,1-3.55,1.16,39.18,39.18,0,0,1-12.27.88A76.72,76.72,0,0,1,208,209.52c-1.53-.38-2.76-.71-3.6-1a5.74,5.74,0,0,1-1.3-.42,7.83,7.83,0,0,1,1.35.23l3.63.78a93.11,93.11,0,0,0,12.09,1.92,42.28,42.28,0,0,0,12.14-.72,34.73,34.73,0,0,0,3.57-1A7,7,0,0,1,237.2,209Z" style="fill:#fafafa"></path><path d="M187.8,96.39a3.45,3.45,0,0,1-.47,1,13.61,13.61,0,0,1-1.73,2.32A15.87,15.87,0,0,1,168,103.75a13.49,13.49,0,0,1-2.57-1.32,3.18,3.18,0,0,1-.84-.65,34.81,34.81,0,0,0,3.54,1.62,16.2,16.2,0,0,0,17.2-4A38,38,0,0,0,187.8,96.39Z" style="fill:#455a64"></path><path d="M164.34,97.63a3.51,3.51,0,0,1,.92-.35,9.68,9.68,0,0,1,2.68-.24,21.41,21.41,0,0,1,3.93.64c1.45.33,3,.77,4.7,1a11.34,11.34,0,0,0,4.68-.19,10.89,10.89,0,0,0,3.47-1.67,17,17,0,0,0,2.55-2.52,2.48,2.48,0,0,1-.48.86,9.61,9.61,0,0,1-1.85,2A10.36,10.36,0,0,1,181.38,99a11.33,11.33,0,0,1-4.89.25,48.49,48.49,0,0,1-4.73-1.07,25.14,25.14,0,0,0-3.84-.73A14.43,14.43,0,0,0,164.34,97.63Z" style="fill:#455a64"></path></g><g id="freepik--Plant--inject-81"><path d="M81.26,407.4a12.18,12.18,0,0,1,6.33,7.17,21.54,21.54,0,0,1,.84,9.71c-.71,6.31-4.3,12.67-8.15,17.71-5.31-4.63-6.54-12.71-6.9-16.85-.57-6.55,2.37-18.72,7.88-17.74" style="fill:#B95555"></path><path d="M86.45,452.4a10.42,10.42,0,0,1,3.37-9.91A13.81,13.81,0,0,1,100,439.3c1.69.13,3.51.62,4.48,2a4.48,4.48,0,0,1,.07,4.52,9.22,9.22,0,0,1-3.35,3.3c-4.6,2.88-9.58,4.83-14.78,3.27" style="fill:#B95555"></path><path d="M79.64,471.73a7.58,7.58,0,0,1,.19-1.29c.17-.91.38-2.09.64-3.5a36.75,36.75,0,0,1,3.61-11.19,22.45,22.45,0,0,1,8-8.53,15.21,15.21,0,0,1,3.28-1.45c.4-.13.72-.18.94-.24s.33-.06.33,0a23.89,23.89,0,0,0-4.38,2A23.12,23.12,0,0,0,84.49,456a39.41,39.41,0,0,0-3.7,11c-.32,1.47-.58,2.66-.79,3.48A6.83,6.83,0,0,1,79.64,471.73Z" style="fill:#263238"></path><path d="M79.84,416.86a2.93,2.93,0,0,1,.06.57c0,.42.06,1,.1,1.62.08,1.42.16,3.46.24,6,.16,5,.29,12,.26,19.74s-.22,14.7-.43,19.75c-.1,2.53-.21,4.57-.29,6,0,.67-.08,1.21-.11,1.63a3.1,3.1,0,0,1-.07.56,2.12,2.12,0,0,1,0-.57q0-.63,0-1.62c0-1.47.08-3.5.14-6,.13-5,.27-12,.3-19.74s0-14.68-.13-19.74c0-2.48-.07-4.51-.09-6,0-.67,0-1.21,0-1.63A2.12,2.12,0,0,1,79.84,416.86Z" style="fill:#263238"></path><path d="M77.26,456.24A24.38,24.38,0,0,0,64,438.38c-1.78-.85-4.1-1.41-5.55-.09S57.26,442,58,443.82a20.84,20.84,0,0,0,19.16,12.94" style="fill:#B95555"></path><path d="M64.81,444.36a5.65,5.65,0,0,1,1.12.49,11.89,11.89,0,0,1,1.28.68,18.38,18.38,0,0,1,1.62,1,22,22,0,0,1,1.85,1.4,22.64,22.64,0,0,1,2,1.79,26.9,26.9,0,0,1,3.75,4.82,26.43,26.43,0,0,1,2.47,5.58,22.19,22.19,0,0,1,.63,2.6,21.41,21.41,0,0,1,.32,2.3c.09.7.06,1.35.09,1.91a12.3,12.3,0,0,1,0,1.44,7,7,0,0,1-.13,1.22c-.11,0,.07-1.75-.24-4.54a19.24,19.24,0,0,0-.37-2.26,23.76,23.76,0,0,0-.65-2.54A27.28,27.28,0,0,0,76,454.78,28.6,28.6,0,0,0,72.35,450a24.16,24.16,0,0,0-1.91-1.8,22.17,22.17,0,0,0-1.8-1.42C66.36,445.17,64.76,444.44,64.81,444.36Z" style="fill:#263238"></path></g><g id="freepik--Stairs--inject-81"><path d="M465.91,351.1l-1,0-3,0-11.61,0-43.6.07.16-.16c0,8.7,0,18.55,0,29.2v.19h-.19l-92.1.05.24-.24c0,10.74,0,22.12,0,33.77v.26H222.49l.26-.26q0,18.27,0,35.72V450h-.25L123.8,450l.21-.2c0,7.94,0,15.44,0,22.55v.19h-.19l-61.89-.08-16.83-.05-4.37,0-1.49,0,1.49,0,4.37,0,16.83-.05,61.89-.08-.18.18c0-7.11,0-14.61,0-22.55v-.21h.2l98.69,0-.25.25q0-17.43,0-35.72v-.26H314.6l-.26.25c0-11.65,0-23,0-33.77v-.25h.25l92.1.06-.19.19c0-10.65,0-20.5,0-29.2v-.16h.16l43.6.08,11.61,0,3,0Z" style="fill:#263238"></path></g></svg>