<svg xmlns="http://www.w3.org/2000/svg" viewBox="0 0 750 500"><g id="freepik--Floor--inject-55"><path d="M705,465.39c0,.14-147.76.26-330,.26s-330-.12-330-.26,147.72-.26,330-.26S705,465.24,705,465.39Z" style="fill:#263238"></path></g><g id="freepik--Target--inject-55"><polygon points="194.76 294.22 239.58 465.39 254.06 465.39 210.14 293.2 194.76 294.22" style="fill:#455a64"></polygon><polygon points="136.19 465.39 159.9 304.21 173.52 304.6 153.15 465.39 136.19 465.39" style="fill:#455a64"></polygon><polygon points="131.81 316.87 80.84 465.39 97.25 465.39 141.62 330.71 131.81 316.87" style="fill:#455a64"></polygon><path d="M229.93,266.26c17.45,51.42,9.93,100.21-23.76,111.65s-80.8-18.81-98.26-70.23-4.29-102.38,29.41-113.82S212.47,214.84,229.93,266.26Z" style="fill:#B95555"></path><g style="opacity:0.30000000000000004"><path d="M229.93,266.26c17.45,51.42,9.93,100.21-23.76,111.65s-80.8-18.81-98.26-70.23-4.29-102.38,29.41-113.82S212.47,214.84,229.93,266.26Z"></path></g><ellipse cx="182.95" cy="281.89" rx="64.43" ry="97.39" transform="translate(-80.9 73.76) rotate(-18.75)" style="fill:#B95555"></ellipse><ellipse cx="184.9" cy="280.55" rx="51.99" ry="82.09" transform="translate(-80.37 74.32) rotate(-18.75)" style="fill:#fafafa"></ellipse><ellipse cx="186.36" cy="280.39" rx="40.39" ry="66.33" transform="translate(-80.23 74.78) rotate(-18.75)" style="fill:#B95555"></ellipse><ellipse cx="187.59" cy="277.24" rx="27.3" ry="44.14" transform="translate(-79.16 75.01) rotate(-18.75)" style="fill:#fafafa"></ellipse><path d="M202.08,273c4.58,13.51,2.1,26.57-5.54,29.17s-17.57-6.26-22.15-19.77-2.11-26.57,5.54-29.16S197.49,259.45,202.08,273Z" style="fill:#B95555"></path><path d="M244,261.18s-.17-.42-.48-1.24-.75-2.06-1.34-3.65c-1.27-3.18-3.12-7.88-6-13.68a135.39,135.39,0,0,0-12.45-20.08,105.21,105.21,0,0,0-22.07-22,73.39,73.39,0,0,0-15.84-8.86c-1.45-.63-3-1.08-4.5-1.63l-2.34-.65a23.6,23.6,0,0,0-2.38-.58,47.25,47.25,0,0,0-9.94-1.18c-.85,0-1.7-.06-2.56,0l-2.57.16a48.66,48.66,0,0,0-5.16.85,42.19,42.19,0,0,0-10.05,3.57,47.87,47.87,0,0,0-16.8,14.41A69.76,69.76,0,0,0,119,227.56a102.6,102.6,0,0,0-2.83,11.81,118.82,118.82,0,0,0-1.38,12.31,141.18,141.18,0,0,0,32.45,95.64,119.21,119.21,0,0,0,8.6,8.93,103,103,0,0,0,9.43,7.65,69.94,69.94,0,0,0,21,10.29,48,48,0,0,0,22.11,1.2,41.94,41.94,0,0,0,10.14-3.29,46.15,46.15,0,0,0,4.61-2.47l2.14-1.43c.73-.46,1.37-1,2.05-1.54a47.89,47.89,0,0,0,7.16-7c.54-.62,1.06-1.25,1.54-1.91l1.45-1.94c.88-1.36,1.82-2.65,2.58-4a73,73,0,0,0,7.18-16.66,105.67,105.67,0,0,0,4.1-30.92A135.16,135.16,0,0,0,249,280.69c-1.2-6.38-2.59-11.24-3.52-14.53l-1.15-3.71c-.26-.84-.38-1.27-.38-1.27s.15.42.43,1.25.68,2.08,1.2,3.7c1,3.28,2.38,8.14,3.62,14.52a134.53,134.53,0,0,1,2.45,23.54,105.91,105.91,0,0,1-4,31A73.51,73.51,0,0,1,240.44,352c-.77,1.39-1.71,2.7-2.59,4.06l-1.46,2a23.8,23.8,0,0,1-1.55,1.93,48.63,48.63,0,0,1-7.21,7.05c-.69.52-1.34,1.1-2.07,1.56s-1.43,1-2.16,1.46a47,47,0,0,1-4.65,2.49,42.16,42.16,0,0,1-10.25,3.34,48.18,48.18,0,0,1-22.32-1.19A70.4,70.4,0,0,1,165,364.31a102.9,102.9,0,0,1-9.49-7.69,120.3,120.3,0,0,1-8.64-9,141.39,141.39,0,0,1-32.58-96,119.67,119.67,0,0,1,1.39-12.37,103.33,103.33,0,0,1,2.85-11.88,70.41,70.41,0,0,1,10.51-21.09,48.22,48.22,0,0,1,17-14.53,42.46,42.46,0,0,1,10.16-3.59,46.92,46.92,0,0,1,5.2-.85l2.61-.17c.86-.07,1.72,0,2.58,0a47.94,47.94,0,0,1,10,1.2,24.71,24.71,0,0,1,2.4.59l2.35.66c1.53.55,3.07,1,4.53,1.65a73.33,73.33,0,0,1,15.9,8.93,105.31,105.31,0,0,1,22.1,22.16,134.43,134.43,0,0,1,12.39,20.16c2.9,5.82,4.73,10.54,6,13.73.57,1.61,1,2.83,1.29,3.67S244,261.18,244,261.18Z" style="fill:#263238"></path><g style="opacity:0.30000000000000004"><path d="M241.28,266.43,206,275.67,251.52,307s-.78-23.05-4.27-36.45Z"></path></g><g style="opacity:0.30000000000000004"><polygon points="121.17 347.85 131.57 361.21 134.53 352.22 124.06 339.43 121.17 347.85"></polygon></g><g style="opacity:0.30000000000000004"><path d="M150,372.43s5.65,6.87,14.1,6.87l.64-5.11a88.31,88.31,0,0,1-13.93-7.95Z"></path></g><g style="opacity:0.30000000000000004"><path d="M217.3,380.32l-1.75-6.68s9.43-3.51,13.13-7.76l1.84,7.22S224.17,379.71,217.3,380.32Z"></path></g></g><g id="freepik--Characters--inject-55"><polygon points="549.51 402.34 579.99 422.8 589.57 410.08 560.97 384.82 549.51 402.34" style="fill:#bc8f86"></polygon><path d="M575.89,420.21l.84.65s-5.26,18.63-2.68,20.86l21.63-28.35L586,406.56A20.39,20.39,0,0,1,575.89,420.21Z" style="fill:#B95555"></path><path d="M586.78,411.73a1.46,1.46,0,0,1,1.93.21,1.4,1.4,0,0,1-.18,1.92,1.54,1.54,0,0,1-2-.23,1.45,1.45,0,0,1,.42-2" style="fill:#fff"></path><path d="M595.68,413.37l-2.34-1.63L573.47,439.5s-.41,1.68.58,2.22Z" style="fill:#263238"></path><path d="M576.73,421c.14.1.74-.54,1.7-.88s1.82-.26,1.87-.43-.92-.57-2.08-.14S576.58,421,576.73,421Z" style="fill:#263238"></path><path d="M575.69,424.93c.11.14.81-.28,1.75-.3s1.67.31,1.77.17-.62-.83-1.79-.78S575.56,424.83,575.69,424.93Z" style="fill:#263238"></path><path d="M578,429.34c.13-.1-.42-.83-1.44-1s-1.83.2-1.76.34.78.06,1.62.25S577.84,429.47,578,429.34Z" style="fill:#263238"></path><polygon points="458.95 419.04 456.49 455.67 472.29 457.61 479.86 420.2 458.95 419.04" style="fill:#bc8f86"></polygon><path d="M456.68,450.83l-.15,1.05s-18.75,4.76-19.39,8.11l35.36,4.55,1-11.83A20.38,20.38,0,0,1,456.68,450.83Z" style="fill:#B95555"></path><path d="M469.47,456a1.44,1.44,0,0,1,.78,1.77,1.4,1.4,0,0,1-1.75.8,1.55,1.55,0,0,1-.82-1.89,1.44,1.44,0,0,1,1.91-.62" style="fill:#fff"></path><path d="M472.5,464.54l.25-2.84-34-3.32s-1.67.48-1.63,1.61Z" style="fill:#263238"></path><path d="M456.4,452c0,.17.83.36,1.61,1s1.14,1.44,1.31,1.4,0-1.08-.92-1.87S456.38,451.8,456.4,452Z" style="fill:#263238"></path><path d="M452.49,453c-.06.17.65.56,1.14,1.36s.56,1.6.74,1.62.41-.95-.23-1.94S452.52,452.85,452.49,453Z" style="fill:#263238"></path><path d="M449.81,457.18c.15.06.51-.77.18-1.77s-1.08-1.49-1.17-1.35.34.7.6,1.53S449.64,457.14,449.81,457.18Z" style="fill:#263238"></path><path d="M528.25,116.69c.42-2.72,2.87-4.81,5.54-5.46a14.24,14.24,0,0,1,8.09.81,19.46,19.46,0,0,1,7.78,4.84,11.77,11.77,0,0,1,3.29,8.39c-.16,2.89-1.6,5.79-.79,8.56.61,2.11,2.39,3.65,4.18,4.92s3.73,2.47,4.94,4.31,1.4,4.56-.23,6c-1.45,1.31-4,1.46-4.65,3.32-.38,1.15.26,2.35.61,3.51a9.17,9.17,0,0,1-1.18,7.37,15.38,15.38,0,0,1-5.64,5.1c-3.92,2.21-8.8,3.24-12.93,1.48a12.42,12.42,0,0,1-5.1-4.18,19.81,19.81,0,0,1-3.37-10.43,58.75,58.75,0,0,1,.72-11.07" style="fill:#263238"></path><path d="M526.82,160.66a11.38,11.38,0,0,0,14.4-11.23c-.07-3.3-1.56-6.67-.54-9.8.71-2.16,2.51-3.83,3.12-6,.9-3.26-1.07-6.55-2.95-9.36a22.11,22.11,0,0,0-4.12-5,7.43,7.43,0,0,0-6-1.79" style="fill:#263238"></path><path d="M496.39,117.75c.19,2.49-1.46,4.72-3.11,6.58s-3.5,3.82-3.86,6.29c-.64,4.38,3.65,8.45,2.77,12.78-.48,2.33-2.38,4.19-2.72,6.54s.89,4.49,2.4,6.22,3.34,3.17,4.68,5c0,0,2.78,4.55,11.33,1.64" style="fill:#263238"></path><path d="M534.67,121.56c.06-2.26-2-4-4.13-4.83s-4.44-1.14-6.31-2.4c-1.66-1.12-2.78-2.86-4.18-4.29a13.91,13.91,0,0,0-23.39,6.39c-.81,3.21-.26,7,2.28,9.15,2.94,2.48,7.3,1.93,11.07,1.16s8-1.53,11.19.68c1.9,1.34,3,3.51,4.15,5.52s2.61,4.06,4.81,4.82,5.17-.55,5.26-2.87" style="fill:#263238"></path><path d="M525.76,122a3.79,3.79,0,0,1,3.38,3.84h0l-2.26,51c-.09,6-8.9,9.42-15.36,9.27h0c-6.51-.16-6.73-3.35-6.81-9.09-.13-9.58-.12-13.17-.12-13.12s-8.24-1.38-9.92-12.13c-.84-5.35-.55-14.11-.08-21.27.42-6.45,4.71-14.34,11.13-13.65Z" style="fill:#bc8f86"></path><path d="M496.49,137.63a1.39,1.39,0,0,0,1.33,1.4,1.33,1.33,0,0,0,1.42-1.24,1.39,1.39,0,0,0-1.33-1.4A1.33,1.33,0,0,0,496.49,137.63Z" style="fill:#263238"></path><path d="M496.14,134c.17.18,1.21-.59,2.7-.58s2.56.75,2.72.57-.09-.41-.56-.75a3.77,3.77,0,0,0-2.19-.68,3.61,3.61,0,0,0-2.15.69C496.21,133.56,496.05,133.88,496.14,134Z" style="fill:#263238"></path><path d="M510.26,137.89a1.39,1.39,0,0,0,1.33,1.4,1.32,1.32,0,0,0,1.42-1.24,1.38,1.38,0,0,0-1.32-1.4A1.33,1.33,0,0,0,510.26,137.89Z" style="fill:#263238"></path><path d="M511.05,134.7c.17.18,1.22-.59,2.7-.59s2.57.75,2.73.57-.09-.4-.56-.75a3.87,3.87,0,0,0-2.19-.68,3.68,3.68,0,0,0-2.15.69C511.13,134.29,511,134.62,511.05,134.7Z" style="fill:#263238"></path><path d="M505.65,146.42a9.3,9.3,0,0,0-2.41-.44c-.38,0-.74-.12-.8-.38a1.88,1.88,0,0,1,.26-1.12c.35-.92.73-1.88,1.12-2.88,1.57-4.1,2.7-7.48,2.53-7.54s-1.56,3.22-3.13,7.32c-.37,1-.74,2-1.08,2.9a2.21,2.21,0,0,0-.2,1.48,1,1,0,0,0,.62.56,2.8,2.8,0,0,0,.65.09A10.23,10.23,0,0,0,505.65,146.42Z" style="fill:#263238"></path><path d="M504.59,164A27.32,27.32,0,0,0,519,160.15s-3.64,7.38-14.39,6.36Z" style="fill:#7f473d"></path><path d="M510.4,131.09c.15.4,1.63.21,3.37.43s3.14.69,3.38.33c.1-.18-.14-.55-.71-.95a5.67,5.67,0,0,0-2.5-.88,5.56,5.56,0,0,0-2.64.31C510.66,130.58,510.34,130.9,510.4,131.09Z" style="fill:#263238"></path><path d="M496.36,130.67c.29.34,1.45,0,2.84,0s2.58.23,2.85-.12c.12-.17-.07-.51-.58-.83a4.3,4.3,0,0,0-2.32-.55,4.21,4.21,0,0,0-2.27.67C496.39,130.16,496.23,130.51,496.36,130.67Z" style="fill:#263238"></path><path d="M533.27,157.37a9.53,9.53,0,0,1-11.35-10.55c.33-2.64,1.75-5.32.84-7.82-1.21-3.3-5.84-4.32-7.07-7.61-.71-1.92-.07-4.16-.88-6s-2.62-2.78-4.43-3.43-3.74-1.11-5.26-2.28-2.46-3.41-1.49-5.06a101.92,101.92,0,0,1,23.48,5.7c1.76.65,3.6,1.44,4.64,3s1,3.78,1,5.76L531.35,158" style="fill:#263238"></path><path d="M538.94,122.46a.78.78,0,0,1,.18.44,1.6,1.6,0,0,1-.41,1.29,2.7,2.7,0,0,1-1.92,1,6.09,6.09,0,0,1-2.73-.81,7.49,7.49,0,0,0-3.13-.93,16.54,16.54,0,0,0-3.8.35,25.62,25.62,0,0,1-4.29.55,6.2,6.2,0,0,1-4.4-1.6,12.91,12.91,0,0,1-2.53-3.93,19.64,19.64,0,0,0-2-3.69,6,6,0,0,0-6.2-2.26,6.25,6.25,0,0,0-3.74,2.76,12.08,12.08,0,0,0-.79,1.6,1.19,1.19,0,0,1,.08-.47,6.17,6.17,0,0,1,.52-1.24,6.37,6.37,0,0,1,3.83-3,6.25,6.25,0,0,1,3.45.06,6.49,6.49,0,0,1,3.25,2.26,19.8,19.8,0,0,1,2.14,3.77,12.55,12.55,0,0,0,2.42,3.76,5.71,5.71,0,0,0,4,1.47,26.07,26.07,0,0,0,4.2-.52A16.51,16.51,0,0,1,531,123a7.83,7.83,0,0,1,3.28,1,6.1,6.1,0,0,0,2.54.85,2.46,2.46,0,0,0,1.76-.8,1.59,1.59,0,0,0,.47-1.14C539,122.62,538.91,122.47,538.94,122.46Z" style="fill:#455a64"></path><path d="M540.15,123.48c-.14.12-1.78-2.62-5.08-4.48a21,21,0,0,0-6.44-2.13,4.85,4.85,0,0,1,2,0,13.41,13.41,0,0,1,8.43,4.84A5,5,0,0,1,540.15,123.48Z" style="fill:#455a64"></path><path d="M528.09,116.31s0,.12-.15.32a3.13,3.13,0,0,1-.69.73,4.7,4.7,0,0,1-3.55.79,9,9,0,0,1-4.65-2.77c-1.46-1.42-2.81-3.24-4.78-4.37a8.47,8.47,0,0,0-6.17-.78,8.14,8.14,0,0,0-4.31,2.79,9.08,9.08,0,0,0-1.64,3.12c-.23.82-.27,1.29-.32,1.28s0-.12,0-.34a6.36,6.36,0,0,1,.14-1,8.25,8.25,0,0,1,1.54-3.31,8.35,8.35,0,0,1,4.48-3,8.81,8.81,0,0,1,6.56.8c2.12,1.21,3.46,3.08,4.87,4.48a8.79,8.79,0,0,0,4.36,2.75,4.65,4.65,0,0,0,3.37-.59A6,6,0,0,0,528.09,116.31Z" style="fill:#455a64"></path><path d="M527.6,162a1.79,1.79,0,0,0,.48.13,9.42,9.42,0,0,0,1.41.14,11,11,0,0,0,5.08-1.15,11.75,11.75,0,0,0,5.42-5.47,13.49,13.49,0,0,0,.91-9.36,27.44,27.44,0,0,1-.94-4.71,7.52,7.52,0,0,1,1.06-4.18,15.29,15.29,0,0,0,1.67-3.8,9.06,9.06,0,0,0,.1-3.65,9.62,9.62,0,0,0-2.22-4.71,7,7,0,0,0-1-1q-.39-.3-.42-.27c0,.05.51.45,1.26,1.4a9.88,9.88,0,0,1,2,4.62,8.69,8.69,0,0,1-.18,3.45,15.14,15.14,0,0,1-1.67,3.66,11,11,0,0,0-.9,2.09,7.35,7.35,0,0,0-.26,2.39,26.83,26.83,0,0,0,.94,4.82,13.11,13.11,0,0,1-.82,9,11.49,11.49,0,0,1-10,6.63C528.28,162.05,527.61,161.93,527.6,162Z" style="fill:#455a64"></path><path d="M546.63,114.4a3.47,3.47,0,0,0-1.83-1,7.21,7.21,0,0,0-8.51,3.9,3.51,3.51,0,0,0-.47,2c.1,0,.26-.74.87-1.8a7.43,7.43,0,0,1,8-3.67C545.89,114.12,546.58,114.49,546.63,114.4Z" style="fill:#455a64"></path><path d="M538.69,121.18s0-.24-.05-.7a3.57,3.57,0,0,1,.48-1.88,5.09,5.09,0,0,1,2.22-2.09,4.62,4.62,0,0,1,3.93-.1,7.22,7.22,0,0,1,3.52,3.36,10.8,10.8,0,0,1,1.09,5.57,36.7,36.7,0,0,1-1,6.37,27,27,0,0,0-.82,7,20.89,20.89,0,0,0,1.82,6.82,59.17,59.17,0,0,1,2.34,6,13.23,13.23,0,0,1,.48,5.7,16.64,16.64,0,0,1-1.49,4.81,37.87,37.87,0,0,1-3.94,6.24l-1.21,1.62a2.55,2.55,0,0,0-.39.58,3.26,3.26,0,0,0,.49-.5c.31-.35.75-.86,1.31-1.55a34.83,34.83,0,0,0,4.15-6.19,17.1,17.1,0,0,0,1.61-4.93,13.87,13.87,0,0,0-.45-5.95,58.38,58.38,0,0,0-2.32-6.11,20.58,20.58,0,0,1-1.76-6.62c-.2-4.71,1.71-9.07,1.78-13.31a11.31,11.31,0,0,0-1.22-5.84,7.63,7.63,0,0,0-3.81-3.53,5,5,0,0,0-4.26.2,5.31,5.31,0,0,0-2.28,2.29,3.54,3.54,0,0,0-.39,2A2.13,2.13,0,0,0,538.69,121.18Z" style="fill:#455a64"></path><path d="M506.21,150a7,7,0,0,0,.92,1.81,2.38,2.38,0,0,0,1.71,1,2.15,2.15,0,0,0,1.83-1,3.49,3.49,0,0,0,.51-2.08c0-.65-.33-1.43-1-1.51a1.58,1.58,0,0,0-.79.18L506,149.8" style="fill:#7f473d"></path><path d="M507.58,152.83a4.75,4.75,0,0,0,1.82-.22,2.63,2.63,0,0,0,1.38-1.25,2.8,2.8,0,0,0,0-2.24,2.14,2.14,0,0,0-.3-.51c-.13-.14-.11-.14-.26-.11s-.36.14-.54.21l-.56.23-2,.76a6.08,6.08,0,0,1-1.86.56,6.8,6.8,0,0,1,1.69-.95l1.9-.89.56-.25a5.67,5.67,0,0,1,.62-.25.81.81,0,0,1,.51,0,1.1,1.1,0,0,1,.38.3,3,3,0,0,1,.38.65,3.2,3.2,0,0,1-.1,2.73,2.89,2.89,0,0,1-1.74,1.4,2.72,2.72,0,0,1-1.48.06C507.72,153,507.56,152.87,507.58,152.83Z" style="fill:#263238"></path><path d="M541,357.07l-6.39-51.3c4.16-9.72,5.67-19.43,4.46-25.46.07.63.1,1.41-.07-.36-1-10.68-10.26-18.53-10.26-18.53l-3.09-13L486.13,254l1.49,21.69-24.79,80.56L457,443.34l21.07,2.35s8-39.53,10.22-55.42a220.53,220.53,0,0,0,2.05-26l19.39-29c2.3,12,4.89,26.76,6.23,34.47a20.25,20.25,0,0,0,4.3,9.39L571,419l12.13-15.74C578.33,391.78,541,357.07,541,357.07Z" style="fill:#263238"></path><path d="M491.2,270.11a8.7,8.7,0,0,1-.83-2.15,39,39,0,0,1-1.22-5.42,37.43,37.43,0,0,1-.43-5.54,9.21,9.21,0,0,1,.15-2.3,14.58,14.58,0,0,1,.19,2.29c.09,1.41.25,3.35.57,5.48s.74,4,1.08,5.4A13.32,13.32,0,0,1,491.2,270.11Z" style="fill:#455a64"></path><path d="M493,255.35s.15-.15.51-.23a2.36,2.36,0,0,1,1.51.22,2.34,2.34,0,0,1,1.34,1.85,2.67,2.67,0,0,1-1.26,2.49,2.47,2.47,0,0,1-2.77-.26,2.39,2.39,0,0,1-.93-2.08,3.66,3.66,0,0,1,.44-1.45c.17-.31.29-.46.32-.45s0,.2-.14.53a4.15,4.15,0,0,0-.27,1.39,2.13,2.13,0,0,0,3.1,1.89,2.23,2.23,0,0,0,1.06-2,2,2,0,0,0-1.05-1.58A2.92,2.92,0,0,0,493,255.35Z" style="fill:#455a64"></path><path d="M519,265.81s-.23.14-.69.29a9.92,9.92,0,0,1-2,.45,13.94,13.94,0,0,1-3,.11,17.15,17.15,0,0,1-3.66-.7,17.47,17.47,0,0,1-3.4-1.54,15.07,15.07,0,0,1-2.42-1.84,10.8,10.8,0,0,1-1.37-1.52c-.29-.39-.43-.62-.4-.64s.71.8,2,1.9a16.54,16.54,0,0,0,2.42,1.71,18.14,18.14,0,0,0,3.32,1.46,19,19,0,0,0,3.55.72,17.25,17.25,0,0,0,3,0C517.94,266.05,519,265.72,519,265.81Z" style="fill:#455a64"></path><path d="M531.69,304.52a4.48,4.48,0,0,1-.43.61L530,306.79c-1.09,1.48-2.68,3.61-4.58,6.29-3.81,5.35-9,12.83-14.59,21.12L496.4,355.48,492,361.93l-1.2,1.74a4.28,4.28,0,0,1-.45.58,4.81,4.81,0,0,1,.37-.64l1.12-1.79,4.24-6.53c3.6-5.5,8.63-13.06,14.26-21.36s10.83-15.75,14.72-21.05c1.94-2.66,3.57-4.76,4.71-6.21.58-.67,1-1.2,1.38-1.61A4,4,0,0,1,531.69,304.52Z" style="fill:#455a64"></path><path d="M527.54,186.34c.08,0,.08-1,.36-2.67a18.48,18.48,0,0,1,2.16-6,10.26,10.26,0,0,1,4.41-4.48,6.19,6.19,0,0,1,2.58-.41,1.43,1.43,0,0,0-.71-.19,4.39,4.39,0,0,0-2,.27,9.82,9.82,0,0,0-4.7,4.56,16.8,16.8,0,0,0-2.09,6.24A7.8,7.8,0,0,0,527.54,186.34Z" style="fill:#263238"></path><path d="M524.12,170.36l-20,3.1-12.44,16.4a35.94,35.94,0,0,0-7.22,22.94,40.53,40.53,0,0,0,3.1,12.34l-3.12,23.49c-.46,2.7,1.29,5.29,2.47,5.29l37.48-5c4.88-1,6.89-3.51,6.59-6.34l-.56-5.24,12.36-52.83c.94,3.16.4-10.2-6.75-12.83A21.75,21.75,0,0,0,524.12,170.36Z" style="fill:#B95555"></path><path d="M498.06,181.23a1.79,1.79,0,0,0-.31.35l-.83,1.06c-.7.93-1.71,2.29-2.91,4a64.41,64.41,0,0,0-7.86,14.17,30.72,30.72,0,0,0-1.76,15.9,21.15,21.15,0,0,0,1.38,4.7,12.38,12.38,0,0,0,.57,1.21,3.72,3.72,0,0,0,.24.41,13.36,13.36,0,0,0-.63-1.68,24,24,0,0,1-1.21-4.7A31.57,31.57,0,0,1,486.63,201a69.45,69.45,0,0,1,7.68-14.14l2.77-4.07.75-1.11A2.19,2.19,0,0,0,498.06,181.23Z" style="fill:#263238"></path><path d="M528.1,194a2.08,2.08,0,0,0,0,.47c0,.37.1.82.16,1.36.16,1.17.43,2.87.8,5,.75,4.17,1.94,9.89,3.36,16.19s2.81,12,3.87,16.07c.53,2.05,1,3.7,1.3,4.84.16.52.29.95.39,1.31s.15.45.17.44a1.69,1.69,0,0,0-.07-.47l-.3-1.33c-.28-1.23-.67-2.87-1.14-4.87l-3.73-16.1c-1.42-6.3-2.66-12-3.5-16.15l-.95-4.91c-.1-.54-.19-1-.25-1.34S528.12,194,528.1,194Z" style="fill:#263238"></path><g style="opacity:0.30000000000000004"><path d="M527.13,248.15c-2.15-2.15-2.6-5.43-2.94-8.46q-1.61-14.44-3.22-28.89c-.67-6-1.3-12.3,1-17.9a3.06,3.06,0,0,1,1.71-2,2.26,2.26,0,0,1,2.26.93c.52.69,2,1.69,2.19,2.52,2.19,8.59,3.14,17,5.33,25.63.57,2.27,1.33,2.18.83,4.47-.73,3.32-3.84,12.85-3.84,12.85s.44,3.47.57,5.49a5.23,5.23,0,0,1-3.86,5.35"></path></g><polygon points="503.24 175.28 502.61 169.99 529.14 166.6 529.14 172.53 503.24 175.28" style="fill:#B95555"></polygon><path d="M392.38,423.5l11.51,19.36s-15.81,18.2-14,22l38.34-21L411.5,413Z" style="fill:#455a64"></path><path d="M414.84,434.71a1.77,1.77,0,0,1,2.05,1.2,1.71,1.71,0,0,1-1.16,2,1.89,1.89,0,0,1-2.18-1.28,1.79,1.79,0,0,1,1.45-2" style="fill:#e0e0e0"></path><path d="M428.19,443.87l-1.8-3L390.3,462.07s-1.3,1.67-.45,2.77Z" style="fill:#263238"></path><path d="M403.16,443c.11.18,1.09-.24,2.34-.14s2.17.61,2.31.44-.74-1.09-2.26-1.19S403,442.85,403.16,443Z" style="fill:#263238"></path><path d="M400.05,446.86c.06.21,1,.08,2.11.53s1.71,1.18,1.89,1.07-.28-1.24-1.62-1.76S400,446.68,400.05,446.86Z" style="fill:#263238"></path><path d="M400.4,452.93c.19-.06-.06-1.14-1.1-1.9s-2.14-.69-2.14-.49.85.45,1.7,1.09S400.2,453,400.4,452.93Z" style="fill:#263238"></path><path d="M401,438.3c.17.13.89-.6,2-1.11s2.11-.62,2.12-.84-1.15-.45-2.43.17S400.85,438.2,401,438.3Z" style="fill:#263238"></path><path d="M393.87,431.39l.85,22.5s-22.6,8.42-22.85,12.59l43.7-.06.13-35.13Z" style="fill:#455a64"></path><path d="M408.23,452a1.78,1.78,0,0,1,1.23,2,1.71,1.71,0,0,1-2,1.25,1.89,1.89,0,0,1-1.3-2.16,1.78,1.78,0,0,1,2.23-1.07" style="fill:#e0e0e0"></path><path d="M415.57,466.42l-.12-3.54-41.85,1.38s-2,.85-1.73,2.22Z" style="fill:#263238"></path><path d="M394,453.67c0,.22,1.07.31,2.12,1s1.61,1.59,1.81,1.5-.12-1.32-1.41-2.12S394,453.48,394,453.67Z" style="fill:#263238"></path><path d="M389.43,455.57c-.05.21.87.57,1.6,1.47s.94,1.86,1.15,1.85.35-1.22-.58-2.32S389.43,455.37,389.43,455.57Z" style="fill:#263238"></path><path d="M386.83,461.06c.2.05.49-1-.06-2.19s-1.55-1.63-1.64-1.45.53.8,1,1.77S386.62,461,386.83,461.06Z" style="fill:#263238"></path><path d="M394.39,448.52c.08.2,1.06-.1,2.27,0s2.15.46,2.26.28-.8-.95-2.22-1S394.28,448.35,394.39,448.52Z" style="fill:#263238"></path><path d="M415.91,293.25s2.46,12.4,1.22,14.18a57.34,57.34,0,0,0-3.45,7.46l.72,55.72,3.82,82-26-.51-9.76-72.42a59,59,0,0,1-5.17-12.45c-1.4-5.75-9.17-62.81-9.17-62.81l.43-21.94Z" style="fill:#263238"></path><path d="M356.73,283.72s4,74.71,5.65,81.37,37.34,75.1,37.34,75.1l22.52-10.52-28.19-72.08,1.35-69Z" style="fill:#263238"></path><path d="M365.51,290.32a2.22,2.22,0,0,0,0,.42c0,.3.09.71.15,1.24.15,1.11.35,2.71.62,4.75.57,4.14,1.38,10.1,2.39,17.45s2.25,16.13,3.61,25.87c.69,4.86,1.37,10,2.18,15.27a92,92,0,0,0,3.74,16.16c1.85,5.38,4.55,10.3,5.39,15.59,1,5.23,1.7,10.35,2.37,15.22,1.28,9.75,2.29,18.54,3.16,25.93s1.56,13.36,2.1,17.48c.27,2.07.49,3.67.66,4.75.09.52.16.92.21,1.23a2.39,2.39,0,0,0,.09.41s0-.14,0-.42-.09-.72-.15-1.24l-.56-4.75c-.46-4.16-1.12-10.14-1.93-17.51s-1.79-16.19-3-25.94c-.65-4.88-1.32-10-2.34-15.27-.85-5.37-3.57-10.34-5.4-15.66A92.84,92.84,0,0,1,375,355.24c-.81-5.28-1.5-10.4-2.21-15.26l-3.72-25.86c-1.08-7.33-1.95-13.28-2.56-17.42L365.8,292c-.09-.52-.15-.93-.2-1.23A2.39,2.39,0,0,0,365.51,290.32Z" style="fill:#455a64"></path><path d="M416.17,408.57a9.55,9.55,0,0,0,0,1.72c0,1.11.06,2.71.13,4.69.15,4,.43,9.43.77,15.46s.63,11.51.81,15.46c.09,1.91.16,3.49.22,4.69a9.7,9.7,0,0,0,.14,1.72,10.3,10.3,0,0,0,.07-1.73c0-1.1,0-2.71,0-4.69-.08-4-.31-9.44-.65-15.48s-.69-11.4-.93-15.45c-.12-1.9-.23-3.48-.3-4.68A11.14,11.14,0,0,0,416.17,408.57Z" style="fill:#455a64"></path><path d="M388.75,125.81,394.13,167c.91,7,.83,17.49-10.32,18.43h0c-9.74.08-13.36-8.71-14.2-15.25-.41-3.11-.75-5.69-.81-6,0,0-10.62.38-12.73-9.91-1-5-2.29-15.38-3.33-24.81a19.55,19.55,0,0,1,15.75-21.33l1-.2C380.33,106.51,387.62,114.92,388.75,125.81Z" style="fill:#ffd5bd"></path><path d="M368.76,164.05a24.4,24.4,0,0,0,12.7-6.4s-1.75,8-12.21,9.08Z" style="fill:#ffb294"></path><path d="M355.27,134.32c.22.18,1.61-.43,3.55-.29s3.33.92,3.55.77-.11-.38-.72-.74a6.78,6.78,0,0,0-2.84-.81,6.2,6.2,0,0,0-2.83.43C355.37,134,355.16,134.24,355.27,134.32Z" style="fill:#263238"></path><path d="M371.49,133c.27.06,1.25-1.09,3-1.82s3.38-.67,3.5-.9-.26-.28-1-.33a6.94,6.94,0,0,0-2.89.54,6.06,6.06,0,0,0-2.33,1.63C371.42,132.61,371.36,133,371.49,133Z" style="fill:#263238"></path><path d="M371.18,136.3a1.16,1.16,0,0,0,1.32.93,1.09,1.09,0,0,0,1-1.25,1.15,1.15,0,0,0-1.31-.93A1.1,1.1,0,0,0,371.18,136.3Z" style="fill:#263238"></path><path d="M356.35,138a1.16,1.16,0,0,0,1.32.94,1.1,1.1,0,0,0,1-1.25,1.15,1.15,0,0,0-1.31-.94A1.11,1.11,0,0,0,356.35,138Z" style="fill:#263238"></path><path d="M368.07,144.27a10.91,10.91,0,0,0-2.66,0c-.41,0-.81,0-.93-.23a2,2,0,0,1,0-1.25l.6-3.31c.82-4.71,1.32-8.55,1.14-8.58s-1,3.76-1.83,8.47c-.19,1.15-.37,2.26-.55,3.32a2.35,2.35,0,0,0,.1,1.62,1,1,0,0,0,.78.47,2.56,2.56,0,0,0,.7,0A10.29,10.29,0,0,0,368.07,144.27Z" style="fill:#263238"></path><path d="M371,125c.21.36,1.57-.09,3.25-.2s3.09.09,3.24-.3c.07-.19-.24-.52-.84-.79a5.5,5.5,0,0,0-4.95.38C371.12,124.47,370.88,124.84,371,125Z" style="fill:#263238"></path><path d="M354.82,130.19c.22.29,1.54-.22,3.18-.46s3-.2,3.17-.55c.05-.16-.25-.41-.86-.59a5.72,5.72,0,0,0-2.48-.12,6.08,6.08,0,0,0-2.35.88C355,129.71,354.72,130.05,354.82,130.19Z" style="fill:#263238"></path><path d="M389.38,133.61c.16-.11,6.68-3.46,7.81,3.63S391,144,390.93,143.8,389.38,133.61,389.38,133.61Z" style="fill:#ffd5bd"></path><path d="M392.67,140.77s.13.07.36.13a1.22,1.22,0,0,0,.92-.13,3.08,3.08,0,0,0,1-3,4,4,0,0,0-.63-1.71,1.44,1.44,0,0,0-1.08-.8.62.62,0,0,0-.67.45c-.07.22,0,.35,0,.37s-.17-.09-.16-.4a.89.89,0,0,1,.21-.49,1,1,0,0,1,.66-.29,1.75,1.75,0,0,1,1.46.9,4.29,4.29,0,0,1,.75,1.91c.18,1.43-.34,2.89-1.32,3.35a1.35,1.35,0,0,1-1.16,0C392.71,140.94,392.64,140.79,392.67,140.77Z" style="fill:#ffb294"></path><path d="M370.33,149c-.09-.17,1.25-.75,2.08-2.18a8.57,8.57,0,0,0,.77-2c.14-.54.26-.88.34-.87s.1.37.05.94a5.22,5.22,0,0,1-.67,2.2,4.38,4.38,0,0,1-1.65,1.61C370.73,149,370.36,149.07,370.33,149Z" style="fill:#263238"></path><path d="M337.84,121.78a1.66,1.66,0,0,1,.68-1.07,5.14,5.14,0,0,1,2.6-.75,15.18,15.18,0,0,0,7.54-3.29,35,35,0,0,1,3.11-4.84c2.77-3.62,5.1-6.13,7.65-7.53a24.41,24.41,0,0,1,12.77-2.53c3.72.52,7.32,3.07,8.26,6.72,1.82-2,4.87-2.3,7.45-1.6l.06,0c2.87.65,4.77,3.38,5.92,6.08s1.84,5.67,3.62,8c.37.49.81,1.08.61,1.65a1.18,1.18,0,0,1-1.15.68,3.62,3.62,0,0,1-1.35-.43l1.18,2.09a6.57,6.57,0,0,1-3,.16,64.49,64.49,0,0,1-1.08,7.62,4.26,4.26,0,0,0-2.83,1.06c-.86,1-1.1,2.66-2.77,2.23-.85-.22-1.8-1.84-2.17-2.64a40.86,40.86,0,0,1-3.78-17,13,13,0,0,0-4.37-2.43l.14.1c-3-.67-6.43-1.27-9,.42-2,1.3-3,3.67-4.4,5.63a16.43,16.43,0,0,1-11,6.74c.19,2.94.92,7,1.11,10l-3-4.39v0c-.24-.32-.45-.64-.65-1l-.07-.1h0a16.8,16.8,0,0,0-1-1.57l0,0a1.84,1.84,0,0,1-3-2.13,4,4,0,0,1,.78-1,2.92,2.92,0,0,1-2.68,1,2.27,2.27,0,0,1-1.86-2,1.91,1.91,0,0,1,1-1.68,6.59,6.59,0,0,1-3.8-.39C338.5,123.33,337.7,122.73,337.84,121.78Z" style="fill:#263238"></path><path d="M377.32,110.07a9.39,9.39,0,0,1,1.15.83,7.42,7.42,0,0,1,2,3.26,12.86,12.86,0,0,1,.58,2.61c.12,1,.16,2,.22,3.08a26.07,26.07,0,0,0,.32,3.42A12.71,12.71,0,0,0,382,125a4,4,0,0,0,.94,1.66,1.62,1.62,0,0,0,1.53.32,2.4,2.4,0,0,0,1.23-.9,5.38,5.38,0,0,0,.69-2.77l-.21.06a8.55,8.55,0,0,0,1.52,2,3.15,3.15,0,0,0,2.15.86,2,2,0,0,0,1.05-.32,1.66,1.66,0,0,0,.64-.8,1.74,1.74,0,0,0,.11-1,1.31,1.31,0,0,0-.42-.77l-.1.12a6.81,6.81,0,0,0,2.43,1.41c.31.1.55.15.72.19l.26,0-.25-.07-.71-.23a6.92,6.92,0,0,1-2.35-1.44l-.1.11a1.34,1.34,0,0,1,.25,1.53,1.57,1.57,0,0,1-.58.72,1.92,1.92,0,0,1-1,.27,2.92,2.92,0,0,1-2-.83,8.87,8.87,0,0,1-1.47-2l-.18-.32,0,.37a5.2,5.2,0,0,1-.66,2.64,2.07,2.07,0,0,1-1.1.8,1.35,1.35,0,0,1-1.3-.27,3.48,3.48,0,0,1-.86-1.55,12.24,12.24,0,0,1-.45-1.73,29.19,29.19,0,0,1-.33-3.39c-.06-1.09-.11-2.13-.24-3.1a13.29,13.29,0,0,0-.61-2.64,7.32,7.32,0,0,0-2.11-3.27A4.18,4.18,0,0,0,377.32,110.07Z" style="fill:#455a64"></path><path d="M346.35,124l.09.06.29.16a4.15,4.15,0,0,0,.47.23,6.77,6.77,0,0,0,.67.26,9.25,9.25,0,0,0,4.54.27,11.79,11.79,0,0,0,6-3,20.34,20.34,0,0,0,4.66-6.85c.61-1.35,1.07-2.71,1.61-4a14.18,14.18,0,0,1,1.95-3.44,7.14,7.14,0,0,1,2.78-2.17,5.28,5.28,0,0,1,1.56-.37,6,6,0,0,1,5.15,2.54,6.44,6.44,0,0,1,.72,1.5s0,0,0-.11l-.08-.31a5.72,5.72,0,0,0-.54-1.13,5.9,5.9,0,0,0-1.35-1.44,6,6,0,0,0-2.36-1.11,5.86,5.86,0,0,0-1.53-.13,5.58,5.58,0,0,0-1.62.37,7.26,7.26,0,0,0-2.88,2.22,13.7,13.7,0,0,0-2,3.49c-.54,1.28-1,2.64-1.61,4a20.62,20.62,0,0,1-4.59,6.78,11.7,11.7,0,0,1-5.88,3,9.45,9.45,0,0,1-4.48-.19A14.28,14.28,0,0,1,346.35,124Z" style="fill:#455a64"></path><path d="M344.87,119.51s.13.09.4.22a8.41,8.41,0,0,0,1.17.43,11.86,11.86,0,0,0,1.82.37,13.06,13.06,0,0,0,2.27,0,12.1,12.1,0,0,0,2.23-.42,10.31,10.31,0,0,0,1.72-.67,7,7,0,0,0,1.08-.62,2.38,2.38,0,0,0,.37-.28s-.57.32-1.52.74a11.82,11.82,0,0,1-1.71.62,15.29,15.29,0,0,1-2.19.39,13.71,13.71,0,0,1-2.23,0,12.2,12.2,0,0,1-1.79-.31C345.48,119.74,344.89,119.47,344.87,119.51Z" style="fill:#455a64"></path><path d="M358.79,233.91c0-1.31,10.48-59.45,10.48-59.45,2-1.87,24.12-18.05,24.12-18.05l19.11,22.94s4.82,18,6.3,31c1,8.58,5.42,49.51,6.7,66.79a13.14,13.14,0,0,1-5.66,11.79l-2,.21-.53,5.16c-17.67.4-60.32-7.45-60.86-7.12S358.82,238.64,358.79,233.91Z" style="fill:#455a64"></path><path d="M356.43,280.76a4.22,4.22,0,0,0,.61.16l1.76.4c1.52.34,3.75.77,6.5,1.27,5.51,1,13.15,2.16,21.62,3.21s16.16,1.88,21.72,2.52l6.58.73,1.79.19a4.23,4.23,0,0,0,.63,0,2.91,2.91,0,0,0-.62-.13l-1.78-.27c-1.55-.22-3.79-.52-6.57-.88L387,285.36c-8.47-1.05-16.11-2.15-21.63-3.08-2.75-.46-5-.84-6.52-1.13l-1.77-.31A2.71,2.71,0,0,0,356.43,280.76Z" style="fill:#263238"></path><path d="M402.33,155c3.07.88,5.63,3,8.09,5l10.64,8.8c2.05,1.7,4.19,3.52,5.1,6,1.32,3.6-.41,7.84-3.47,10.14a14.72,14.72,0,0,1-10.95,2.31,38.41,38.41,0,0,1-10.8-3.76L392.61,157C394.45,154.36,399.27,154.11,402.33,155Z" style="fill:#455a64"></path><path d="M369,174.68a6.4,6.4,0,0,0,1.13-.47c.72-.32,1.74-.83,3-1.49a88.58,88.58,0,0,0,9.36-5.8c3.53-2.48,6.6-4.86,8.83-6.58l2.63-2.05a7.33,7.33,0,0,0,.94-.79,5.77,5.77,0,0,0-1,.66c-.65.44-1.58,1.1-2.72,1.93-2.28,1.65-5.38,4-8.89,6.47s-6.81,4.51-9.26,5.89c-1.23.69-2.22,1.24-2.92,1.61A5.59,5.59,0,0,0,369,174.68Z" style="fill:#263238"></path><path d="M398.93,166.42a6.53,6.53,0,0,0,1,.82c.34.24.73.56,1.18.94s1,.79,1.52,1.28a39.2,39.2,0,0,1,7.46,8.72,40.62,40.62,0,0,1,4.61,10.51c.38,1.42.68,2.58.83,3.39a7.34,7.34,0,0,0,.32,1.25,6.69,6.69,0,0,0-.15-1.28c-.1-.82-.35-2-.69-3.44a37.57,37.57,0,0,0-4.55-10.67,36.64,36.64,0,0,0-7.62-8.71c-.57-.49-1.1-.9-1.58-1.25s-.88-.65-1.23-.88A8.9,8.9,0,0,0,398.93,166.42Z" style="fill:#263238"></path><g style="opacity:0.30000000000000004"><path d="M399.59,155.48c7.6.92,15.7,9.37,21.88,14.44-2.55.53-6.49-2-8.81-3.23-5.81-2.95-10.08-7.72-17.77-9.19l-2.28-.54C394,155.75,397.93,155.35,399.59,155.48Z"></path></g><path d="M395.15,157.48s.41.07,1.14.25a13.46,13.46,0,0,1,3,1.14c2.39,1.24,5.45,3.42,8.93,5.66a49.85,49.85,0,0,0,9.37,5,24.79,24.79,0,0,0,3.08,1,5.68,5.68,0,0,0,1.17.2,7.37,7.37,0,0,0-1.12-.37c-.72-.22-1.76-.56-3-1.07a56.58,56.58,0,0,1-9.25-5.06,100.85,100.85,0,0,0-9-5.57,11.71,11.71,0,0,0-3.06-1,6.5,6.5,0,0,0-.88-.1C395.25,157.46,395.15,157.46,395.15,157.48Z" style="fill:#263238"></path><g style="opacity:0.30000000000000004"><path d="M393.64,197.36c-3,20.13-6.46,41.18-18.7,57.45-3.23,4.29-7.82,8.48-13.17,8-2.13-.2-4.57-2.11-3.69-4.06,0,.2,2.33-.93,4-2,3.61-2.34,6.79-3.31,9.14-6.92s4.31-8.58,6.05-12.52c5.44-12.36,12-27.33,16.4-39.93"></path></g><path d="M403.14,294.2a6.94,6.94,0,0,0,1-3.06,7.13,7.13,0,0,0-.08-3.21c-.13,0-.11,1.43-.36,3.15S403,294.16,403.14,294.2Z" style="fill:#263238"></path><path d="M395.1,292.61a18.49,18.49,0,0,0,.65-5.74,19.43,19.43,0,0,0-.65,5.74Z" style="fill:#263238"></path><path d="M385.72,291a9.7,9.7,0,0,0,.74-2.82,9.84,9.84,0,0,0,.29-2.91,10,10,0,0,0-.73,2.83A9.6,9.6,0,0,0,385.72,291Z" style="fill:#263238"></path><path d="M377.51,290.29a27.33,27.33,0,0,0,.63-2.79,26.68,26.68,0,0,0,.74-2.76,8.44,8.44,0,0,0-1.37,5.55Z" style="fill:#263238"></path><path d="M369.19,288.68a7.2,7.2,0,0,0,.7-2.38,7.07,7.07,0,0,0,.27-2.47,7.2,7.2,0,0,0-.7,2.38A7.07,7.07,0,0,0,369.19,288.68Z" style="fill:#263238"></path><path d="M361.71,288.18c.13,0,.19-1.39.53-3.06s.8-3,.68-3a6.85,6.85,0,0,0-1.12,3A6.74,6.74,0,0,0,361.71,288.18Z" style="fill:#263238"></path><path d="M374,252a4.17,4.17,0,0,0-.14,1,8.25,8.25,0,0,0-.06,1.19,14.23,14.23,0,0,0,0,1.56,22.67,22.67,0,0,0,.62,4,26.48,26.48,0,0,0,1.72,4.7,25.75,25.75,0,0,0,2.67,4.23,22,22,0,0,0,2.81,3,15.23,15.23,0,0,0,1.22,1,8.23,8.23,0,0,0,1,.67,4.93,4.93,0,0,0,.88.51c.05-.08-1.17-.84-2.85-2.4a24.88,24.88,0,0,1-2.7-3,25,25,0,0,1-4.31-8.78,24.74,24.74,0,0,1-.71-4C373.91,253.42,374.06,252,374,252Z" style="fill:#263238"></path><g style="opacity:0.30000000000000004"><path d="M381.46,271l-.27-.23a22.48,22.48,0,0,1-7-13.05C377.83,261,380.42,266.25,381.46,271Z"></path></g><path d="M383.29,285a13.15,13.15,0,0,0,1.79-9.6,43.82,43.82,0,0,1-.4,4.89A46.48,46.48,0,0,1,383.29,285Z" style="fill:#263238"></path><path d="M370.36,250.39c-.05.12.64.55,1.55,1a3.88,3.88,0,0,0,1.73.56c.05-.11-.64-.54-1.55-1A3.88,3.88,0,0,0,370.36,250.39Z" style="fill:#263238"></path><path d="M410.58,294.38a5.1,5.1,0,0,0,1.14-2.88,5,5,0,0,0-.35-3.06c-.13,0,.13,1.37-.09,3S410.46,294.31,410.58,294.38Z" style="fill:#263238"></path><polygon points="610.23 259.25 607.09 210.98 296.74 231.12 294.91 202.78 231.49 259.58 301.78 308.77 299.88 279.39 610.23 259.25" style="fill:#e0e0e0"></polygon><path d="M610.23,259.25,299.89,279.63l.23-.26L302,308.75l0,.53-.43-.3-70.3-49.18-.27-.19.24-.22,17.37-15.55,46.05-41.25.4-.35,0,.52q.93,14.38,1.84,28.34l-.27-.24,310.36-20h.11V211c2,31.4,3,47.45,3,48.28Q610.14,258,607,211l.12.11L296.76,231.37l-.25,0,0-.26q-.92-13.95-1.84-28.33l.43.17-46,41.26-17.37,15.55,0-.41c24.12,16.89,47.63,33.34,70.29,49.19l-.4.23c-.66-10.15-1.31-20.17-1.9-29.39l0-.24.25,0Z" style="fill:#263238"></path><g style="opacity:0.30000000000000004"><path d="M540.28,224.53c-.7-3.06-1.9-6.07-1.89-9.21l-9.62.8c.91,4.33,1.8,9,.09,13.06-1.55,3.69-5,6.24-8.37,8.33-6.42,4-13.73,7.26-17.75,13.64,3.08,1.52,6.7-.17,9.71-1.83L534.71,237a13.63,13.63,0,0,0,4.53-3.43C541.11,231.08,541,227.59,540.28,224.53Z"></path></g><path d="M343.57,260.94l-14.34,2-10.82,12.73s1.62,1.47,4.54-.27c1.26-.75-1.55,2.61-1.55,2.61l-7.72.55a1.91,1.91,0,0,0,1.09,2.53c1.79.64,8.22.87,8.22.87l.66-1a3.47,3.47,0,0,0,3,.87,10.71,10.71,0,0,0,5.48.54,16.6,16.6,0,0,0,4.75-1.36l13.55-12.83Z" style="fill:#ffd5bd"></path><path d="M331.15,267.29a20.22,20.22,0,0,0-4.3,3.65,20.58,20.58,0,0,0-3.54,4.4c.12.09,1.74-1.83,3.9-4S331.24,267.41,331.15,267.29Z" style="fill:#ffb294"></path><path d="M329,275.76a18.87,18.87,0,0,0-3.2,2.94,18.43,18.43,0,0,0-2.84,3.28,37,37,0,0,0,6-6.22Z" style="fill:#ffb294"></path><path d="M332,277.29a31.92,31.92,0,0,0-2.62,2.34,30,30,0,0,0-2.7,2.26,7.89,7.89,0,0,0,3-1.88A7.8,7.8,0,0,0,332,277.29Z" style="fill:#ffb294"></path><path d="M335.15,278.59a12.28,12.28,0,0,0-2.11,1.83c-1.13,1-2.1,1.83-2,1.95a6.06,6.06,0,0,0,2.36-1.58A5.88,5.88,0,0,0,335.15,278.59Z" style="fill:#ffb294"></path><g style="opacity:0.30000000000000004"><path d="M394.74,225.62c-4.92-1.79-10.52.76-14.07,4.61s-5.57,8.81-8,13.46a83.94,83.94,0,0,1-21.12,26.14l5.66,3.11a152.16,152.16,0,0,0,22.37-11.46c5.07-3.16,10.13-6.8,13-12C396.49,242.32,395.67,233.67,394.74,225.62Z"></path></g><path d="M393.42,187.81s2.11,50.84-5.14,59.4-32.43,26.13-32.43,26.13l-3.13-.3-5.32,1.19-8.55-12.78,26.16-28s1-52.84,1.88-54.2,2.13-7.87,11.05-7.06S393.67,180.9,393.42,187.81Z" style="fill:#455a64"></path><path d="M388,174.75a5.56,5.56,0,0,1,.94.7,11,11,0,0,1,1.95,2.8,25.76,25.76,0,0,1,2,5,28.45,28.45,0,0,1,.49,7.14c-.07,10.68-.5,25.42-1.59,41.65-.13,2-.27,4-.53,6a25.48,25.48,0,0,1-1.28,5.61,17.75,17.75,0,0,1-3,4.51c-1.2,1.33-2.42,2.59-3.68,3.75-5,4.64-9.9,8.38-14,11.51s-7.49,5.56-9.83,7.25l-2.69,2-.69.51a1.33,1.33,0,0,0-.23.19l.25-.15.72-.48,2.73-1.89c2.36-1.66,5.77-4.08,9.91-7.16a176.05,176.05,0,0,0,14.08-11.46c1.27-1.16,2.5-2.42,3.71-3.76a18.09,18.09,0,0,0,3.11-4.62,25.78,25.78,0,0,0,1.31-5.71c.26-2,.41-4,.54-6,1.08-16.23,1.48-31,1.47-41.67a28,28,0,0,0-.56-7.21,25.84,25.84,0,0,0-2.1-5.06,11,11,0,0,0-2-2.78A2.63,2.63,0,0,0,388,174.75Z" style="fill:#263238"></path><path d="M365,233.46c0,.12,1.79.46,3.8,1.49s3.45,2.23,3.53,2.13a9.88,9.88,0,0,0-3.36-2.5A8.46,8.46,0,0,0,365,233.46Z" style="fill:#263238"></path><path d="M366.86,185.21c.06,0-.05-.9.09-2.31a12.56,12.56,0,0,1,1.69-5.16,11.78,11.78,0,0,1,3.72-3.81c1.15-.73,2-1,1.94-1.08a1.86,1.86,0,0,0-.59.14,9.87,9.87,0,0,0-1.5.69,10.94,10.94,0,0,0-3.91,3.84,11.67,11.67,0,0,0-1.63,5.35,10.91,10.91,0,0,0,.05,1.72A1.8,1.8,0,0,0,366.86,185.21Z" style="fill:#263238"></path><path d="M338.85,261.45a4.83,4.83,0,0,1,.48-.59l1.47-1.64,5.48-6,18.5-19.95-.07.16c.05-1.23.11-2.54.17-3.86.52-11.62,1-22.13,1.34-29.79.2-3.77.36-6.84.47-9,.06-1,.11-1.84.15-2.45a4.74,4.74,0,0,1,.09-.85,5.7,5.7,0,0,1,0,.86c0,.61,0,1.42-.06,2.45-.07,2.19-.17,5.26-.3,9-.31,7.67-.73,18.18-1.19,29.8-.06,1.32-.12,2.63-.17,3.87v.09l-.07.07-18.62,19.84-5.6,5.88-1.53,1.58A5.76,5.76,0,0,1,338.85,261.45Z" style="fill:#263238"></path><path d="M508.5,253l-13.21.93-10.7,10.92s1.39,1.44,4.16.05c1.21-.61-1.58,2.28-1.58,2.28H480.1a1.75,1.75,0,0,0,.82,2.39c1.6.69,7.45,1.32,7.45,1.32L489,270a3.18,3.18,0,0,0,2.71,1,9.79,9.79,0,0,0,5,.84,15.07,15.07,0,0,0,4.42-.93l13.19-10.84Z" style="fill:#bc8f86"></path><path d="M496.76,258a27.46,27.46,0,0,0-7.67,6.84c.1.09,1.7-1.56,3.82-3.44S496.83,258.06,496.76,258Z" style="fill:#7f473d"></path><path d="M494.24,265.54a17.71,17.71,0,0,0-3.11,2.47,18.05,18.05,0,0,0-2.81,2.82,16.87,16.87,0,0,0,3.12-2.47A17.19,17.19,0,0,0,494.24,265.54Z" style="fill:#7f473d"></path><path d="M496.92,267.14a27.36,27.36,0,0,0-2.55,2,28.71,28.71,0,0,0-2.61,1.89,7.29,7.29,0,0,0,2.88-1.52A7.41,7.41,0,0,0,496.92,267.14Z" style="fill:#7f473d"></path><path d="M499.69,268.52a11,11,0,0,0-2.05,1.54,11.64,11.64,0,0,0-2,1.64,5.54,5.54,0,0,0,2.26-1.28A5.48,5.48,0,0,0,499.69,268.52Z" style="fill:#7f473d"></path><path d="M532.8,171s9.36-.56,13.62,12.2,12.47,43.49,11.73,51.94-46.51,29.26-46.51,29.26l-10.39-12.88L536,228.73l-9.16-40.79S523.16,172.11,532.8,171Z" style="fill:#B95555"></path><path d="M536.29,171.89a12,12,0,0,0-2.88.71,10.2,10.2,0,0,0-4.94,4.92,18.86,18.86,0,0,0-1.57,7c-.11,1.85-.09,3-.17,3a12.54,12.54,0,0,1-.2-3,17.28,17.28,0,0,1,1.47-7.18,10,10,0,0,1,5.27-5,6.66,6.66,0,0,1,2.2-.45A1.94,1.94,0,0,1,536.29,171.89Z" style="fill:#263238"></path><path d="M544.64,230.55c-.07.14-1.75-.68-4-1s-4.08-.06-4.11-.21a9.6,9.6,0,0,1,8.11,1.22Z" style="fill:#263238"></path></g></svg>