<svg xmlns="http://www.w3.org/2000/svg" viewBox="0 0 500 500"><g id="freepik--Shadow--inject-38"><ellipse id="freepik--path--inject-38" cx="250" cy="426.24" rx="193.89" ry="11.32" style="fill:#f5f5f5"></ellipse></g><g id="freepik--speech-bubble--inject-38"><path d="M276.22,148.41A47.13,47.13,0,0,0,304.68,160a47.19,47.19,0,0,1-19.89-16.86c10.71-8.08,17.43-19.68,17.43-32.56,0-24.41-24.1-44.2-53.83-44.2s-53.83,19.79-53.83,44.2c0,12.88,6.73,24.48,17.44,32.56A47.16,47.16,0,0,1,192.1,160a47.16,47.16,0,0,0,28.47-11.59,64,64,0,0,0,55.65,0Z" style="fill:#B95555"></path><path d="M276.22,148.41A47.13,47.13,0,0,0,304.68,160a47.19,47.19,0,0,1-19.89-16.86c10.71-8.08,17.43-19.68,17.43-32.56,0-24.41-24.1-44.2-53.83-44.2s-53.83,19.79-53.83,44.2c0,12.88,6.73,24.48,17.44,32.56A47.16,47.16,0,0,1,192.1,160a47.16,47.16,0,0,0,28.47-11.59,64,64,0,0,0,55.65,0Z" style="fill:#fff;opacity:0.6000000000000001"></path><ellipse cx="239.72" cy="113.59" rx="20.66" ry="25.68" transform="translate(-24.25 87.37) rotate(-19.68)" style="fill:#B95555"></ellipse><ellipse cx="241.24" cy="113.05" rx="16.68" ry="20.73" transform="translate(-23.98 87.85) rotate(-19.68)" style="fill:#fff"></ellipse><ellipse cx="242.56" cy="112.57" rx="13.36" ry="16.6" transform="translate(-23.74 88.26) rotate(-19.68)" style="fill:#B95555"></ellipse><path d="M252.78,108.92c2.37,6.63.14,13.49-5,15.32s-11.2-2-13.57-8.68-.14-13.49,5-15.32S250.41,102.29,252.78,108.92Z" style="fill:#fff"></path><path d="M251,110c1.69,4.73.23,9.57-3.26,10.82s-7.7-1.57-9.39-6.29-.23-9.58,3.27-10.83S249.34,105.23,251,110Z" style="fill:#B95555"></path><path d="M249.81,110.39c1.22,3.41.29,6.87-2.07,7.71s-5.28-1.23-6.5-4.65-.29-6.86,2.07-7.71S248.59,107,249.81,110.39Z" style="fill:#fff"></path><polygon points="278 94.96 271.64 97.24 270.42 103.02 275.03 106.71 281.39 104.44 276.67 100.78 278 94.96" style="fill:#B95555"></polygon><path d="M246.52,112.57a1,1,0,0,1-1-.67,1,1,0,0,1,.61-1.27l31.13-11.14a1,1,0,0,1,.67,1.89l-31.13,11.13A1,1,0,0,1,246.52,112.57Z" style="fill:#263238"></path></g><g id="freepik--character-2--inject-38"><g id="freepik--group--inject-38"><path d="M276.21,201.61l-1.56-3.8s1.24-1.19,1.08-2.15-6.61-6.28-7.8-7.19-3.12,2.44-3.87,5.11,6,7.35,7,6.9l1.08,3.78Z" style="fill:#ebb376"></path><path d="M315.44,200.91c-11.89,1.45-25.14,18.94-29,16.71s-11-18.28-11-18.28l-4.09,2.42s3.72,29.46,12.82,30.58S310.11,224,310.11,224Z" style="fill:#263238"></path><path d="M315.44,200.92l-3.52,15.26-1.81,7.8a94.05,94.05,0,0,1-15.57,6.81c-3.7,1.16-7.43,1.9-10.35,1.54-9.09-1.11-12.81-30.57-12.81-30.57l4.08-2.42s7.1,16,11,18.28S303.56,202.37,315.44,200.92Z" style="fill:#fff;opacity:0.2"></path><path d="M311.92,216.18l-1.81,7.8a94.05,94.05,0,0,1-15.57,6.81C296.4,220.71,307.86,217.14,311.92,216.18Z" style="opacity:0.2;isolation:isolate"></path><path d="M345.28,422.68h8.79a.62.62,0,0,1,.61.49l1.43,6.45a1.07,1.07,0,0,1-.82,1.26,1,1,0,0,1-.24,0c-2.84,0-4.91-.22-8.49-.22-2.2,0-8.83.23-11.87.23s-3.43-3-2.19-3.27c5.58-1.22,9.78-2.9,11.56-4.5A1.72,1.72,0,0,1,345.28,422.68Z" style="fill:#263238"></path><path d="M300.63,422.68h8.79a.63.63,0,0,1,.62.49l1.42,6.45a1.05,1.05,0,0,1-.82,1.26.93.93,0,0,1-.23,0c-2.85,0-4.92-.22-8.49-.22-2.2,0-8.84.23-11.87.23s-3.44-3-2.19-3.27c5.57-1.22,9.77-2.9,11.56-4.5A1.7,1.7,0,0,1,300.63,422.68Z" style="fill:#263238"></path><path d="M352.71,264.89a274.41,274.41,0,0,1-2.66,72.53s6.61,55.53,4.63,85.79l-10.62,0s-17.69-61.27-19.8-79.12-5.12-44.3-5.12-44.3-5.41,25.06-14.32,44.3c0,0,7.61,18.14,6.67,80.85l-13.39-1.11s-9.57-58.48-14.26-79.72,4.4-62.32,11.93-84.17Z" style="fill:#263238"></path><path d="M352.71,264.89a274.41,274.41,0,0,1-2.66,72.53s6.61,55.53,4.63,85.79l-10.62,0s-17.69-61.27-19.8-79.12-5.12-44.3-5.12-44.3-5.41,25.06-14.32,44.3c0,0,7.61,18.14,6.67,80.85l-13.39-1.11s-9.57-58.48-14.26-79.72,4.4-62.32,11.93-84.17Z" style="fill:#fff;opacity:0.4"></path><polygon points="307.51 266.75 328.98 269.45 329.64 264.6 308.14 262.13 307.51 266.75" style="fill:#263238"></polygon><polygon points="331.28 264.79 330.61 269.66 352.8 271.95 352.59 267.23 331.28 264.79" style="fill:#263238"></polygon><polygon points="306.51 261.95 296.15 260.76 295.19 265.19 305.88 266.54 306.51 261.95" style="fill:#263238"></polygon><path d="M319.54,268.59l-6.75-.77a.82.82,0,0,1-.75-.89l.56-4.06a.85.85,0,0,1,1-.69l6.76.77a.81.81,0,0,1,.74.89l-.56,4.06A.84.84,0,0,1,319.54,268.59Z" style="fill:#fff"></path><path d="M295.77,259.9s-6.31-11.43,7-31c0,0,3.87-21.15,7.1-24.49s13.16-7.78,27.33-5.23,20.1,8.3,20.1,8.3l-2.28,44.69s1.26,5.64-1.94,14.12Z" style="fill:#263238"></path><path d="M346.12,200.75c-5.39,2.68-18.05,3.48-18.05,3.48l-7-4.44c3.49-.32,5.68-1,7-2,2.1-1.57,1.94-3.76,1.27-5.9,0,0,0,0,0-.07h0l9.64-3.92,6.64-2.7C343.47,189.52,340.85,197.57,346.12,200.75Z" style="fill:#ebb376"></path><path d="M342.89,188.91c-1.12,6.55-9.59,8.84-14.82,8.84,2.1-1.57,1.94-3.76,1.27-5.9a.11.11,0,0,0,0-.08l9.64-3.92C339.18,188.65,343,188.09,342.89,188.91Z" style="opacity:0.2;isolation:isolate"></path><path d="M346.23,172.48a10.11,10.11,0,0,0-12.81-6.37,9.48,9.48,0,0,0-3.92,2.49h0c-2.65,1.39-4.28,5.77-4,8.72h0q-.17.93-.27,1.86c-.63,1.68-3.16,3.39-1.8,8.53,1.69,6.39,8.54,8.05,12.89,7h0a9.44,9.44,0,0,0,5.18-2.36,12.09,12.09,0,0,0,1.23-1.26c2.83-3.3,3.09-7.45,3.93-13.95A10.12,10.12,0,0,0,346.23,172.48Z" style="fill:#ebb376"></path><path d="M335.3,178.46c0,.6-.39,1.06-.79,1s-.67-.54-.64-1.14.4-1.06.79-1S335.34,177.85,335.3,178.46Z" style="fill:#263238"></path><path d="M328.5,178c0,.6-.4,1.07-.79,1s-.67-.54-.63-1.14.4-1.07.79-1S328.54,177.41,328.5,178Z" style="fill:#263238"></path><path d="M330.64,178.43a21.25,21.25,0,0,1-3.23,4.94,3.46,3.46,0,0,0,2.85.74Z" style="fill:#d58745"></path><path d="M337.75,176.15a.39.39,0,0,1-.36-.1,2.87,2.87,0,0,0-2.39-.91.35.35,0,0,1-.13-.69h0a3.5,3.5,0,0,1,3,1.11.35.35,0,0,1,0,.5h0A.42.42,0,0,1,337.75,176.15Z" style="fill:#263238"></path><path d="M326,175.89a.37.37,0,0,1-.2-.07.35.35,0,0,1,0-.5h0a3.49,3.49,0,0,1,3.11-.89.35.35,0,0,1,.25.43h0a.36.36,0,0,1-.43.25h0a2.86,2.86,0,0,0-2.45.74A.35.35,0,0,1,326,175.89Z" style="fill:#263238"></path><path d="M329.12,168.69c3.23-1.46,3.45,1,3.45,1s2.09-2.44,4.34-2.06,5.49,4.69,5.68,5.25-.89,1.66-.89,1.66.25,6.8.33,8.68l2.78,5.08a30.64,30.64,0,0,0,4.83-16.26c.09-9.69-19-9.22-19-9.22Z" style="fill:#263238"></path><path d="M349.41,185.55a7,7,0,0,1-4.6,2.79c-2.44.36-3.35-1.9-2.42-4.05.85-1.9,3.14-4.44,5.47-3.8S350.74,183.69,349.41,185.55Z" style="fill:#ebb376"></path><path d="M330.55,186.28a24.65,24.65,0,0,1,1.5,3.24l.61-.13c2.79-.59,3.88-1.79,4.25-2.93a3.89,3.89,0,0,0-.19-2.69c-1.29,1.2-3.84,1.95-5.22,2.29C330.92,186.21,330.55,186.28,330.55,186.28Z" style="fill:#263238"></path><path d="M331.5,186.06l.46.95c2.63-.57,4.39-1.32,5.05-2.29a3.79,3.79,0,0,0-.29-.95C335.43,185,332.88,185.72,331.5,186.06Z" style="fill:#fff"></path><path d="M332.66,189.39c2.79-.59,3.88-1.79,4.25-2.93a9.27,9.27,0,0,0-3,1.27A3.45,3.45,0,0,0,332.66,189.39Z" style="fill:#de5753"></path><path d="M330.64,162.86c-5.14.84-6,7.89-2.13,8.55s.65-1.78.65-1.78,6.75,2.23,7.91,1.9-.39-1.9-.39-1.9,4.44,3.19,8.11,1.93S345.6,160.43,330.64,162.86Z" style="fill:#263238"></path><polygon points="324.9 202.37 325.91 207.6 318.47 225.71 320.46 232.54 324.54 228.97 326.98 208.34 333.06 204.56 331.71 202.37 327.27 201.37 324.9 202.37" style="fill:#B95555"></polygon><polygon points="326.25 196.52 329.76 200.9 344.38 196.22 347.63 202.01 331.35 209.77 328.69 203.05 321.01 207.47 320.37 199.34 326.25 196.52" style="fill:#263238"></polygon><path d="M356.54,213.4c-.47,4.34-1.09,11-1.5,19.81a25.52,25.52,0,0,1-1.13-16A12.32,12.32,0,0,1,356.54,213.4Z" style="opacity:0.2;isolation:isolate"></path><path d="M343.44,246.89l-3.89.9s-.91-1.47-1.85-1.48-7.16,5.61-8.23,6.65,1.75,3.61,4.16,4.86,8.06-4.81,7.81-5.88l3.79-.42Z" style="fill:#ebb376"></path><path d="M357.33,207.46c6.7,3.91,18.17,28.15,15,37.3-2.27,6.58-24.52,9.84-29.83,7.39l-1.62-4.92s17.35-5.49,18.26-8.85c.72-2.67-6.05-9-6.05-9s-1.27-4.6,1-15.45C355.11,209.38,357.33,207.46,357.33,207.46Z" style="fill:#263238"></path><path d="M357.33,207.46c6.7,3.91,18.17,28.15,15,37.3-2.27,6.58-24.52,9.84-29.83,7.39l-1.62-4.92s17.35-5.49,18.26-8.85c.72-2.67-6.05-9-6.05-9s-1.27-4.6,1-15.45C355.11,209.38,357.33,207.46,357.33,207.46Z" style="fill:#fff;opacity:0.2"></path><polygon points="326.25 196.52 329.76 200.9 344.38 196.22 347.63 202.01 331.35 209.77 328.69 203.05 321.01 207.47 320.37 199.34 326.25 196.52" style="fill:#fff;opacity:0.2"></polygon></g></g><g id="freepik--character-1--inject-38"><g id="freepik--group--inject-38"><path d="M205,191.67c-.51-1.14,0-4.16,0-4.16s8.49-4.46,9.85-5.54,2.89,3.82,2,4.85-3.4,4.85-7.64,4.85L208,195Z" style="fill:#e4897b"></path><path d="M182,195.4c3.21.77,12.46,13,15.61,12.66s6.93-16.75,6.93-16.75l4.62,1.39s-2.31,20.63-8.19,23.4-20-9-20-9Z" style="fill:#B95555"></path><path d="M182,195.4c3.21.77,12.46,13,15.61,12.66s6.93-16.75,6.93-16.75l4.62,1.39s-2.31,20.63-8.19,23.4-20-9-20-9Z" style="fill:#fff;opacity:0.4"></path><path d="M182,208a70.78,70.78,0,0,0,8.33,5.62,14.31,14.31,0,0,0-7.21-9.66Z" style="opacity:0.2;isolation:isolate"></path><path d="M151,419h-9.14a.66.66,0,0,0-.64.52l-1.48,6.7a1.11,1.11,0,0,0,.85,1.32l.25,0c3-.05,5.11-.23,8.82-.23,2.29,0,9.19.24,12.35.24s3.57-3.12,2.28-3.41c-5.8-1.26-10.17-3-12-4.68A1.82,1.82,0,0,0,151,419Z" style="fill:#263238"></path><path d="M189.76,418.76h-9.14a.66.66,0,0,0-.64.52L178.5,426a1.11,1.11,0,0,0,.85,1.32l.25,0c3-.05,5.11-.23,8.82-.23,2.29,0,9.19.24,12.35.24s3.57-3.12,2.28-3.41c-5.8-1.26-10.17-3-12-4.68A1.86,1.86,0,0,0,189.76,418.76Z" style="fill:#263238"></path><path d="M146.15,249.54h39.94c3.79,20.74,15.68,104.94,7.15,170.33H179.72S181,320.57,169,288.48C167.66,305.65,153.7,419.8,153.7,419.8H139.94s2.05-42.94,4.11-83.5C145.35,310.76,146.09,254.78,146.15,249.54Z" style="fill:#263238"></path><path d="M169,288.48a107.58,107.58,0,0,1,4.46,17.28c1.12-15.28-3.35-31.49-3.35-31.49Z" style="opacity:0.30000000000000004;isolation:isolate"></path><polygon points="186.42 250.02 146.22 250.02 146.22 254.8 186.94 254.31 186.42 250.02"></polygon><rect x="159.14" y="247.86" width="1.44" height="8.5" transform="translate(319.72 504.22) rotate(180)" style="fill:#263238"></rect><rect x="179.48" y="247.86" width="1.44" height="8.5" transform="translate(360.4 504.22) rotate(180)" style="fill:#263238"></rect><rect x="168.1" y="249.18" width="7.44" height="5.36" transform="translate(343.63 503.72) rotate(180)" style="fill:#fff"></rect><path d="M153.64,255.7h-6.93l-.08,1.6-.41-.06c-1.54,15.4,3.16,19.25,3.16,19.25-2.08-2.17-2.62-11-2.62-11v0A11.09,11.09,0,0,0,153.64,255.7Z" style="opacity:0.30000000000000004;isolation:isolate"></path><path d="M146.57,251.86l4.35,5.73s.66-.7,2,1.26a11.48,11.48,0,0,1-5.65,6.16l.56-4.34-4.48-5.87Z" style="fill:#e4897b"></path><path d="M142.1,199.86c-3.71-.69-16.33,30.93-13.81,37.44s16.71,22,16.71,22l4.38-4.1s-11.65-15.53-13.33-20.64,7.62-21.32,7.62-21.32a23.62,23.62,0,0,0,.76-7.74A10.41,10.41,0,0,0,142.1,199.86Z" style="fill:#B95555"></path><path d="M142.1,199.86c-3.71-.69-16.33,30.93-13.81,37.44s16.71,22,16.71,22l4.38-4.1s-11.65-15.53-13.33-20.64,7.62-21.32,7.62-21.32a23.62,23.62,0,0,0,.76-7.74A10.41,10.41,0,0,0,142.1,199.86Z" style="fill:#fff;opacity:0.4"></path><path d="M187.05,235c0,.66,0,1.31,0,1.94,0,1.38-.05,2.68-.08,3.87-.07,1.67-.14,3.15-.21,4.42-.19,3-.39,4.79-.39,4.79H145.7c-.1-1.47-.2-2.94-.29-4.4s-.18-2.7-.27-4-.16-2.37-.24-3.54c-.05-.59-.08-1.19-.13-1.78-.11-1.65-.23-3.28-.34-4.88,0-.33,0-.65-.07-1-.15-2.21-.3-4.38-.46-6.49-.06-.87-.13-1.72-.19-2.57-.24-3.24-.46-6.32-.68-9.2-.14-1.83-.27-3.59-.4-5.24-.19-2.62-.37-5-.53-7.08L182,195.4c3.41,11,4.65,23.11,5,33.17,0,.36,0,.72,0,1.06C187,231.5,187.06,233.29,187.05,235Z" style="fill:#B95555"></path><path d="M142.63,206.9c.13,1.66.26,3.41.4,5.25.22,2.88.44,5.95.68,9.2a61.63,61.63,0,0,0,1.2-12.25Z" style="opacity:0.2;isolation:isolate"></path><path d="M187,240.8c-.07,1.67-.14,3.15-.21,4.42l-41.33.39c-.1-1.35-.18-2.7-.27-4Z" style="fill:#fff;opacity:0.4"></path><path d="M187.05,235c0,.66,0,1.31,0,1.94L144.9,238c-.05-.59-.08-1.19-.13-1.78Z" style="fill:#fff;opacity:0.4"></path><path d="M187,229.63l-42.56,1.75c0-.33,0-.65-.07-1l42.6-1.83C187,228.93,187,229.29,187,229.63Z" style="fill:#fff;opacity:0.4"></path><path d="M154.62,198.73c3.59,3,9,3.94,9,3.94s6.16-4.62,5-6.22c-3.13-.37-2.69-1.31-3.39-3.14a8.9,8.9,0,0,1-.47-3.54,16.7,16.7,0,0,1,.17-2l-10.8-7.28C155.74,185.55,157.83,194.88,154.62,198.73Z" style="fill:#e4897b"></path><path d="M156.78,185.32c.69,6.25,5.92,7.75,8.46,8a8.9,8.9,0,0,1-.47-3.54Z" style="opacity:0.2;isolation:isolate"></path><path d="M167.45,162.22s4.42,9.18.44,14.46S158.41,164,158.41,164Z" style="fill:#263238"></path><path d="M155.39,188.89a9.14,9.14,0,0,0,11.08.31,10.16,10.16,0,0,0,4.17-6.23,9.18,9.18,0,0,0,.18-1.07c.71-6.66-1.65-17.2-9.06-19.15a9.93,9.93,0,0,0-12.29,11.58C150.82,181.45,151.28,185.7,155.39,188.89Z" style="fill:#e4897b"></path><path d="M160.64,174.93c0,.58.44,1,.83,1s.63-.57.56-1.15-.46-1-.84-1S160.57,174.34,160.64,174.93Z" style="fill:#263238"></path><path d="M167.25,174.07c0,.59.45,1,.83,1s.63-.57.56-1.15-.45-1-.83-1S167.18,173.52,167.25,174.07Z" style="fill:#263238"></path><path d="M165.19,174.63a20.91,20.91,0,0,0,3.44,4.65,3.45,3.45,0,0,1-2.74.89Z" style="fill:#de5753"></path><path d="M169.32,171.05a.38.38,0,0,1-.37,0,2.8,2.8,0,0,0-2.49-.15.34.34,0,1,1-.33-.6h0a3.44,3.44,0,0,1,3.15.14.35.35,0,0,1,.15.47h0A.69.69,0,0,1,169.32,171.05Z" style="fill:#263238"></path><path d="M159,172.47a.34.34,0,0,1-.2,0,.35.35,0,0,1,0-.49h0a3.44,3.44,0,0,1,2.93-1.21.35.35,0,0,1,.29.4h0a.36.36,0,0,1-.39.29h0a2.76,2.76,0,0,0-2.3,1A.35.35,0,0,1,159,172.47Z" style="fill:#263238"></path><path d="M153.59,164.69l.86,1.24c-2.22,1.19-1.27,3.84-.57,5,1.48,2.47.71,6.83-1,8.83,0,0-.27-1.13-1.19-.69s.41,6.36,2.8,8.87c0,0-3.31-2.06-6-8-2.52-5.53-3.57-10.32-2.78-12.77Z" style="fill:#263238"></path><path d="M147.1,180.63a6.88,6.88,0,0,0,4.36,3c2.37.47,3.37-1.7,2.56-3.85-.73-1.9-2.85-4.49-5.16-4S145.88,178.74,147.1,180.63Z" style="fill:#e4897b"></path><path d="M165.89,182.46a21,21,0,0,0-1.33,2.84c-.19,0-.37-.07-.55-.12-2.44-.54-3.4-1.6-3.72-2.61a3.19,3.19,0,0,1-.07-1.52,3,3,0,0,1,.26-.84,11.76,11.76,0,0,0,4.58,2C165.57,182.4,165.89,182.46,165.89,182.46Z" style="fill:#263238"></path><path d="M165.06,182.26l-.41.83c-2.31-.52-3.86-1.19-4.43-2a3,3,0,0,1,.26-.84A11.76,11.76,0,0,0,165.06,182.26Z" style="fill:#fff"></path><path d="M164,185.18c-2.44-.54-3.4-1.6-3.72-2.61a8.13,8.13,0,0,1,2.6,1.14A3,3,0,0,1,164,185.18Z" style="fill:#de5753"></path><path d="M145.41,171.6s-3.62-5.64,3.1-11.66,15.57-3.5,17.44-1c0,0,5.36,1.18,2.7,6.5l-3.53-2.78S159.51,171.78,145.41,171.6Z" style="fill:#263238"></path><polygon points="170.57 196.9 167.06 223.94 152.67 198.88 163.44 200.8 170.57 196.9" style="fill:#B95555"></polygon><polygon points="170.57 196.9 167.8 218.22 167.06 223.94 164.33 219.19 152.67 198.88 163.44 200.8 170.57 196.9" style="fill:#fff;opacity:0.4"></polygon><polygon points="167.8 218.22 167.06 223.94 164.33 219.19 163.74 207.4 158.83 202.4 163.44 200.8 163.89 200.65 167.85 201.14 165.66 206.62 167.8 218.22" style="fill:#263238"></polygon><polygon points="155.88 195.75 163.46 199.88 165.95 194.78 170.57 196.9 168.87 204.92 163.95 201.89 160.28 206.58 152.67 198.88 155.88 195.75" style="fill:#B95555"></polygon><polygon points="155.88 195.75 163.46 199.88 165.95 194.78 170.57 196.9 168.87 204.92 163.95 201.89 160.28 206.58 152.67 198.88 155.88 195.75" style="fill:#fff;opacity:0.6000000000000001"></polygon></g></g></svg>